<ttFont>
          <CharString index="0">
            42 0 32.6666564941 13 23.3333435059 26 23.3333435059 26 11.6666564941 31 0 36 0 36 -11.6666564941 31 -23.3333435059 26 -23.3333435059 26 -32.6666564941 13 -42 0 -42 0 -32.6666717529 -13 -23.3333282471 -26 -23.3333282471 -26 -11.6666717529 -31 0 -36 rrcurveto
            0 -35.3333282471 11.8333282471 -30.8333282471 23.6666717529 -26.3333435059 23.6666717529 -26.3333282471 32.5 -13.1666717529 41.3333282471 0 rrcurveto
            return
          </CharString>
          <CharString index="1">
            -476 0 243 689 rlineto
            14.6666870117 -50.6666259766 77.6666259766 -229.666748047 140.666687012 -408.666625977 rrcurveto
            return
          </CharString>
          <CharString index="2">
            178 0 -551 1482 -177 0 -568 -1482 176 0 179 469 590 0 rlineto
            return
          </CharString>
          <CharString index="3">
            267 hlineto
            143.333312988 0 105.5 -20.5 67.6666870117 -41 67.6666870117 -41 33.8333129883 -71.5 0 -102 0 -98 -31.3333129883 -72.1666564941 -62.6666870117 -46.3333435059 -62.6666870117 -46.3333282471 -94 -23.1666717529 -125.333312988 0 rrcurveto
            -309 hlineto
            return
          </CharString>
          <CharString index="4">
            490 242 vlineto
            132.666687012 0 97.8333129883 -17.5 63 -35 63 -35 31.5 -63.8333740234 0 -92.6666259766 0 -92 -26.3333129883 -64 -52.6666870117 -36 -52.6666870117 -36 -78 -18 -103.333312988 0 rrcurveto
            return
          </CharString>
          <CharString index="5">
            -1479 516 vlineto
            173.333312988 0 130.5 36.6666564941 87.6666870117 73.3333435059 87.6666259766 73.3333435059 43.8333740234 103.666656494 0 134 0 92 -25.6666259766 78.6666870117 -51.3333740234 65.3333129883 -51.3333740234 65.3333129883 -75.3333129883 42 -99.3333129883 18.6666870117 43.3314819336 14 37.8333129883 18.8333129883 32.3352050781 23.6666870117 32.3333740234 23.6666870117 24.5 23.6666259766 16.6666259766 23.6666870117 rrcurveto
            16.6645507812 23.6666870117 13.1666259766 26.1666259766 9.66882324219 28.6666870117 9.66662597656 28.6666870117 6 23.4999389648 2.33337402344 18.3333740234 2.33337402344 18.3333740234 1.16662597656 18.5 0 18.6666259766 0 126.666625977 -45.8333740234 92.3333740234 -91.6666259766 58 -91.6666870117 58 -140.833312988 29 -190 0 rrcurveto
            return
          </CharString>
          <CharString index="6">
            124 0 116.666625977 -33 109.333374023 -66 rrcurveto
            68 141 rlineto
            -114 73.3333740234 -140 36.6666259766 -166 0 -109.333312988 0 -99.3333740234 -18.6666259766 -89.3333129883 -37.3333740234 -89.3333435059 -37.3333740234 -74.5 -52.1666259766 -59.6666564941 -67 -59.6665649414 -67 -46.1666717529 -80.1666259766 -32.6667633057 -93.3333740234 -32.6666107178 -93.3333129883 -16.3333282471 -102 -6.103515625e-05 -110.666687012 0 -114.666381836 15 -104.166687012 30 -93.6669311523 rrcurveto
            30 -93.6666564941 43.8333282471 -80.6666870117 57.6666717529 -67.6666564941 57.6666564941 -67.6666564941 73 -52.3333435059 88.3333435059 -37 88.333190918 -37 99.8333129883 -18.5 111.333496094 0 169.333312988 0 134.333312988 31.3333282471 99.3333740234 62.6666717529 rrcurveto
            -29 147 rlineto
            -122 -59.3333282471 -118 -29.6666717529 -114 0 -88.6666870117 0 -78.5 15.1666717529 -68.3333129883 30.3333282471 -68.3333129883 30.3333282471 -55.5000305176 42.6666717529 -42.6666564941 55 -42.6666564941 55 -32 64 -21.3333435059 73 -21.3333435059 73 -10.6666564941 80.8333129883 0 88.6666870117 0 118.666687012 19.6666564941 105 39.3333435059 91.3333129883 rrcurveto
            39.3333435059 91.3333740234 59.8333129883 72.6666259766 80.3333435059 54 80.3327026367 54 95.8333129883 27 111.333984375 0 rrcurveto
            return
          </CharString>
          <CharString index="7">
            0 -193.333312988 -50.8333740234 -145.833343506 -101.666625977 -98.3333435059 -101.666259766 -98.3332519531 -148.166687012 -49.1666717529 -194.667053223 -7.62939453125e-05 rrcurveto
            -261 1177 232 hlineto
            204 0 155.333312988 -47 106.666687012 -94 106.666625977 -94 53.3333740234 -150.333312988 0 -206.666687012 rrcurveto
            return
          </CharString>
          <CharString index="8">
            0 126 -19 110.5 -38 95 -38 95 -54.8333740234 77 -71.6666259766 59 -71.6666259766 59 -84.5000610352 44 -97.3333129883 29 -97.3333129883 29 -110.333374023 14.5 -123.333312988 0 rrcurveto
            -410 -1479 439 hlineto
            244.666687012 0 190.666687012 63.3333435059 136.666625977 126.666656494 136.666625977 126.666656494 68.3333740234 183.666656494 0 240.666687012 rrcurveto
            return
          </CharString>
          <CharString index="9">
            855 0 8 153 -690 0 0 538 635 0 0 151 -635 0 0 484 668 0 7 153 -848 0 rlineto
            return
          </CharString>
          <CharString index="10">
            660 611 147 -611 519 641 vlineto
            7 153 -821 0 0 -1479 rlineto
            return
          </CharString>
          <CharString index="11">
            100.666687012 0 89.5 8.5 78.3333129883 17 78.3333740234 17 81.1666259766 28.5 84 40 rrcurveto
            676 -505 vlineto
            -6 -151 349 0 0 -422 rlineto
            -107.332397461 -42 -105.666687012 -21 -104.000915527 0 -182.666381836 0 -138.166687012 54.5 -93.6669311523 109 -93.6666564941 109 -46.8333435059 148.5 0 188 0 88.6666870117 11.8333435059 81.5 23.6666564941 74.3333129883 23.6666564941 74.3333740234 34.3333435059 64.6666259766 45 55 45 55 58 43 71 31 rrcurveto
            71 31 80.5 15.5 90 0 129.333312988 0 126.666687012 -35.6666259766 124 -71.3333740234 rrcurveto
            66 143 rlineto
            -128.666625977 77.3333740234 -149.333374023 38.6666259766 -170 0 -153.333312988 0 -132.666687012 -33 -112 -66 -112 -66 -84.3333282471 -90.3333740234 -56.6666717529 -114.666625977 -56.6666107178 -114.666687012 -28.3333282471 -132 -6.103515625e-05 -149.333312988 0 -110.666381836 15.5 -101.666687012 31 -92.6669311523 31 -92.6666564941 44.6666717529 -80.1666870117 58.3333282471 -67.6666564941 rrcurveto
            58.3333435059 -67.6666564941 74 -52.6666717529 89.6666564941 -37.6666717529 89.6666870117 -37.6666717529 101.166625977 -18.8333282471 112.666687012 0 rrcurveto
            return
          </CharString>
          <CharString index="12">
            1479 -173 -635 -794 635 -173 -1479 173 692 794 -692 vlineto
            return
          </CharString>
          <CharString index="13">
            1479 -173 -1479 vlineto
            return
          </CharString>
          <CharString index="14">
            0 -35.3333282471 -0.83332824707 -28.1666717529 -1.66667175293 -21 -1.66667175293 -21 -4.33332824707 -22.5 -7 -24 -7 -24 -10.1666717529 -18.5 -13.3333282471 -13 -13.3333282471 -13 -18.8333435059 -10.8333282471 -24.3333282471 -8.66667175293 -24.3333435059 -8.66665649414 -29.8333282471 -4.33334350586 -35.3333282471 0 rrcurveto
            -74 0 21 -142 35 0 rlineto
            50 0 44 3.16667175293 38 6.33332824707 38 6.33332824707 32.8333282471 8.66667175293 27.6666717529 11 27.6665344238 11 23.1666564941 15.6666717529 18.666809082 20.3333282471 18.666015625 20.3333435059 15.1666564941 21.1666564941 11.6673278809 22 11.6666564941 22 8.83334350586 28.1666717529 6 34.3333282471 6 34.3333282471 4 33.8333282471 2 33.3333435059 rrcurveto
            2 33.3333282471 1 41 0 48.6666717529 rrcurveto
            1255 -177 vlineto
            return
          </CharString>
          <CharString index="15">
            -646 813 600 666 -217 0 -650 -726 0 726 -174 0 0 -1479 174 0 0 587 135 119 566 -706 rlineto
            return
          </CharString>
          <CharString index="16">
            819 0 6 154 -651 0 0 1325 -174 0 rlineto
            return
          </CharString>
          <CharString index="17">
            169 0 453 1052 37 101 -7 -354 0 -890 168 0 0 1479 -218 0 -510 -1178 -515 1178 -224 0 0 -1479 162 0 0 886 -7 362 rlineto
            38 -101 rlineto
            return
          </CharString>
          <CharString index="18">
            1479 -161 -864 vlineto
            0 -33.3333129883 2.33337402344 -123 4.66662597656 -212.666687012 rrcurveto
            -51 69 -770 1164 -193 0 0 -1479 162 0 0 858 rlineto
            0 110 -2.66665649414 125 -5.33334350586 140 rrcurveto
            50 -69 768 -1164 rlineto
            return
          </CharString>
          <CharString index="19">
            0 194.666687012 44.3333435059 150.999938965 88.6666564941 107.333374023 88.6666870117 107.333374023 128.666625977 53.6666259766 168.666687012 0 168.666687012 0 127.833312988 -53.6666259766 87 -107.333374023 87 -107.332397461 43.5 -151 0 -194.667602539 0 -190.666564941 -43.1666259766 -149.333343506 -86.3333740234 -108.000091553 -86.3333740234 -108 -128.5 -54 -170.666625977 0 rrcurveto
            -170.666687012 0 -129 54.1666564941 -87.3333129883 108.333343506 -87.3333435059 108.333343506 -43.6666564941 149.166656494 0 190 rrcurveto
            return
          </CharString>
          <CharString index="20">
            0 235.333251953 -61.8333740234 186.5 -123.666625977 137.666748047 -123.666625977 137.666625977 -171.166748047 68.8333740234 -218.666625977 0 -222 0 -172.666656494 -68.3333740234 -123.333343506 -136.666625977 -123.333312988 -136.666625977 -61.6666564941 -186.666687012 -3.0517578125e-05 -236.666687012 0 -153.333312988 26.5 -133.500030518 53 -113.666656494 53 -113.666656494 79.6666564941 -88.6666717529 106.333343506 -63.6666717529 rrcurveto
            106.333068848 -63.6666717529 127.833312988 -31.8333282471 149.333618164 0 110.666687012 0 99.6666870117 18.5 88.6666259766 37 88.6666259766 37 73.5 52 58.3333740234 67 58.3333740234 67 44.6666259766 80.1666564941 31 93.3333435059 31 93.3333129883 15.5 103 0 112.666687012 rrcurveto
            return
          </CharString>
          <CharString index="21">
            638 vlineto
            94 -8.66668701172 81.3333435059 -4.33331298828 68.6666564941 0 86.6666870117 0 76.1666259766 7.5 65.6666870117 15 65.6666870117 15 53.8333129883 20.6666870117 42 26.3333129883 42 26.3333129883 34 33.1666870117 26 40 26 40 18.3333740234 42.8333129883 10.6666259766 45.6666870117 10.6666259766 45.6666870117 5.33337402344 51.8333129883 0 58 rrcurveto
            0 70 -12.6666259766 61.3333740234 -25.3333740234 52.6666259766 -25.3333740234 52.6666259766 -35.6666259766 42 -46 31.3333740234 -46 31.3333740234 -52.6666870117 23.3332519531 -59.3333129883 15.3333740234 -59.3333129883 15.3333740234 -66.3333740234 7.66662597656 -73.3333129883 0 rrcurveto
            -482 -1496 hlineto
            return
          </CharString>
          <CharString index="22">
            -45.3333129883 0 -87 0.666687011719 -128.666687012 1.33331298828 rrcurveto
            557 309 vlineto
            98 0 77.5 -20 57 -40 57 -40 28.5 -62.3333740234 0 -84.6666259766 0 -35.3333740234 -1.66668701172 -30.1666259766 -3.33331298828 -25 -3.33331298828 -25 -8.83337402344 -27.5 -14.3333129883 -30 -14.3333129883 -30 -19.6666870117 -24.3333129883 -25 -18.6666870117 -25 -18.6635131836 -35.8333129883 -15.6666870117 -46.6666870117 -12.6697998047 rrcurveto
            -46.6666870117 -12.6666870117 -56 -6.33331298828 -65.3333129883 0 rrcurveto
            return
          </CharString>
          <CharString index="23">
            396 hlineto
            112.666687012 0 80.3333129883 -19.6666259766 48 -39.3333740234 48 -39.3333740234 24 -60 0 -80.6666259766 0 -92 -25 -67.1666870117 -50 -42.3333129883 -50 -42.3333129883 -88.6666870117 -21.1666870117 -127.333312988 0 -46.6660766602 0 -66.1666870117 0.666687011719 -85.6672363281 1.33331298828 -85.6666564941 1.33331298828 -56.5 0.666687011719 -27.3333435059 0 rrcurveto
            return
          </CharString>
          <CharString index="24">
            -242 522 rlineto
            -10 22 -14.1666870117 27.5 -18.3333129883 33 -18.3333129883 33 -15.8333740234 27.8333129883 -13.3333129883 22.6666870117 -13.3333129883 22.6666870117 -6.66668701172 12 0 1.33331298828 90 26 69.5 46.6666870117 49 67.3333129883 49 67.3323974609 24.5 80.3333129883 0 93.3342895508 0 47.3333740234 -4.66662597656 42.5 -9.33337402344 37.6666259766 rrcurveto
            -9.3154296875 37.6666259766 -12.8333740234 32.5 -16.3511962891 27.3333740234 -16.3333740234 27.3333740234 -21.5 23.5 -26.6666259766 19.6666259766 -26.6666259766 19.6666259766 -28.6667480469 16 -30.6666259766 12.3333740234 -30.664855957 12.3333740234 -36.1666870117 9.66662597656 -41.6684570312 7 -41.6666870117 7 -41.8333129883 4.83337402344 -42 2.66662597656 -42 2.66662597656 -48.3333129883 1.33337402344 -54.6666870117 0 rrcurveto
            -473 -1496 177 692 hlineto
            265 -8 rlineto
            66.6666870117 0 57.6666259766 1.66668701172 48.6666870117 3.33331298828 15.3318481445 -25.3333129883 35.3333129883 -75 55.3348388672 -124.666687012 rrcurveto
            204 -464 rlineto
            return
          </CharString>
          <CharString index="25">
            -52 -144 rlineto
            54 -33.3333282471 73.1666564941 -28.8333282471 92.3333435059 -24.3333435059 92.3333435059 -24.3333282471 105.5 -12.1666717529 118.666656494 0 158.666687012 0 125.5 38.1666564941 92.3333129883 76.3333435059 92.3333740234 76.3333435059 46.1666259766 113.499969482 0 150.666687012 0 116 -31 89.5 -62 63 -62 63 -91 45.8333129883 -120 28.6666870117 rrcurveto
            -281 68 rlineto
            -74 18 -55.5 26.1666870117 -37 34.3333129883 -37 34.3332519531 -18.5 45.5 0 56.6667480469 -6.103515625e-05 167.333374023 120.666656494 83.6666259766 241.333404541 0 75.3333129883 0 74.5 -9.66662597656 73.6666870117 -19.3333740234 73.6666870117 -19.3333740234 59.1666259766 -22 44.6666870117 -24.6666259766 rrcurveto
            50 141 rlineto
            -52.6666259766 32.6666259766 -65.3333740234 26 -78 19.3333740234 -78 19.3333740234 -83.6666870117 9.66662597656 -89.3333129883 0 -170.666687012 0 -133.666656494 -34.1666259766 -96.6666564941 -68.3333740234 -96.6666564941 -68.3333740234 -48.3333435059 -104.5 0 -140.666625977 0 -183.333312988 112.333328247 -120 224.666671753 -56.6666870117 rrcurveto
            294 -74 rlineto
            90.6666870117 -22.6654663086 62.5 -31.1666870117 34.3333129883 -39.6678466797 34.3333129883 -39.6661987305 17.1666870117 -51.8333435059 0 -64.0004577637 0 -197.333328247 -108.333312988 -98.6666717529 -216.666687012 0 -176 0 -165 38 -154 76 rrcurveto
            return
          </CharString>
          <CharString index="26">
            1326 455 153 -1084 -153 455 -1326 vlineto
            return
          </CharString>
          <CharString index="27">
            -173 -960 hlineto
            0 -133.333312988 -31.8333740234 -98.6666870117 -63.6666259766 -64 -63.6666870117 -64 -96.5 -32 -129.333312988 0 -132.666687012 0 -98 31.6666564941 -63.3333129883 63.3333435059 -63.3333435059 63.3333435059 -31.6666564941 98.6666564941 0 134 rrcurveto
            961 -174 -958 vlineto
            -7.62939453125e-05 -171.333312988 45.3333282471 -133.333343506 90.6667480469 -95.3333435059 90.6666564941 -95.3333435059 140.333343506 -47.6666564941 190 0 190 0 141.5 47.6666564941 93 95.3333435059 93 95.3333435059 46.5 132.666656494 0 170 rrcurveto
            return
          </CharString>
          <CharString index="28">
            188 0 378 1243 360 -1243 189 0 452 1479 -181 0 -369 -1274 -355 1247 -195 0 -366 -1246 -366 1273 -181 0 rlineto
            return
          </CharString>
          <CharString index="29">
            -405 725 -187 0 499 -893 0 -586 175 0 0 590 522 889 -188 0 rlineto
            return
          </CharString>
          <CharString index="30">
            1026 0 6 154 -816 0 809 1196 0 129 -996 0 0 -154 775 0 -804 -1189 rlineto
            return
          </CharString>
          <CharString index="31">
            112 0 -185 387 -250 0 rlineto
            return
          </CharString>
          <CharString index="32">
            -60.6666564941 0 -47.6666870117 15 -34.6666564941 30 -34.6666564941 30 -17.3333435059 44.3333282471 0 58.6666717529 0 76.6664733887 28.5 55.6666564941 57 34.6668701172 57 34.6666564941 100.833312988 23.6666564941 144.666687012 12.6666870117 11.3333129883 0.666687011719 24.1666870117 2 37 3.33331298828 37 3.33331298828 20.1666870117 1.66668701172 3.33331298828 0 rrcurveto
            -185 vlineto
            -17.3333129883 -74 -38.8333740234 -58.8333282471 -60.3333129883 -43.6666717529 -60.3333129883 -43.6666107178 -69.8333740234 -21.8333282471 -79.3333129883 -6.103515625e-05 rrcurveto
            return
          </CharString>
          <CharString index="33">
            130 726 hlineto
            0 143.333312988 -30.1666870117 101.5 -60.3333129883 59.6666870117 -60.3333129883 59.6666259766 -98.5 29.8333740234 -136.666687012 0 -69.3333435059 0 -68.1666564941 -8.16662597656 -67 -16.3333740234 -67 -16.3251953125 -57.8333282471 -21.8333740234 -48.6666717529 -27.3414306641 0.66667175293 -1.33337402344 7.33332824707 -19.8333129883 14 -38.3333129883 14 -38.3333129883 8.66667175293 -23.1666870117 3.33332824707 -8 rrcurveto
            110 53.3333129883 109 26.6666870117 108 0 77.3333129883 0 56.6666870117 -18.6666870117 36 -37.3333129883 36 -37.3333129883 18 -57.3333740234 0 -77.3333129883 rrcurveto
            -97 vlineto
            -22 -2 -33.1666870117 -2.83331298828 -44.3333129883 -3.66668701172 -44.3333129883 -3.66668701172 -33.1666870117 -2.83331298828 -22 -2 -160 -13.3333129883 -122.5 -33.6666870117 -85 -54 -85 -54 -42.5 -83 0 -112 -3.0517578125e-05 -100.666656494 31.1666717529 -77.1666717529 62.3333587646 -53.6666717529 62.3333129883 -53.6666717529 82.5 -26.8333282471 102.666687012 0 rrcurveto
            71.9999694824 0 62.6666564941 11.6666717529 53.3333740234 23.3333282471 53.3333129883 23.3333435059 57 41.9999847412 60.6666870117 60.6666717529 9.33331298828 -49.3333282471 9.66668701172 -46 10 -42.6666717529 rrcurveto
            return
          </CharString>
          <CharString index="34">
            72 0 59.6666870117 -19.6666870117 47.3333129883 -39.3333129883 47.3333129883 -39.3333129883 33.5 -51 19.6666870117 -62.6666870117 19.6666870117 -62.6666870117 9.83331298828 -73.3333129883 0 -84 0 -62 -5.83331298828 -56.3333435059 -11.6666870117 -50.6666564941 -11.6631469727 -50.6666564941 -17.6666870117 -45.5 -23.6701660156 -40.3333435059 -23.6666870117 -40.3333282471 -32.3333129883 -31.3333435059 -41 -22.3333282471 rrcurveto
            -41 -22.3333435059 -47.5 -11.1666564941 -54 0 -218 0 -109 144.666656494 0 289.333343506 0 141.333312988 28.1666564941 107.166687012 56.3333435059 73 56.3333435059 73 81.1666564941 36.5 106 0 rrcurveto
            return
          </CharString>
          <CharString index="35">
            -70 0 -65.8333129883 -16.1666259766 -61.6666870117 -32.3333740234 -61.6666564941 -32.3333740234 -50.1666870117 -43.8333129883 -38.6666564941 -55.3333129883 2.66665649414 64 1.33334350586 76.6666259766 0 89.3333740234 rrcurveto
            0 363 -167 -10 0 -1523 143 0 17 152 rlineto
            40 -54 50 -42.6666717529 60 -31.3333282471 60 -31.3333282471 66.3333129883 -15.6666717529 72.6666870117 0 98.6666870117 0 84.8333129883 24.8333282471 71 49.6666717529 71 49.6666717529 53 67.8333282471 35 86 35 86 17.5 99.6666564941 0 113.333343506 0 109.333312988 -17.6666259766 97 -35.3333740234 84.6666870117 rrcurveto
            -35.3314208984 84.6666870117 -53 67 -70.6685791016 49.3333129883 -70.6666870117 49.3333740234 -84 24.6666259766 -97.3333129883 0 rrcurveto
            return
          </CharString>
          <CharString index="36">
            118.666687012 0 95.6666259766 26.3333282471 72.6666870117 52.6666717529 rrcurveto
            -21 133 rlineto
            -90 -46.6666107178 -88 -23.3333282471 -86 -6.103515625e-05 -108 0 -84.5 38.1666564941 -61 76.3333435059 -61 76.3333435059 -30.5 103.499969482 0 130.666687012 0 134 30.8333435059 105.666687012 61.6666564941 77.3333129883 61.6666564941 77.3333129883 83.8333435059 38.6666870117 106 0 86.6666870117 0 82.3333129883 -21 78 -42 rrcurveto
            46 130 rlineto
            -30.6666870117 22.6666259766 -41.8333129883 18.3333740234 -53 14 -53 14 -54.8333129883 7 -56.6666870117 0 -160.666564941 0 -126.5 -53.1666259766 -92.3334350586 -106.333374023 -92.3333129883 -106.333312988 -46.5 -138.5 -0.666687011719 -170.666687012 0 -169.333312988 45.5 -137.000030518 91 -104.666656494 90.9999389648 -104.666656494 126.166656494 -52.3333435059 161.333404541 0 rrcurveto
            return
          </CharString>
          <CharString index="37">
            -68.6666564941 0 -57.6666870117 18.6666564941 -46.6666564941 37.3333435059 -46.6666564941 37.3332214355 -33.8333435059 50 -21 62.6667785645 -21 62.6666564941 -10.5 74 0 85.3333435059 0 60.6666870117 6.16665649414 55.8333129883 12.3333435059 51 12.3333435059 51 18.1666564941 45.1666870117 24 39.3333129883 24 39.3333129883 31.6666564941 30.6666870117 39.3333435059 22 rrcurveto
            39.3333435059 22 45.3333435059 11 51.3333129883 0 115.333312988 0 83.5 -37.5 51.6666870117 -75 51.6666870117 -75 25.8333129883 -111.5 0 -148 0 -131.333312988 -26.8333129883 -101.000030518 -53.6666870117 -70.6666564941 -53.6666870117 -70.6666564941 -81.8333129883 -35.3333435059 -110 0 rrcurveto
            return
          </CharString>
          <CharString index="38">
            22 -159 142 0 0 1533 -165 -10 0 -483 3 -95 rlineto
            -32 53.3314208984 -48.1666870117 42.5 -64.3333129883 31.6685791016 -64.3333129883 31.6666259766 -68.5 15.8333740234 -72.6666870117 0 -140 0 -111.666656494 -52.1666259766 -83.3333435059 -104.333374023 -83.3333129883 -104.333312988 -41.6666564941 -136.833374023 -3.0517578125e-05 -169.333312988 0 -177.333312988 41 -140.166687012 82 -103 82 -103 113.333312988 -51.5 144.666687012 0 rrcurveto
            74 0 67 16.3333282471 60 32.6666717529 60 32.6666564941 48 44 36 55.3333435059 rrcurveto
            return
          </CharString>
          <CharString index="39">
            85.3333129883 0 67.1666870117 -29.1666870117 49 -58.3333129883 49 -58.3333129883 24.5 -83.5 0 -108.666687012 rrcurveto
            -579 hlineto
            9.33334350586 104.666687012 31.6666564941 82.5 54 60.3333129883 54 60.3333129883 69.6666564941 30.1666870117 85.3333435059 0 rrcurveto
            return
          </CharString>
          <CharString index="40">
            142.666687012 0 127 34 111.333312988 68 rrcurveto
            -26 135 rlineto
            -116.666687012 -61.3333282471 -116.333312988 -30.6666717529 -116 0 -105.333099365 -6.103515625e-05 -83.8333435059 34.8333282471 -62.3335571289 69.6667327881 -62.3333435059 69.6665039062 -32.1666564941 97.1666564941 -2 124.6668396 rrcurveto
            753 hlineto
            0 9.33129882812 0.166687011719 15.3333129883 0.333312988281 21.3353881836 0.333312988281 21.3333129883 0.166687011719 14.6666870117 0 8 0 155.333312988 -39.8333129883 124.166687012 -79.6666870117 93 -79.6666870117 93 -107.833312988 46.5 -136 0 -144.666687012 -2 -116.666656494 -53.8333740234 -88.6666564941 -105.666625977 -88.6666564941 -105.666687012 -44.3333435059 -137.833312988 0 -170 rrcurveto
            -3.0517578125e-05 -176 45.8333435059 -138.666671753 91.6666870117 -101.333328247 91.6666259766 -101.333343506 125.5 -50.6666564941 159.333374023 0 rrcurveto
            return
          </CharString>
          <CharString index="41">
            30.6666870117 0 45 -4.33337402344 59.3333129883 -8.66662597656 rrcurveto
            11 131 rlineto
            -64.6660766602 10 -54.6666870117 5 -44.6672363281 0 -115.333343506 0 -83.5 -31.8333740234 -51.6666564941 -63.6666259766 -51.6666717529 -63.6666259766 -26.5 -102.5 -1.33332824707 -141.333374023 rrcurveto
            0 -49 -164 -14 -14 -110 178 0 0 -973 167 0 0 973 264 0 0 124 -264 0 0 51 rlineto
            0 98.6666259766 12.8333435059 69.3333740234 25.6666564941 40 25.6666564941 40 47.5 20 69.3333435059 0 rrcurveto
            return
          </CharString>
          <CharString index="42">
            -44 0 -40.5 8.33332824707 -37 16.6666717529 -37 16.6666717529 -30.8333435059 21.8333282471 -24.6666564941 27 -24.6666564941 27 -21 31.5 -17.3333435059 36 -17.3333435059 36 -12.6666564941 37 -8 38 -8 38 -4 38.3333129883 0 38.6666870117 0 39.3333129883 3.66667175293 39 7.33332824707 38.6666870117 rrcurveto
            7.33334350586 38.6666870117 12.1666564941 38.1666259766 17 37.6666870117 17 37.6666870117 20.6666564941 33 24.3333435059 28.3333129883 24.3333435059 28.3298339844 31 22.8333129883 37.6666564941 17.3368530273 37.6666564941 17.3333129883 41.8333435059 8.66668701172 46 0 55.3333129883 0 48.5 -10 41.6666870117 -20 41.6666870117 -20 33.3333129883 -27.8333129883 25 -35.6666870117 rrcurveto
            25 -35.6666870117 18.5 -40.3333129883 12 -45 12 -45 6 -49.1666870117 0 -53.3333129883 rrcurveto
            -81 vlineto
            0 -51.3332214355 -5.83331298828 -47.3333435059 -11.6666870117 -43.3334350586 -11.6666870117 -43.3330383301 -17.8333129883 -39.3333435059 -24 -35.3336181641 -24 -35.3333282471 -33.3333129883 -27.6666717529 -42.6666870117 -20 -42.6654052734 -20 -49.6666870117 -10 -56.6679077148 0 rrcurveto
            return
          </CharString>
          <CharString index="43">
            185 hlineto
            71.3333129883 0 64 6 56.6666870117 12 56.6666870117 12 47.5 15.5 38.3333129883 19 38.3333129883 19 33 25 27.6666870117 31 27.6666870117 31 21.5 30.8333435059 15.3333129883 30.6666564941 15.3333129883 30.6666717529 12.1666870117 36.6666564941 9 42.6666717529 9 42.6666717529 5.66662597656 38.8333282471 2.33337402344 35 rrcurveto
            2.33337402344 35 1.16662597656 40.8333282471 0 46.6666717529 rrcurveto
            1018 -163 -146 vlineto
            -42.6651000977 57.3332519531 -48.1666870117 42.5 -53.6682128906 27.6667480469 -53.6666870117 27.6666259766 -62.8333129883 13.8333740234 -72 0 -81.3333435059 0 -72.1666564941 -15.1666259766 -63 -30.3333740234 -63 -30.3333740234 -50.8333282471 -41.8333129883 -38.6666717529 -53.3333129883 -38.6666717529 -53.3333129883 -29.1666717529 -60.6666870117 -19.6666564941 -68 -19.6666564941 -68 -9.83334350586 -74 0 -80 rrcurveto
            0 -51.3333435059 5.83334350586 -51 11.6666564941 -50.6666564941 11.6666259766 -50.6666564941 18.6666564941 -49 25.6667175293 -47.3333435059 25.6666717529 -47.3333282471 31 -41.6666717529 36.3333282471 -36 36.3333435059 -36 44.6666564941 -28.8333435059 53 -21.6666564941 53 -21.6666717529 57.8333435059 -10.8333282471 62.6666564941 0 81.3333129883 0 67 15.5 52.6666870117 31 rrcurveto
            52.6666870117 31 46.3333129883 44.1666564941 40 57.3333435059 rrcurveto
            -97 vlineto
            0 -50.6666717529 -1.5 -42.8333282471 -3 -35 -3 -35.0000305176 -6 -35.3333282471 -9 -35.6666412354 -9 -35.6666717529 -13.1666870117 -29 -17.3333129883 -22.3333282471 -17.3333129883 -22.3335876465 -22.6666870117 -20.3333435059 -28 -18.3330688477 -28 -18.3333435059 -35 -13.1666564941 -42 -8 -42 -8 -49.3333129883 -4 -56.6666870117 0 rrcurveto
            -204 hlineto
            return
          </CharString>
          <CharString index="44">
            167 689 hlineto
            287.333374023 -122.333312988 143.666625977 -244.666687012 vhcurveto
            -155.333312988 0 -124.666687012 -58 -94 -116 2.66665649414 56 1.33334350586 47 0 38 rrcurveto
            0 446 -167 -10 0 -1523 167 0 0 585 rlineto
            0 61.3333129883 3 55.6666870117 6 50 17.3333435059 66.6666870117 37.5 54.3333129883 57.6666564941 42 57.6666564941 42 70.8333435059 21 84 0 87.3333129883 0 61.1666870117 -25 35 -50 35 -50 17.5 -80 0 -110 rrcurveto
            return
          </CharString>
          <CharString index="45">
            -168 -1097 168 hlineto
            return
          </CharString>
          <CharString index="46">
            -168 -198 168 hlineto
            return
          </CharString>
          <CharString index="47">
            166 435 hlineto
            122 105 401 -540 208 0 -488 635 456 462 -212 0 rlineto
            -242 -243.333312988 -150 -153.333374023 -58 -63.3333129883 -4.66665649414 -4.66668701172 -6.33334350586 -7 -8 -9.33331298828 -8 -9.33331298828 -6 -6.66668701172 -4 -4 rrcurveto
            0 140 0 797 -166 -10 rlineto
            return
          </CharString>
          <CharString index="48">
            46.6666564941 0 57.6666564941 5.66667175293 68.6666870117 11.3333282471 rrcurveto
            -9 133 rlineto
            -62.6666870117 -8 -42 -4 -21.3333129883 0 -26 0 -21.8333435059 1.83334350586 -17.6666564941 3.66665649414 -17.6666564941 3.66665649414 -15.1666870117 7.33334350586 -12.6666564941 11 -12.6666564941 11 -9.66668701172 12.1666717529 -6.66665649414 13.3333282471 -6.66665649414 13.3331451416 -5.33334350586 19.8333282471 -4 26.3335266113 -4 26.3333435059 -2.5 26.8333129883 -1 27.3333435059 rrcurveto
            -1 27.3333435059 -0.5 36.3333129883 0 45.3333435059 rrcurveto
            0 1102 -166 -10 0 -1158 rlineto
            0 -142 22.1666717529 -99.6666717529 44.3333282471 -57.3333282471 44.3333129883 -57.3333282471 75.5 -28.6666717529 106.666687012 0 rrcurveto
            return
          </CharString>
          <CharString index="49">
            167 706 hlineto
            0 136.666687012 -28.5 103.166625977 -57 69.6666870117 -57 69.6666259766 -89.5 34.8333740234 -122 0 -164.666625977 0 -122.333374023 -65 -80 -130 -6.66668701172 18.6666870117 -8.33331298828 17.8333129883 -10 17 -10 17 -14 17.3333129883 -18 17.6666870117 -18 17.6646728516 -20.5 15.1666259766 -23 12.6687011719 rrcurveto
            -23 12.6666259766 -28.6666870117 10.5 -34.3333129883 8.33337402344 -34.3333129883 8.33337402344 -37.5 4.16662597656 -40.6666870117 0 -78 0 -69.6666564941 -17.3333740234 -61.3333435059 -34.6666259766 -61.3329772949 -34.6666259766 -47.3333435059 -42.6666870117 -33.3336791992 -50.6666870117 rrcurveto
            -21 157 -140 0 rlineto
            0 -45.3331298828 0.66667175293 -365.666687012 1.33332824707 -686.000183105 rrcurveto
            167 587 hlineto
            0 60 3 55.6666870117 6 51.3333129883 18.6666564941 67.3333129883 36.5 54 54.3333435059 40.6666870117 54.3333435059 40.6666870117 67.1666564941 20.3333129883 80 0 36 0 31 -6.33331298828 26 -12.6666870117 26 -12.6666870117 20.8333129883 -17 15.6666870117 -21.3333129883 15.6666870117 -21.3333129883 12.5 -27.8333740234 9.33331298828 -34.3333129883 rrcurveto
            9.32055664062 -34.3333129883 6.33331298828 -35.3333740234 3.34613037109 -36.3333129883 3.33331298828 -36.3333129883 1.66668701172 -42.8333740234 0 -49.3333129883 rrcurveto
            -589 167 598 vlineto
            0 54.6666870117 3 51.3333129883 6 48 22 71.3317260742 36.8333740234 55.3333129883 51.6666259766 39.3349609375 51.6666259766 39.3333129883 62.5 19.6666870117 73.3333740234 0 37.3333740234 0 32 -6.83331298828 26.6666259766 -13.6666870117 26.6666259766 -13.6630859375 20.8333740234 -17.6666870117 15 -21.6702270508 15 -21.6666870117 11.6666259766 -29.5 8.33337402344 -37.3333129883 rrcurveto
            8.33337402344 -37.3333129883 5.33325195312 -36.6666870117 2.33337402344 -36 2.33337402344 -36 1.16662597656 -44.6666870117 0 -53.3333129883 rrcurveto
            return
          </CharString>
          <CharString index="50">
            169 600 hlineto
            0 58 3.33334350586 51.3333129883 6.66665649414 44.6666870117 17.3333435059 66 37.3333129883 53.6666870117 57.3333435059 41.3333129883 57.3333435059 41.3333129883 71.6666564941 20.6666870117 86 0 82 0 58.5 -21.6666870117 35 -43.3333129883 35 -43.3333129883 18.8333129883 -68.3333740234 2.66668701172 -93.3333129883 0.666687011719 -31.3333129883 0.333312988281 -235.666687012 0 -440 rrcurveto
            167 686 hlineto
            0 147.333312988 -30.3333129883 109.166687012 -60.6666870117 71 -60.6658325195 71 -93.6666870117 35.5 -126.667480469 0 -75.3333129883 0 -70.1666870117 -16.5 -65 -33 -65 -33 -54.1666564941 -43.5 -43.3333435059 -54 rrcurveto
            -21 157 -140 0 rlineto
            return
          </CharString>
          <CharString index="51">
            0 132 28.6666564941 105.333312988 57.3333435059 78.6666870117 57.3333435059 78.6666870117 83.3333129883 39.3333129883 109.333343506 0 112.666687012 0 83.8333129883 -38.5 55 -77 55 -77 27.5 -105.5 0 -134 0 -132 -27.8333129883 -105 -55.6666870117 -78 -55.6666870117 -78 -82.5 -39 -109.333312988 0 rrcurveto
            -110.666656494 0 -84.1666870117 39.1666564941 -57.6666564941 78.3333435059 -57.6666564941 78.3333435059 -28.8333435059 104.166656494 0 130 rrcurveto
            return
          </CharString>
          <CharString index="52">
            0 169.333312988 -44.6666259766 137.5 -89.3333740234 105.666687012 -89.3333129883 105.666625977 -123 52.8333740234 -156.666687012 0 -159.333312988 0 -125.333343506 -52.6666259766 -91.3333435059 -105.333374023 -91.3333129883 -105.333312988 -45.6666564941 -138 -3.0517578125e-05 -170.666687012 0 -167.333312988 45.5 -137.000030518 91 -106.666656494 91 -106.666656494 122.5 -53.3333435059 154 0 rrcurveto
            160 0 125.333312988 52.8333435059 90.6666870117 105.666656494 90.6666259766 105.666641235 45.3333740234 137.833328247 0 170.000030518 rrcurveto
            return
          </CharString>
          <CharString index="53">
            167 11 0 405 rlineto
            0 68 -2 70 -4 72 37.3333435059 -52 49.6666564941 -41.8333435059 62 -31.6666564941 62 -31.6666717529 66.3333129883 -15.8333282471 70.6666870117 0 93.3333129883 0 81.5 24.5 69.6666870117 49 69.6666870117 49 52.8333129883 67 36 85 36 85 18 97.1666564941 0 109.333343506 rrcurveto
            0 114 -16.5 99.6666870117 -33 85.3333129883 -33 85.3333129883 -51.1666870117 67.6666870117 -69.3333129883 50 -69.3333129883 50 -84.6666870117 25 -100 0 -134.666564941 0 -115.333343506 -57.3333740234 -96.0000915527 -114.666625977 rrcurveto
            -16 149 -147 0 rlineto
            return
          </CharString>
          <CharString index="54">
            -114 0 -81.8333435059 37.6666564941 -49.6666564941 75.3333435059 -49.6666564941 75.3333435059 -24.8333435059 111.999969482 0 148.666687012 0 274 106 137 212 0 101.333312988 0 77 -40.1666870117 52.6666870117 -80.3333129883 52.6666870117 -80.3333129883 26.3333129883 -102.833374023 0 -125.333312988 0 -59.3333435059 -6.33331298828 -55.1666564941 -12.6666870117 -51 rrcurveto
            -12.6664428711 -51 -18.6666870117 -45.5 -24.6668701172 -40 -24.6666870117 -40 -32.3333129883 -31.5 -40 -23 -40 -23 -45.3333129883 -11.5 -50.6666870117 0 rrcurveto
            return
          </CharString>
          <CharString index="55">
            -66 0 -62.3333435059 -19 -58.6666564941 -38 -58.6666564941 -38 -48.3333435059 -50 -38 -62 rrcurveto
            -16 197 -139 0 rlineto
            0 -58 0.33332824707 -365.666687012 0.66667175293 -673.333312988 rrcurveto
            167 616 hlineto
            0 96 29.1666564941 80.5 58.3333435059 65 58.3333435059 65 75.8333435059 32.5 93.3333129883 0 22.6666870117 0 26.6666259766 -2.66668701172 30.6666870117 -5.33331298828 rrcurveto
            6 154 rlineto
            -24.6666870117 4 -27.3333129883 2 -30 0 rrcurveto
            return
          </CharString>
          <CharString index="56">
            121.333190918 0 96.3333129883 27.8333282471 71.3334960938 55.6666717529 71.3317260742 55.6666717529 36.3333129883 78.4999847412 1.3349609375 101.333343506 0 83.3333435059 -23 66.1666564941 -46 49 -46 49 -78.3333129883 42.5 -110.666687012 36 -33.3333129883 10.6666870117 -27.6666870117 9.33331298828 -22 8 -86 29.3333129883 -57.3333435059 26 -28.6666564941 22.6666870117 rrcurveto
            -28.6666564941 22.6666870117 -14.3333435059 32.6666259766 0 42.6666870117 0 50 19.8333435059 38.8333129883 39.6666564941 27.6666870117 39.6666564941 27.6666870117 54.8333435059 13.8333129883 70 0 90 0 96.6666870117 -21.3333129883 103.333312988 -42.6666870117 rrcurveto
            49 128 rlineto
            -102 48 -113 24 -124 0 -120 0 -94.5 -28.3333740234 -69 -56.6666259766 -69 -56.6666870117 -34.5 -71.3333129883 0 -86 0.666656494141 -70.6666870117 20.8333435059 -59 41 -47.3333129883 41 -47.3333129883 68.5 -39.6666870117 96 -32 rrcurveto
            83 -29 rlineto
            101.333312988 -34.6666564941 68 -31.3333435059 34.6666870117 -28 34.6666870117 -28 17.3333129883 -38.3333435059 0 -48.6666564941 -4.666015625 -114.666656494 -83.6666870117 -57.3333435059 -162.667297363 0 -107.333221436 0 -109.333328247 29.6666564941 -111.333450317 59.3333435059 rrcurveto
            -21 -141 rlineto
            39.3333282471 -25.3333435059 51.1666717529 -20.6666564941 63 -16 63 -16 68.8333435059 -8 74.6666564941 0 rrcurveto
            return
          </CharString>
          <CharString index="57">
            42 0 60.6666870117 7 79.3333129883 14 rrcurveto
            -7 132 rlineto
            -73.3333129883 -10.6666564941 -47.6666870117 -5.33334350586 -22 0 -61.3329162598 0 -43.3333435059 17 -25.3337402344 34 -25.3333435059 34 -12.6666564941 58.6666564941 0 83.3333435059 rrcurveto
            629 305 124 -305 255 vlineto
            -110 -4 -57 -251 -155 -14 -7 -110 163 0 0 -659 rlineto
            2.66667175293 -117.333358765 24 -85 45.3333282471 -52.6666412354 45.3333435059 -52.6666717529 76.6666564941 -26.3333282471 108 0 rrcurveto
            return
          </CharString>
          <CharString index="58">
            0 -55.3333435059 8 -50 16 -44.6666564941 16 -44.666595459 21.8333282471 -37.1666717529 27.6666717529 -29.6667327881 27.6666717529 -29.6666564941 33 -24.6666870117 38.3333282471 -19.6666564941 38.3333435059 -19.6666717529 40.5 -14.1666564941 42.6666564941 -8.66667175293 42.6666564941 -8.66667175293 45.3333435059 -4.33334350586 48 1.52587890625e-05 48.6666870117 0 45.5 4.33332824707 42.3333129883 8.66667175293 rrcurveto
            42.3333129883 8.66667175293 40.1666870117 14 38 19.3333282471 38 19.3333435059 32.5 24.5 27 29.6666564941 27 29.6666717529 21.5 37.1666564941 16 44.6666717529 16 44.6666564941 8 50.3333435059 0 56 rrcurveto
            731 -168 -733 vlineto
            0 -91.3332824707 -24.1666870117 -64.6666717529 -48.3333129883 -38.0000457764 -48.3333129883 -38 -67.5 -19 -86.6666870117 0 -42 0 -37.1666564941 4 -32.3333435059 8 -32.3333435059 8 -29 13.1666717529 -25.6666564941 18.3333282471 -25.6666564941 18.3332366943 -19.6666870117 25.8333282471 -13.6666564941 33.3334350586 -13.6666564941 33.3333435059 -6.83334350586 40.6666564941 0 48 rrcurveto
            733 -168 vlineto
            return
          </CharString>
          <CharString index="59">
            181 0 316 1097 -171 0 -232 -895 rlineto
            -28 93.9999084473 -93.3333740234 298.333343506 -158.666625977 502.666748047 rrcurveto
            -189 hlineto
            -159.333312988 -492 -96.0000305176 -299.333343506 -32.6666564941 -106.666656494 rrcurveto
            -235 898 -173 0 313 -1097 180 0 rlineto
            16.6666870117 51.3333282471 24.3333129883 74.3333282471 32 97.3333435059 32 97.3333435059 26 79.3333129883 20 61.3333435059 20 61.332824707 23.3333129883 73.3333129883 26.6666870117 85.3338623047 26.6666870117 85.3325805664 23.6666259766 79.3333129883 20.6666870117 73.3341064453 36.6666870117 -120.666687012 95.3333129883 -306.333343506 154 -491.999969482 rrcurveto
            return
          </CharString>
          <CharString index="60">
            434 -1089 rlineto
            -13.3325500488 -38 -20.3333435059 -54 -27.3341064453 -70 -30.6666564941 -76 -34.8333435059 -51.8333435059 -39 -27.6666564941 -38.9999389648 -27.6666564941 -57.1666717529 -13.8333435059 -75.3333892822 0 -18.6666564941 0 -28.0000152588 1.33334350586 -37.3333282471 2.66665649414 rrcurveto
            10 -142 rlineto
            35.3333282471 -5.33334350586 33.6666717529 -2.66665649414 32 0 106.666656494 0 86 26.8333435059 65.3333435059 53.6666564941 65.3333435059 53.6666564941 55.6666564941 84.5 46 115.333343506 10 25.3333282471 153 420 296 814.666687012 rrcurveto
            -177 0 -308 -913 -346 913 rlineto
            return
          </CharString>
          <CharString index="61">
            132 -578 vlineto
            560 833 0 132 -733 0 0 -132 546 0 -561 -839 0 -126 rlineto
            return
          </CharString>
          <CharString index="62">
            212 -155 -212 vlineto
            return
          </CharString>
          <CharString index="63">
            212 -154 -212 vlineto
            return
          </CharString>
          <CharString index="64">
            0 104 -14.6666259766 96.1666870117 -29.3333740234 88.3333129883 -29.3271484375 88.3333740234 -39.8333740234 75.5 -50.3394775391 62.6666259766 -50.3277587891 62.6666259766 -59.3333740234 53.3333740234 -68.3388671875 44 -68.3333740234 44 -73.1666259766 32.6666259766 -78 21.3333740234 -78 21.3333740234 -81 10.6666259766 -84 0 -79.3333129883 0 -77.1666870117 -10.5 -75 -21 rrcurveto
            -75 -21 -70.8333129883 -32.5 -66.6666870117 -44 -66.6666564941 -44 -58.1666870117 -53.3333740234 -49.6666564941 -62.6666259766 -49.6666717529 -62.6666259766 -39.3333282471 -75.6667480469 -29 -88.6666259766 -29 -88.6666870117 -14.5 -96.3333129883 0 -104 -0.0001220703125 -104.666687012 14.6666717529 -96.8333129883 29.3334503174 -89 29.3332366943 -89 39.8333282471 -75.6666564941 50.3334350586 -62.3333435059 rrcurveto
            50.3333435059 -62.3333282471 58.6666564941 -53.3333435059 67 -44.3333282471 67 -44.3333282471 71.1666870117 -32.6666717529 75.3333129883 -21 75.3325805664 -21 77.3333129883 -10.5 79.3341064453 0 83.9990844727 0 80.8333129883 10.5 77.6676025391 21 77.6643066406 21 72.6666259766 32.5 67.6690673828 44 67.6666259766 44 58.8333740234 53.5 50 63 rrcurveto
            50 63 39.5 75.8333435059 29 88.6666564941 29 88.6666870117 14.5 96.6666259766 0 104.666687012 rrcurveto
            return
          </CharString>
          <CharString index="65">
            -105.333312988 0 -95.6666870117 18.8333282471 -86 37.6666717529 -86 37.6666717529 -70.6666564941 51.3333282471 -55.3333435059 65 -55.3333435059 65 -42.6666564941 75.6666564941 -30 86.3333435059 -30 86.333190918 -15 92.8333129883 0 99.3334960938 0 97.3324584961 14.8333282471 91.3333129883 29.6666717529 85.3342285156 29.6666564941 85.3333740234 42.5 75.1666259766 55.3333435059 65 rrcurveto
            55.3333435059 65 70.1666564941 51.3333740234 85 37.6666259766 85 37.6666259766 94.8333129883 18.8333740234 104.666687012 0 109.999938965 0 99.3333129883 -18.8333740234 88.6667480469 -37.6666259766 88.6641845703 -37.6666259766 72.6666259766 -51.6667480469 56.6691894531 -65.6666259766 56.6666259766 -65.6666259766 43.3333740234 -75.6667480469 30 -85.6666259766 30 -85.6657714844 15 -92.1666870117 0 -98.6675415039 rrcurveto
            0 -98.6666870117 -14.8333740234 -92 -29.6666259766 -85.3333129883 -29.6666259766 -85.3333435059 -42.8333740234 -75.1666564941 -56 -65 -56 -65 -72 -51.1666717529 -88 -37.3333282471 -88 -37.3333282471 -99 -18.6666717529 -110 0 rrcurveto
            return
          </CharString>
          <CharString index="66">
            -710 -122 710 hlineto
            return
          </CharString>
          <CharString index="67">
            -253 0 -186 -388 114 0 rlineto
            return
          </CharString>
          <CharString index="68">
            44 426 -86 0 -112 -426 rlineto
            return
          </CharString>
          <CharString index="69">
            55.3333282471 28.6666259766 43.6666717529 25 32 21.3333740234 rrcurveto
            -663 -118 -96 357 96 -124 792 vlineto
            -97 1 rlineto
            -36.6665649414 -36.6666259766 -49.6666717529 -34.3333740234 -62.6667633057 -32 rrcurveto
            return
          </CharString>
          <CharString index="70">
            131 0 161 272 161 -272 134 0 -187 388 -213 0 rlineto
            return
          </CharString>
          <CharString index="71">
            0 -69.3333740234 24.5 -59.5 49 -49.6666259766 49 -49.6666259766 58.5 -24.8333740234 68 0 69.3333129883 0 59 25.1666259766 48.6666870117 50.3333740234 48.6666870117 50.3333740234 24.3333129883 59.1666259766 0 68 0 68.6666259766 -24.5 59 -49 49.3333740234 -49 49.3333740234 -58.8333129883 24.6666259766 -68.6666870117 0 rrcurveto
            -68 0 -58.5 -24.6666259766 -49 -49.3333740234 -49 -49.3333740234 -24.5 -59 0 -68.6666259766 rrcurveto
            return
          </CharString>
          <CharString index="72">
            0 43.3333740234 14.8333435059 36.6666259766 29.6666564941 30 29.6666564941 30 35.5 15 41.3333435059 0 41.3333129883 0 35.5 -15 29.6666870117 -30 29.6666870117 -30 14.8333129883 -36.6666259766 0 -43.3333740234 0 -42.6666259766 -14.8333129883 -36.6667480469 -29.6666870117 -30.6666259766 -29.6666870117 -30.6666259766 -35.5 -15.3333740234 -41.3333129883 0 rrcurveto
            -41.3333435059 0 -35.5 15.1666259766 -29.6666564941 30.3333740234 -29.6666564941 30.3333740234 -14.8333435059 36.8332519531 0 43.3333740234 rrcurveto
            return
          </CharString>
          <CharString index="73">
            -169 -1098 169 hlineto
            return
          </CharString>
          <CharString index="74">
            26 56.6666259766 38.6666564941 28.3333740234 51.3333435059 0 26 0 32.8333435059 -7.83337402344 39.6666564941 -15.6666259766 39.6666870117 -15.6666259766 40.5 -15.5 41.3333129883 -15.3333740234 41.3333129883 -15.3333740234 36 -7.66662597656 30.6666870117 0 43.3333129883 0 38.5 15.5 33.6666870117 31 33.6666870117 31 28.5 54.1666259766 23.3333129883 77.3333740234 rrcurveto
            -86 36 rlineto
            -28 -65.3333740234 -41.6666870117 -32.6666259766 -55.3333129883 0 -27.3333129883 0 -33.3333740234 8 -39.3333129883 16 -39.3333129883 16 -40.1666870117 16 -41 16 -41 16 -35.5 8 -30 0 -40 0 -35.6666564941 -13.6666259766 -31.3333435059 -27.3333740234 -31.3330688477 -27.3280029297 -27.3333435059 -46.3333740234 -23.3335876465 -65.3386230469 rrcurveto
            return
          </CharString>
          <CharString index="75">
            67.3333129883 0 59 22.8333740234 50.6666870117 45.6666259766 50.6666870117 45.6633300781 25.3333129883 63.1666259766 0 80.6700439453 rrcurveto
            -117 hlineto
            0 -46 -13 -35 -26 -24 -26 -24 -32.3333129883 -12 -38.6666870117 0 -38.6666870117 0 -31.8333129883 12 -25 24 -25 24 -12.5 35 0 46 rrcurveto
            -116 hlineto
            0 -81.3299560547 24.8333435059 -63.3333740234 49.6666564941 -45.3366699219 49.6666870117 -45.3333740234 58.1666259766 -22.6666259766 66.6666870117 0 rrcurveto
            return
          </CharString>
          <CharString index="76">
            187 -388 213 0 187 388 -134 0 -161 -312 -161 312 rlineto
            return
          </CharString>
          <CharString index="77">
            -22 0 -20.1666870117 8.5 -18.3333129883 17 -18.3333129883 17 -9.16668701172 21.1666717529 0 25.3333282471 0 57.3333282471 60 73 120 88.6666717529 rrcurveto
            -114 hlineto
            -127.333312988 -74 -63.6666870117 -82.6666717529 0 -91.3333282471 0 -55.3333435059 18.1666564941 -43.1666564941 36.3333435059 -31 36.3333129883 -31 46.1666870117 -15.5 56 0 54 0 52.3333129883 10.6666564941 50.6666870117 21.3333435059 rrcurveto
            117 vlineto
            -53.3333129883 -22 -45.6666870117 -11 -38 0 rrcurveto
            return
          </CharString>
          <CharString index="78">
            117 0 143 498 -166 0 rlineto
            return
          </CharString>
          <CharString index="79">
            -168 -1219 hlineto
            0 -28 -0.33332824707 -21.6666717529 -0.66667175293 -15.3333282471 -0.66667175293 -15.3333282471 -1.5 -17.3333435059 -2.33332824707 -19.3333282471 -2.33332824707 -19.3333435059 -3.66667175293 -14.5 -5 -9.66665649414 -5 -9.66665649414 -6.83332824707 -10.1666870117 -8.66667175293 -10.6666564941 -8.66665649414 -10.6666564941 -11.1666870117 -7.66668701172 -13.6666564941 -4.66665649414 -13.6666564941 -4.66665649414 -16.3333435059 -3.83334350586 -19 -3 rrcurveto
            -19 -3 -22.5 -1.5 -26 0 rrcurveto
            -52 0 22 -151 52 0 rlineto
            68.6666564941 0 55.6666717529 6 42.6666717529 12 42.6666717529 12 33.8333282471 21.1666564941 25 30.3333435059 25 30.3333435059 17 36.8333129883 9 43.3333435059 9 43.3333435059 4.5 57 0 70.6666564941 rrcurveto
            return
          </CharString>
          <CharString index="80">
            -153 0 -198 -335 99 0 rlineto
            return
          </CharString>
          <CharString index="81">
            -150 0 -202 -335 102 0 rlineto
            return
          </CharString>
          <CharString index="82">
            102 0 -202 335 -150 0 rlineto
            return
          </CharString>
          <CharString index="83">
            102 0 -198 335 -151 0 rlineto
            return
          </CharString>
          <CharString index="84">
            -66.6666564941 0 -58.1666870117 -22.6666259766 -49.6666564941 -45.3333740234 -49.6666564941 -45.3306884766 -24.8333435059 -63.3333740234 0 -81.3359375 rrcurveto
            116 hlineto
            0 46 12.5 35 25 24 25 24 31.8333435059 12 38.6666564941 0 38.6666870117 0 32.3333129883 -12 26 -24 26 -24 13 -35 0 -46 rrcurveto
            117 hlineto
            0 80.6640625 -25.3333129883 63.1666259766 -50.6666870117 45.6693115234 -50.6666870117 45.6666259766 -59 22.8333740234 -67.3333129883 0 rrcurveto
            return
          </CharString>
          <CharString index="85">
            -66.6660766602 0 -58.1666870117 -22.6666259766 -49.6672363281 -45.3333740234 -49.6666564941 -45.3299560547 -24.8333435059 -63.3333740234 0 -81.3366699219 rrcurveto
            116 hlineto
            0 46 12.5 35 25 24 25 24 31.8333129883 12 38.6666870117 0 38.6666870117 0 32.3333129883 -12 26 -24 26 -24 13 -35 0 -46 rrcurveto
            117 hlineto
            0 80.6633300781 -25.3333129883 63.1666259766 -50.6666870117 45.6700439453 -50.6666870117 45.6666259766 -59 22.8333740234 -67.3333129883 0 rrcurveto
            return
          </CharString>
        <CharString name=".notdef">
          -171 102 hmoveto
          820 1092 -820 hlineto
          102 -990 rmoveto
          888 616 -888 vlineto
          endchar
        </CharString>
        <CharString name="A">
          107 892 614 rmoveto
          -106 callsubr
          229 -614 rmoveto
          -105 callsubr
          endchar
        </CharString>
        <CharString name="AE">
          897 85 hmoveto
          173 0 240 427 654 0 31 -427 783 0 0 158 -624 0 -42 566 611 0 0 158 -631 0 -39 527 705 0 0 159 -945 0 rlineto
          -419 -979 rmoveto
          487 820 61 -820 rlineto
          endchar
        </CharString>
        <CharString name="Aacute">
          107 1033 2015 rmoveto
          -40 callsubr
          184 -1013 rmoveto
          -106 callsubr
          229 -614 rmoveto
          -105 callsubr
          endchar
        </CharString>
        <CharString name="Abreve">
          107 649 1627 rmoveto
          -32 callsubr
          243 -1013 rmoveto
          -106 callsubr
          229 -614 rmoveto
          -105 callsubr
          endchar
        </CharString>
        <CharString name="Acircumflex">
          107 358 1627 rmoveto
          -37 callsubr
          347 -1401 rmoveto
          -106 callsubr
          229 -614 rmoveto
          -105 callsubr
          endchar
        </CharString>
        <CharString name="Adieresis">
          107 923 1627 rmoveto
          -45 callsubr
          -236 hmoveto
          -44 callsubr
          514 -1013 rmoveto
          -106 callsubr
          229 -614 rmoveto
          -105 callsubr
          endchar
        </CharString>
        <CharString name="Agrave">
          107 595 1627 rmoveto
          -76 callsubr
          620 -1400 rmoveto
          -106 callsubr
          229 -614 rmoveto
          -105 callsubr
          endchar
        </CharString>
        <CharString name="Amacron">
          107 1006 1749 rmoveto
          -41 callsubr
          -114 -1013 rmoveto
          -106 callsubr
          229 -614 rmoveto
          -105 callsubr
          endchar
        </CharString>
        <CharString name="Aogonek">
          107 1145 -294 rmoveto
          -22 0 -20.1666259766 8.5 -18.3333740234 17 -18.3333740234 17 -9.16662597656 21.1666717529 0 25.3333282471 0 57.3333282471 60 73 120 88.6666717529 rrcurveto
          -114 hlineto
          -127.333312988 -74.0000305176 -63.6666870117 -82.6666564941 0 -91.3333129883 0 -55.3333435059 18.1666870117 -43.1666564941 36.3333129883 -31 36.3333129883 -31 46.1666870117 -15.5 56 0 54 0 52.3333740234 10.6666564941 50.6666259766 21.3333435059 rrcurveto
          117 vlineto
          -53.3333740234 -22 -45.6666259766 -11 -38 0 rrcurveto
          -253 908 rmoveto
          -106 callsubr
          229 -614 rmoveto
          -105 callsubr
          endchar
        </CharString>
        <CharString name="Aring">
          107 500 1741 rmoveto
          0 43.3333740234 14.8333129883 36.6666259766 29.6666870117 30 29.6666870117 30 35.5 15 41.3333129883 0 41.3333129883 0 35.5 -15 29.6666870117 -30 29.6666870117 -30 14.8333129883 -36.6666259766 0 -43.3333740234 0 -42.6666259766 -14.8333129883 -36.6667480469 -29.6666870117 -30.6666259766 -29.6666870117 -30.6666259766 -35.5 -15.3333740234 -41.3333129883 0 rrcurveto
          -41.3333129883 0 -35.5 15.1666259766 -29.6666870117 30.3333740234 -29.6657104492 30.3333740234 -14.8333435059 36.8332519531 -0.000946044921875 43.3333740234 rrcurveto
          -99 hmoveto
          -36 callsubr
          491 -1127 rmoveto
          -106 callsubr
          229 -614 rmoveto
          -105 callsubr
          endchar
        </CharString>
        <CharString name="Atilde">
          107 369 1635 rmoveto
          26 56.6666259766 38.6666564941 28.3333740234 51.3333435059 0 26 0 32.8333129883 -7.83337402344 39.6666870117 -15.6666259766 39.6666870117 -15.6666259766 40.5 -15.5 41.3333129883 -15.3333740234 41.3333129883 -15.3333740234 36 -7.66662597656 30.6666870117 0 43.3333129883 0 38.5 15.5 33.6666870117 31 33.6666870117 31 28.5 54.1666259766 23.3333129883 77.3333740234 rrcurveto
          -86 36 rlineto
          -28 -65.3333740234 -41.6666870117 -32.6666259766 -55.3333129883 0 -27.3333129883 0 -33.3333740234 8 -39.3333129883 16 -39.3333129883 16 -40.1666870117 16 -41 16 -41 16 -35.5 8 -30 0 -40 0 -35.6666564941 -13.6666259766 -31.3333435059 -27.3333740234 -31.3330078125 -27.3265380859 -27.3333435059 -46.3333740234 -23.3336486816 -65.3400878906 rrcurveto
          605 -1076 rmoveto
          -106 callsubr
          229 -614 rmoveto
          -105 callsubr
          endchar
        </CharString>
        <CharString name="B">
          91 347 704 rmoveto
          -104 callsubr
          701 vmoveto
          -103 callsubr
          -490 636 rmoveto
          -102 callsubr
          endchar
        </CharString>
        <CharString name="C">
          95 823 1352 rmoveto
          -101 callsubr
          endchar
        </CharString>
        <CharString name="Cacute">
          95 1059 2015 rmoveto
          -40 callsubr
          89 -275 rmoveto
          -101 callsubr
          endchar
        </CharString>
        <CharString name="Ccaron">
          95 383 2015 rmoveto
          -31 callsubr
          309 -663 rmoveto
          -101 callsubr
          endchar
        </CharString>
        <CharString name="Ccedilla">
          95 676 -434 rmoveto
          -39 callsubr
          301 1786 rmoveto
          -101 callsubr
          endchar
        </CharString>
        <CharString name="Ccircumflex">
          95 383 1627 rmoveto
          -37 callsubr
          253 -663 rmoveto
          -101 callsubr
          endchar
        </CharString>
        <CharString name="Cdotaccent">
          95 760 1825 rmoveto
          -61 callsubr
          63 -275 rmoveto
          -101 callsubr
          endchar
        </CharString>
        <CharString name="D">
          307 1205 736 rmoveto
          -100 callsubr
          185 5 rmoveto
          -99 callsubr
          endchar
        </CharString>
        <CharString name="Dcaron">
          307 488 2015 rmoveto
          -31 callsubr
          586 -1279 rmoveto
          -100 callsubr
          185 5 rmoveto
          -99 callsubr
          endchar
        </CharString>
        <CharString name="Dcroat">
          327 324 697 rmoveto
          242 135 -242 509 216 hlineto
          85.3327026367 0 76.3333129883 -5.83337402344 67.333984375 -11.6666259766 67.3333129883 -11.6666259766 62.6666870117 -20.1667480469 58 -28.6666259766 58 -28.6666259766 48 -37.1667480469 38 -45.6666259766 38 -45.6666259766 29.8333740234 -57.8333740234 21.6666259766 -70 21.6666259766 -70 10.8333740234 -81.3333129883 0 -92.6666870117 0 -190.666687012 -50.8333740234 -144.166656494 -101.666625977 -97.6666564941 rrcurveto
          -101.666687012 -97.6666564941 -143.833312988 -48.8333435059 -186 0 rrcurveto
          -315 hlineto
          -295 542 rmoveto
          118 -697 474 hlineto
          119.333312988 0 107.666687012 15.3333282471 96 30.6666717529 96 30.6666564941 83 45.3333435059 70 60 70 60 54 77.1666564941 38 94.3333435059 38 94.3333435059 19 108.166656494 0 122 0 112.666687012 -14.6666259766 100 -29.3333740234 87.3333129883 -29.3282470703 87.3333740234 -40.3333740234 72.1666259766 -51.3383789062 57 rrcurveto
          -51.3333740234 57 -63.6666259766 46.8333740234 -76 36.6666259766 -76 36.6666259766 -81.6666870117 26 -87.3333129883 15.3333740234 -87.3333129883 15.3333740234 -97.3333740234 7.66662597656 -107.333312988 0 rrcurveto
          -372 -664 -118 hlineto
          endchar
        </CharString>
        <CharString name="E">
          -52 174 hmoveto
          -98 callsubr
          endchar
        </CharString>
        <CharString name="Eacute">
          -52 987 2015 rmoveto
          -40 callsubr
          -488 -1627 rmoveto
          -98 callsubr
          endchar
        </CharString>
        <CharString name="Ecaron">
          -52 312 2015 rmoveto
          -31 callsubr
          -269 -2015 rmoveto
          -98 callsubr
          endchar
        </CharString>
        <CharString name="Ecircumflex">
          -52 312 1627 rmoveto
          -37 callsubr
          -325 -2015 rmoveto
          -98 callsubr
          endchar
        </CharString>
        <CharString name="Edieresis">
          -52 878 1627 rmoveto
          -45 callsubr
          -236 hmoveto
          -44 callsubr
          -159 -1627 rmoveto
          -98 callsubr
          endchar
        </CharString>
        <CharString name="Edotaccent">
          -52 690 1825 rmoveto
          -61 callsubr
          -516 -1627 rmoveto
          -98 callsubr
          endchar
        </CharString>
        <CharString name="Egrave">
          -52 550 1627 rmoveto
          -76 callsubr
          -53 -2014 rmoveto
          -98 callsubr
          endchar
        </CharString>
        <CharString name="Emacron">
          -52 960 1749 rmoveto
          -41 callsubr
          -786 -1627 rmoveto
          -98 callsubr
          endchar
        </CharString>
        <CharString name="Eogonek">
          -52 787 -294 rmoveto
          -22 0 -20.1666870117 8.5 -18.3333129883 17 -18.3333129883 17 -9.16668701172 21.1666717529 0 25.3333282471 0 57.3333282471 60 73 120 88.6666717529 rrcurveto
          -114 hlineto
          -127.333312988 -74.0000305176 -63.6666870117 -82.6666564941 0 -91.3333129883 0 -55.3333435059 18.1666870117 -43.1666564941 36.3333129883 -31 36.3333129883 -31 46.1666870117 -15.5 56 0 54 0 52.3333129883 10.6666564941 50.6666870117 21.3333435059 rrcurveto
          117 vlineto
          -53.3333129883 -22 -45.6666870117 -11 -38 0 rrcurveto
          -613 294 rmoveto
          -98 callsubr
          endchar
        </CharString>
        <CharString name="Eth">
          327 147 hmoveto
          474 hlineto
          119.333312988 0 107.666687012 15.3333282471 96 30.6666717529 96 30.6666564941 83 45.3333435059 70 60 70 60 54 77.1666564941 38 94.3333435059 38 94.3333435059 19 108.166656494 0 122 0 112.666687012 -14.6666259766 100 -29.3333740234 87.3333129883 -29.3282470703 87.3333740234 -40.3333740234 72.1666259766 -51.3383789062 57 rrcurveto
          -51.3333740234 57 -63.6666259766 46.8333740234 -76 36.6666259766 -76 36.6666259766 -81.6666870117 26 -87.3333129883 15.3333740234 -87.3333129883 15.3333740234 -97.3333740234 7.66662597656 -107.333312988 0 rrcurveto
          -372 -664 -118 -135 118 hlineto
          177 -542 rmoveto
          542 242 135 -242 509 216 vlineto
          85.3327026367 0 76.3333129883 -5.83337402344 67.333984375 -11.6666259766 67.3333129883 -11.6666259766 62.6666870117 -20.1667480469 58 -28.6666259766 58 -28.6666259766 48 -37.1667480469 38 -45.6666259766 38 -45.6666259766 29.8333740234 -57.8333740234 21.6666259766 -70 21.6666259766 -70 10.8333740234 -81.3333129883 0 -92.6666870117 0 -190.666687012 -50.8333740234 -144.166656494 -101.666625977 -97.6666564941 rrcurveto
          -101.666687012 -97.6666564941 -143.833312988 -48.8333435059 -186 0 rrcurveto
          endchar
        </CharString>
        <CharString name="Euro">
          15 106 580 rmoveto
          121 hlineto
          8.66667175293 -61.3333129883 13.3333282471 -58.5000305176 18 -55.6666564941 18 -55.6666564941 24.5 -54.1666870117 31 -52.6666564941 31 -52.6666717529 35.6666564941 -45.5 40.3333435059 -38.3333282471 40.3333435059 -38.3333282471 48.8333435059 -30.8333282471 57.3333129883 -23.3333435059 57.3327026367 -23.3333282471 62.3333129883 -11.6666717529 67.333984375 0 120.666687012 0 102 30.3333282471 83.3333129883 60.6666717529 rrcurveto
          1 175 rlineto
          -93.3333129883 -72.6666564941 -96 -36.3333435059 -98.6666870117 0 -57.3333129883 0 -51.6666870117 12 -46 24 -46 24 -38 33 -30 42 -30 42 -24.3333435059 47 -18.6666564941 52 -18.6666564941 52 -13 56.3333129883 -7.33334350586 60.6666870117 rrcurveto
          522 0 10 103 -549 0 rlineto
          0.666656494141 0.333343505859 9.83331298828 19.6666870117 hvcurveto
          0 19.6666870117 0.333343505859 23.5 0.666656494141 27.3333129883 0.666656494141 27.3333129883 1 20.6666870117 1.33334350586 14 rrcurveto
          559 0 17 112 -558 0 rlineto
          21.3333435059 128.666625977 43.3333129883 100.833374023 65.3333435059 73 65.3333129883 73 87.6666870117 36.5 110 0 106 0 89.6666870117 -40 73.3333129883 -80 rrcurveto
          1 180 rlineto
          -74 63.3333740234 -97.3333129883 31.6666259766 -120.666687012 0 -80 0 -72.8333129883 -13.8333740234 -65.6666870117 -27.6666259766 -65.6666564941 -27.6666259766 -55.6666870117 -39.3333740234 -45.6666564941 -51 -45.6666564941 -51 -37.6666870117 -59.6666259766 -29.6666564941 -68.3333740234 -29.6666564941 -68.3333740234 -21.1666717529 -76.1666259766 -12.6666717529 -84 rrcurveto
          -110 0 -19 -112 113 0 rlineto
          -3.33332824707 -62 -1.66667175293 -38 0 -14 0 -10.6666870117 0.66667175293 -16 1.33332824707 -21.3333129883 rrcurveto
          -92 hlineto
          endchar
        </CharString>
        <CharString name="F">
          -154 347 hmoveto
          -97 callsubr
          endchar
        </CharString>
        <CharString name="G">
          266 819 -22 rmoveto
          -96 callsubr
          endchar
        </CharString>
        <CharString name="Gbreve">
          266 720 1627 rmoveto
          -32 callsubr
          99 -1649 rmoveto
          -96 callsubr
          endchar
        </CharString>
        <CharString name="Gcircumflex">
          266 428 1627 rmoveto
          -37 callsubr
          204 -2037 rmoveto
          -96 callsubr
          endchar
        </CharString>
        <CharString name="Gcommaaccent">
          266 592 -642 rmoveto
          -29 callsubr
          133 122 rmoveto
          -96 callsubr
          endchar
        </CharString>
        <CharString name="Gdotaccent">
          266 806 1825 rmoveto
          -61 callsubr
          13 -1649 rmoveto
          -96 callsubr
          endchar
        </CharString>
        <CharString name="H">
          293 1314 hmoveto
          -95 callsubr
          endchar
        </CharString>
        <CharString name="Hbar">
          268 324 1146 rmoveto
          817 -298 -817 hlineto
          817 -152 rmoveto
          -696 177 1146 90 105 -90 245 -177 -245 -817 245 -177 -245 -90 -105 vlineto
          90 -1146 177 696 hlineto
          endchar
        </CharString>
        <CharString name="Hcircumflex">
          293 450 1627 rmoveto
          -37 callsubr
          677 -2015 rmoveto
          -95 callsubr
          endchar
        </CharString>
        <CharString name="I">
          -655 355 hmoveto
          -94 callsubr
          endchar
        </CharString>
        <CharString name="IJ">
          -105 766 181 rmoveto
          0 -35.3333282471 -0.833312988281 -28.1666717529 -1.66668701172 -21 -1.66668701172 -21 -4.33331298828 -22.5 -7 -24 -7 -24 -10.1666870117 -18.5 -13.3333129883 -13 -13.3333129883 -13 -18.8333740234 -10.8333282471 -24.3333129883 -8.66667175293 -24.3333129883 -8.66665649414 -29.8333740234 -4.33334350586 -35.3333129883 0 rrcurveto
          -74 0 21 -142 35 0 rlineto
          50 0 44 3.16667175293 38 6.33332824707 38 6.33332824707 32.8333129883 8.66667175293 27.6666870117 11 27.6666870117 11 23.1666259766 15.6666717529 18.6666870117 20.3333282471 18.6666870117 20.3333435059 15.1666259766 21.1666564941 11.6666870117 22 11.6666870117 22 8.83331298828 28.1666717529 6 34.3333282471 6 34.3333282471 4 33.8333282471 2 33.3333435059 rrcurveto
          2 33.3333282471 1 41 0 48.6666717529 rrcurveto
          1255 -177 vlineto
          -411 -1496 rmoveto
          -94 callsubr
          endchar
        </CharString>
        <CharString name="Iacute">
          -655 651 2015 rmoveto
          -40 callsubr
          29 -1627 rmoveto
          -94 callsubr
          endchar
        </CharString>
        <CharString name="Ibreve">
          -655 267 1627 rmoveto
          67.3333435059 0 59 22.8333740234 50.6666564941 45.6666259766 50.6666564941 45.6633300781 25.3333435059 63.1666259766 0 80.6700439453 rrcurveto
          -117 hlineto
          0 -46 -13 -35 -26 -24 -26 -24 -32.3333435059 -12 -38.6666564941 0 -38.6666717529 0 -31.8333282471 12 -25 24 -25 24 -12.5 35 0 46 rrcurveto
          -116 hlineto
          0 -81.3299560547 24.8333282471 -63.3333740234 49.6666717529 -45.3366699219 49.6666717529 -45.3333740234 58.1666717529 -22.6666259766 66.6666564941 0 rrcurveto
          88 -1627 rmoveto
          -94 callsubr
          endchar
        </CharString>
        <CharString name="Icircumflex">
          -655 -25 1627 rmoveto
          -37 callsubr
          193 -2015 rmoveto
          -94 callsubr
          endchar
        </CharString>
        <CharString name="Idieresis">
          -655 541 1627 rmoveto
          -45 callsubr
          -236 hmoveto
          -44 callsubr
          359 -1627 rmoveto
          -94 callsubr
          endchar
        </CharString>
        <CharString name="Idotaccent">
          -655 352 1805 rmoveto
          -61 callsubr
          3 -1607 rmoveto
          -94 callsubr
          endchar
        </CharString>
        <CharString name="Igrave">
          -655 212 1627 rmoveto
          -76 callsubr
          466 -2014 rmoveto
          -94 callsubr
          endchar
        </CharString>
        <CharString name="Imacron">
          -655 624 1749 rmoveto
          -41 callsubr
          -269 -1627 rmoveto
          -94 callsubr
          endchar
        </CharString>
        <CharString name="Iogonek">
          -655 233 -294 rmoveto
          -22 0 -20.1666717529 8.5 -18.3333282471 17 -18.3333282471 17 -9.16667175293 21.1666717529 0 25.3333282471 0 57.3333282471 60 73 120 88.6666717529 rrcurveto
          -114 hlineto
          -127.333343506 -74.0000305176 -63.6666564941 -82.6666564941 0 -91.3333129883 0 -55.3333435059 18.1666564941 -43.1666564941 36.3333435059 -31 36.3333129883 -31 46.1666564941 -15.5 56.0000305176 0 54 0 52.3333435059 10.6666564941 50.6666564941 21.3333435059 rrcurveto
          117 vlineto
          -53.3333435059 -22 -45.6666564941 -11 -38 0 rrcurveto
          122 294 rmoveto
          -94 callsubr
          endchar
        </CharString>
        <CharString name="Itilde">
          -655 -13 1635 rmoveto
          26 56.6666259766 38.6666717529 28.3333740234 51.3333282471 0 26 0 32.8333282471 -7.83337402344 39.6666717529 -15.6666259766 39.6666717529 -15.6666259766 40.4999847412 -15.5 41.3333435059 -15.3333740234 41.3333435059 -15.3333740234 36 -7.66662597656 30.6666564941 0 43.3333435059 0 38.4999694824 15.5 33.6666870117 31 33.6666870117 31 28.5 54.1666259766 23.3333129883 77.3333740234 rrcurveto
          -86 36 rlineto
          -28 -65.3333740234 -41.6666564941 -32.6666259766 -55.3333435059 0 -27.3329772949 0 -33.3333435059 8 -39.3336791992 16 -39.3333435059 16 -40.1666717529 16 -40.9999847412 16 -41 16 -35.5 8 -30 0 -40 0 -35.6666717529 -13.6666259766 -31.3333282471 -27.3333740234 -31.3333435059 -27.3265380859 -27.3333435059 -46.3333740234 -23.3333129883 -65.3400878906 rrcurveto
          450 -1690 rmoveto
          -94 callsubr
          endchar
        </CharString>
        <CharString name="J">
          -645 226 181 rmoveto
          -93 callsubr
          endchar
        </CharString>
        <CharString name="Jcircumflex">
          -645 -112 1627 rmoveto
          -37 callsubr
          151 -1834 rmoveto
          -93 callsubr
          endchar
        </CharString>
        <CharString name="K">
          47 1260 hmoveto
          -92 callsubr
          endchar
        </CharString>
        <CharString name="Kcommaaccent">
          47 586 -620 rmoveto
          -29 callsubr
          580 122 rmoveto
          -92 callsubr
          endchar
        </CharString>
        <CharString name="L">
          -174 174 hmoveto
          -91 callsubr
          endchar
        </CharString>
        <CharString name="Lacute">
          -174 969 2015 rmoveto
          -40 callsubr
          -470 -1627 rmoveto
          -91 callsubr
          endchar
        </CharString>
        <CharString name="Lcaron">
          -174 1182 993 rmoveto
          105 hlineto
          63.3333740234 180 48 156 32.6666259766 132 rrcurveto
          44 -197 vlineto
          -2.66662597656 -42.6666259766 -4 -49.6667480469 -5.33337402344 -56.6666259766 -5.33337402344 -56.6666259766 -7.5 -69.8333740234 -9.66662597656 -83 -9.66662597656 -83 -5.83337402344 -51.1666870117 -2 -19.3333129883 rrcurveto
          -1008 -993 rmoveto
          -91 callsubr
          endchar
        </CharString>
        <CharString name="Lcommaaccent">
          -174 456 -620 rmoveto
          -29 callsubr
          -376 122 rmoveto
          -91 callsubr
          endchar
        </CharString>
        <CharString name="Ldot">
          -174 670 851 rmoveto
          -61 callsubr
          -496 -653 rmoveto
          -91 callsubr
          endchar
        </CharString>
        <CharString name="Lslash">
          -235 527 vmoveto
          148 79 0 -606 822 0 12 155 -657 0 0 546 350 188 0 156 -350 -192 0 643 -177 0 0 -740 -148 -81 rlineto
          endchar
        </CharString>
        <CharString name="M">
          622 822 91 rmoveto
          -90 callsubr
          endchar
        </CharString>
        <CharString name="N">
          321 1342 hmoveto
          -89 callsubr
          endchar
        </CharString>
        <CharString name="Nacute">
          321 1140 2015 rmoveto
          -40 callsubr
          527 -1627 rmoveto
          -89 callsubr
          endchar
        </CharString>
        <CharString name="Ncaron">
          321 464 2015 rmoveto
          -31 callsubr
          747 -2015 rmoveto
          -89 callsubr
          endchar
        </CharString>
        <CharString name="Ncommaaccent">
          321 628 -620 rmoveto
          -29 callsubr
          620 122 rmoveto
          -89 callsubr
          endchar
        </CharString>
        <CharString name="Ntilde">
          321 477 1635 rmoveto
          25.9999694824 56.6666259766 38.6666564941 28.3333740234 51.3333740234 0 26 0 32.8333129883 -7.83337402344 39.6666870117 -15.6666259766 39.6666870117 -15.6666259766 40.5 -15.5 41.3333129883 -15.3333740234 41.3333129883 -15.3333740234 36 -7.66662597656 30.6666870117 0 43.3333129883 0 38.5 15.5 33.6666870117 31 33.6666259766 31 28.5 54.1666259766 23.3333740234 77.3333740234 rrcurveto
          -86 36 rlineto
          -28 -65.3333740234 -41.6666870117 -32.6666259766 -55.3333129883 0 -27.3333129883 0 -33.3333740234 8 -39.3333129883 16 -39.3333129883 16 -40.1666870117 16 -41 16 -41 16 -35.5 8 -30 0 -40 0 -35.6666564941 -13.6666259766 -31.3333435059 -27.3333740234 -31.3329162598 -27.3265380859 -27.3333435059 -46.3333740234 -23.3337402344 -65.3400878906 rrcurveto
          947 -1690 rmoveto
          -89 callsubr
          endchar
        </CharString>
        <CharString name="O">
          296 739 rmoveto
          -88 callsubr
          1218 hmoveto
          -87 callsubr
          endchar
        </CharString>
        <CharString name="OE">
          785 800 1524 rmoveto
          -132 0 -118.666687012 -32.3333740234 -105.333312988 -64.6666259766 -105.333343506 -64.6666259766 -82.6666717529 -89.5 -59.9999847412 -114.333374023 -60 -114.332885742 -31.6666564941 -129.166687012 -3.33334350586 -144.000427246 0 -158.666687012 26.8333282471 -138.333343506 53.6666717529 -117.999969482 53.6666717529 -118 81.4999847412 -92.6666717529 109.333343506 -67.3333282471 109.333068848 -67.3333282471 132.333312988 -33.6666717529 155.333618164 0 rrcurveto
          56.6666870117 0 62.6666259766 11.5 68.6666870117 23 68.6624755859 23 45.6666259766 23.5 22.6708984375 24 rrcurveto
          -82 735 vlineto
          15 156 -573 0 0 536 496 0 0 153 -496 0 0 496 532 0 17 154 -726 0 0 -82 rlineto
          -38.6666259766 34 -49.6667480469 27 -60.6666259766 20 -60.6666870117 20 -66.3333129883 10 -72 0 rrcurveto
          348 -265 rmoveto
          -1037 vlineto
          -33.3333740234 -20 -48 -20.5 -62.6666259766 -21 -62.6666870117 -21 -60 -10.5 -57.3333129883 0 -76 0.66667175293 -68.3333129883 11.5 -60.6666870117 22.3333282471 -60.6666870117 22.3333282471 -50.6666564941 30.5 -40.6666564941 38.6666717529 -40.6666564941 38.6666564941 -33.6666870117 46.5 -26.6666564941 54.3333435059 -26.6666564941 54.3333435059 -19.1666870117 58.3333129883 -11.6666564941 62.3333435059 rrcurveto
          -11.6666564941 62.3327026367 -5.83334350586 67.8333129883 0 73.333984375 4 178 48.6666564941 144.5 93.3333435059 111 93.3333129883 111 126 55.5 158.666687012 0 129.332397461 0 111 -38 92.6676025391 -76 rrcurveto
          endchar
        </CharString>
        <CharString name="Oacute">
          1195 2015 rmoveto
          -40 callsubr
          -574 -888 rmoveto
          -88 callsubr
          1218 hmoveto
          -87 callsubr
          endchar
        </CharString>
        <CharString name="Obreve">
          811 1627 rmoveto
          67.3333129883 0 59 22.8333740234 50.6666870117 45.6666259766 50.6666259766 45.6633300781 25.3333740234 63.1666259766 0 80.6700439453 rrcurveto
          -117 hlineto
          0 -46 -13 -35 -26 -24 -26 -24 -32.3333129883 -12 -38.6666870117 0 -38.6666870117 0 -31.8333129883 12 -25 24 -25 24 -12.5 35 0 46 rrcurveto
          -116 hlineto
          0 -81.3299560547 24.8333129883 -63.3333740234 49.6666870117 -45.3366699219 49.6666870117 -45.3333740234 58.1666259766 -22.6666259766 66.6666870117 0 rrcurveto
          -515 -888 rmoveto
          -88 callsubr
          1218 hmoveto
          -87 callsubr
          endchar
        </CharString>
        <CharString name="Ocircumflex">
          520 1627 rmoveto
          -37 callsubr
          -411 -1276 rmoveto
          -88 callsubr
          1218 hmoveto
          -87 callsubr
          endchar
        </CharString>
        <CharString name="Odieresis">
          1085 1627 rmoveto
          -45 callsubr
          -236 hmoveto
          -44 callsubr
          -244 -888 rmoveto
          -88 callsubr
          1218 hmoveto
          -87 callsubr
          endchar
        </CharString>
        <CharString name="Ograve">
          757 1627 rmoveto
          -76 callsubr
          -138 -1275 rmoveto
          -88 callsubr
          1218 hmoveto
          -87 callsubr
          endchar
        </CharString>
        <CharString name="Ohungarumlaut">
          997 1962 rmoveto
          -27 callsubr
          486 335 rmoveto
          -26 callsubr
          -685 -888 rmoveto
          -88 callsubr
          1218 hmoveto
          -87 callsubr
          endchar
        </CharString>
        <CharString name="Omacron">
          1168 1749 rmoveto
          -41 callsubr
          -872 -888 rmoveto
          -88 callsubr
          1218 hmoveto
          -87 callsubr
          endchar
        </CharString>
        <CharString name="Oslash">
          502 -232 rmoveto
          96 236 rlineto
          67.3333129883 -17.3333282471 72 -8.66667175293 76.6666870117 0 110.666687012 0 99.6666870117 18.5 88.6666259766 37 88.6666259766 37 73.5 52 58.3333740234 67 58.3333740234 67 44.6666259766 80.1666564941 31 93.3333435059 31 93.3333129883 15.5 103 0 112.666687012 0 160 -29.1666259766 138.5 -58.3333740234 117 rrcurveto
          -58.3308105469 117 -83.8333740234 88.5 -109.33581543 60 rrcurveto
          92 227 -131 46 -89 -220 rlineto
          -71.3333129883 21.3333740234 -77.3333740234 10.6666259766 -83.3333129883 0 -222 0 -172.666656494 -68.3333740234 -123.333343506 -136.666625977 -123.333312988 -136.666625977 -61.6666564941 -186.666687012 -3.0517578125e-05 -236.666687012 0 -164.666442871 30.8333282471 -141.833343506 61.6666717529 -119.000213623 61.6666564941 -119 89.5 -88.1666717529 117.333343506 -57.3333282471 rrcurveto
          -96 -239 rlineto
          612 1518 rmoveto
          -455 -1130 rlineto
          -78.6666564941 48 -59.3333435059 70.1666564941 -40 92.3333435059 -40 92.3333435059 -20 109.833343506 0 127.333312988 0 194.666687012 44.3333435059 150.999938965 88.6666564941 107.333374023 88.6666870117 107.333374023 128.666625977 53.6666259766 168.666687012 0 64 0 58 -8 52 -16 rrcurveto
          125 -59 rmoveto
          143.333374023 -99.3333740234 71.6666259766 -177 0 -254.666625977 0 -190.666564941 -43.1666259766 -149.333343506 -86.3333740234 -108.000091553 -86.3333740234 -108 -128.5 -54 -170.666625977 0 -54 0 -52.3333129883 6.33332824707 -50.6666870117 12.6666717529 rrcurveto
          endchar
        </CharString>
        <CharString name="Otilde">
          531 1635 rmoveto
          26 56.6666259766 38.6666870117 28.3333740234 51.3333129883 0 26 0 32.8333129883 -7.83337402344 39.6666870117 -15.6666259766 39.6666870117 -15.6666259766 40.5 -15.5 41.3333129883 -15.3333740234 41.3333129883 -15.3333740234 36 -7.66662597656 30.6666870117 0 43.3332519531 0 38.5 15.5 33.6667480469 31 33.6666259766 31 28.5 54.1666259766 23.3333740234 77.3333740234 rrcurveto
          -86 36 rlineto
          -28 -65.3333740234 -41.6666870117 -32.6666259766 -55.3333129883 0 -27.3333129883 0 -33.3333740234 8 -39.3333129883 16 -39.3333129883 16 -40.1666870117 16 -41 16 -41 16 -35.5 8 -30 0 -40 0 -35.6666870117 -13.6666259766 -31.3333129883 -27.3333740234 -31.3323974609 -27.3265380859 -27.3333435059 -46.3333740234 -23.3342590332 -65.3400878906 rrcurveto
          -153 -951 rmoveto
          -88 callsubr
          1218 hmoveto
          -87 callsubr
          endchar
        </CharString>
        <CharString name="P">
          -36 323 hmoveto
          -86 callsubr
          438 778 rmoveto
          -85 callsubr
          endchar
        </CharString>
        <CharString name="Q">
          1267 -470 rmoveto
          118 120 rlineto
          -38.6666259766 38 -43.8333740234 53.1666564941 -49 68.3333435059 -49 68.3333435059 -33.8333740234 49.3333129883 -18.6666259766 30.3333435059 -18.6666259766 30.3333282471 -14.6667480469 24.5 -10.6666259766 18.6666717529 130.666625977 53.3332977295 100.333374023 88.5 70 123.666702271 70 123.666442871 35 147.5 0 171.333557129 0 235.333251953 -61.8333740234 186.5 -123.666625977 137.666748047 rrcurveto
          -123.666625977 137.666625977 -171.166748047 68.8333740234 -218.666625977 0 -222 0 -172.666656494 -68.3333740234 -123.333343506 -136.666625977 -123.333312988 -136.666625977 -61.6666564941 -186.666687012 -3.0517578125e-05 -236.666687012 0 -153.333312988 26.5 -133.500030518 53 -113.666656494 53 -113.666656494 79.6666564941 -88.6666717529 106.333343506 -63.6666717529 106.333068848 -63.6666717529 127.833312988 -31.8333282471 149.333618164 0 rrcurveto
          44 0 42.6666870117 3 41.3333129883 6 36.6666870117 -76 55.3333129883 -87.1666717529 74 -98.3333282471 74 -98.3333435059 53 -65.1666564941 32 -32 rrcurveto
          -453 599 rmoveto
          -170.666687012 0 -129 54.1666564941 -87.3333129883 108.333343506 -87.3333435059 108.333343506 -43.6666564941 149.166656494 0 190 0 194.666687012 44.3333435059 150.999938965 88.6666564941 107.333374023 88.6666870117 107.333374023 128.666625977 53.6666259766 168.666687012 0 168.666687012 0 127.833312988 -53.6666259766 87 -107.333374023 87 -107.332397461 43.5 -151 0 -194.667602539 rrcurveto
          0 -190.666564941 -43.1666259766 -149.333343506 -86.3333740234 -108.000091553 -86.3333740234 -108 -128.5 -54 -170.666625977 0 rrcurveto
          endchar
        </CharString>
        <CharString name="R">
          144 324 1341 rmoveto
          -84 callsubr
          948 -841 rmoveto
          -83 callsubr
          endchar
        </CharString>
        <CharString name="Racute">
          144 1091 2015 rmoveto
          -40 callsubr
          -442 -286 rmoveto
          -84 callsubr
          948 -841 rmoveto
          -83 callsubr
          endchar
        </CharString>
        <CharString name="Rcaron">
          144 416 2015 rmoveto
          -31 callsubr
          -223 -674 rmoveto
          -84 callsubr
          948 -841 rmoveto
          -83 callsubr
          endchar
        </CharString>
        <CharString name="Rcommaaccent">
          144 580 -620 rmoveto
          -29 callsubr
          -350 1463 rmoveto
          -84 callsubr
          948 -841 rmoveto
          -83 callsubr
          endchar
        </CharString>
        <CharString name="S">
          32 146 244 rmoveto
          -82 callsubr
          endchar
        </CharString>
        <CharString name="Sacute">
          32 1001 2035 rmoveto
          -40 callsubr
          -530 -1403 rmoveto
          -82 callsubr
          endchar
        </CharString>
        <CharString name="Scaron">
          32 326 2035 rmoveto
          -31 callsubr
          -311 -1791 rmoveto
          -82 callsubr
          endchar
        </CharString>
        <CharString name="Scedilla">
          32 618 -435 rmoveto
          -39 callsubr
          -318 679 rmoveto
          -82 callsubr
          endchar
        </CharString>
        <CharString name="Scommaaccent">
          32 490 -643 rmoveto
          -29 callsubr
          -438 389 rmoveto
          -82 callsubr
          endchar
        </CharString>
        <CharString name="T">
          -96 636 hmoveto
          -81 callsubr
          endchar
        </CharString>
        <CharString name="Tcaron">
          -96 256 2015 rmoveto
          -31 callsubr
          249 -2015 rmoveto
          -81 callsubr
          endchar
        </CharString>
        <CharString name="Tcommaaccent">
          -96 548 -412 rmoveto
          -39 callsubr
          242 412 rmoveto
          -81 callsubr
          endchar
        </CharString>
        <CharString name="Thorn">
          96 324 493 rmoveto
          575 342 vlineto
          135.333312988 0 96.1666870117 -22.6666259766 57 -45.3333740234 57 -45.3333129883 28.5 -72.6666870117 0 -100 0 -192.666687012 -110.666687012 -96.3333435059 -221.333312988 3.0517578125e-05 rrcurveto
          -561 -493 rmoveto
          177 349 hlineto
          395 -7 rlineto
          166.666687012 0 123.333312988 39.8333435059 80 79.6666564941 80 79.6666870117 40 109.833312988 0 140 0 152.666687012 -46.6666259766 109.166687012 -93.3333740234 65.6666259766 -93.3333129883 65.6666259766 -140.333374023 32.8333740234 -187.333312988 0 rrcurveto
          -324 279 -177 hlineto
          endchar
        </CharString>
        <CharString name="U">
          243 1277 1479 rmoveto
          -80 callsubr
          endchar
        </CharString>
        <CharString name="Uacute">
          243 1099 2015 rmoveto
          -40 callsubr
          503 -148 rmoveto
          -80 callsubr
          endchar
        </CharString>
        <CharString name="Ubreve">
          243 715 1627 rmoveto
          -32 callsubr
          562 -148 rmoveto
          -80 callsubr
          endchar
        </CharString>
        <CharString name="Ucircumflex">
          243 423 1627 rmoveto
          -37 callsubr
          667 -536 rmoveto
          -80 callsubr
          endchar
        </CharString>
        <CharString name="Udieresis">
          243 989 1627 rmoveto
          -45 callsubr
          -236 hmoveto
          -44 callsubr
          833 -148 rmoveto
          -80 callsubr
          endchar
        </CharString>
        <CharString name="Ugrave">
          243 660 1627 rmoveto
          -76 callsubr
          940 -535 rmoveto
          -80 callsubr
          endchar
        </CharString>
        <CharString name="Uhungarumlaut">
          243 900 1962 rmoveto
          -27 callsubr
          486 335 rmoveto
          -26 callsubr
          393 -148 rmoveto
          -80 callsubr
          endchar
        </CharString>
        <CharString name="Umacron">
          243 1072 1749 rmoveto
          -41 callsubr
          205 -148 rmoveto
          -80 callsubr
          endchar
        </CharString>
        <CharString name="Uogonek">
          243 681 -316 rmoveto
          -30 callsubr
          596 1795 rmoveto
          -80 callsubr
          endchar
        </CharString>
        <CharString name="Uring">
          243 566 1880 rmoveto
          0 43.3333740234 14.8333129883 36.6666259766 29.6666870117 30 29.6666870117 30 35.5 15 41.3333129883 0 41.3333129883 0 35.5 -15 29.6666870117 -30 29.6666870117 -30 14.8333129883 -36.6666259766 0 -43.3333740234 0 -42.6666259766 -14.8333129883 -36.6667480469 -29.6666870117 -30.6666259766 -29.6666870117 -30.6666259766 -35.5 -15.3333740234 -41.3333129883 0 rrcurveto
          -41.3333129883 0 -35.5 15.1666259766 -29.6666870117 30.3333740234 -29.6666870117 30.3333740234 -14.8333129883 36.8332519531 0 43.3333740234 rrcurveto
          -99 hmoveto
          0 -69.3333740234 24.5 -59.5 49 -49.6666259766 49 -49.6666259766 58.5 -24.8333740234 68 0 69.3333129883 0 59 25.1666259766 48.6666870117 50.3333740234 48.6666870117 50.3333740234 24.3333129883 59.1666259766 0 68 0 68.6666259766 -24.5 59 -49 49.3333740234 -49 49.3332519531 -58.8333129883 24.6667480469 -68.6666870117 0 rrcurveto
          -68 0 -58.5 -24.6667480469 -49 -49.3332519531 -49 -49.3333740234 -24.5 -59 0 -68.6666259766 rrcurveto
          810 -401 rmoveto
          -80 callsubr
          endchar
        </CharString>
        <CharString name="Utilde">
          243 435 1635 rmoveto
          26 56.6666259766 38.6666564941 28.3333740234 51.3333435059 0 26 0 32.8333129883 -7.83337402344 39.6666870117 -15.6666259766 39.6666870117 -15.6666259766 40.5 -15.5 41.3333129883 -15.3333740234 41.3333129883 -15.3333740234 36 -7.66662597656 30.6666870117 0 43.3333129883 0 38.5 15.5 33.6666870117 31 33.6666259766 31 28.5 54.1666259766 23.3333740234 77.3333740234 rrcurveto
          -86 36 rlineto
          -28 -65.3333740234 -41.6666870117 -32.6666259766 -55.3333129883 0 -27.3333129883 0 -33.3333740234 8 -39.3333129883 16 -39.3333129883 16 -40.1666870117 16 -41 16 -41 16 -35.5 8 -30 0 -40 0 -35.6666564941 -13.6666259766 -31.3333435059 -27.3333740234 -31.3325805664 -27.3265380859 -27.3333435059 -46.3333740234 -23.3340759277 -65.3400878906 rrcurveto
          924 -211 rmoveto
          -80 callsubr
          endchar
        </CharString>
        <CharString name="V">
          47 1062 1479 rmoveto
          -116 -325.333129883 -110 -311.666687012 -104 -298.000183105 -64.6666870117 -182 -37.3333129883 -116 -10 -50 -31.3333129883 108 -37 115 -42.6666870117 122 rrcurveto
          -329 938 -185 0 535 -1479 180 0 537 1479 rlineto
          endchar
        </CharString>
        <CharString name="W">
          818 446 hmoveto
          -79 callsubr
          endchar
        </CharString>
        <CharString name="Wacute">
          818 1389 2015 rmoveto
          -40 callsubr
          -618 -1627 rmoveto
          -79 callsubr
          endchar
        </CharString>
        <CharString name="Wcircumflex">
          818 713 1627 rmoveto
          -37 callsubr
          -454 -2015 rmoveto
          -79 callsubr
          endchar
        </CharString>
        <CharString name="Wdieresis">
          818 1279 1627 rmoveto
          -45 callsubr
          -236 hmoveto
          -44 callsubr
          -288 -1627 rmoveto
          -79 callsubr
          endchar
        </CharString>
        <CharString name="Wgrave">
          818 950 1627 rmoveto
          -76 callsubr
          -181 -2014 rmoveto
          -79 callsubr
          endchar
        </CharString>
        <CharString name="X">
          45 1231 hmoveto
          -498 775 476 704 -185 0 -398 -592 -383 592 -201 0 473 -707 -506 -772 188 0 423 661 412 -661 rlineto
          endchar
        </CharString>
        <CharString name="Y">
          -1 591 754 rmoveto
          -78 callsubr
          endchar
        </CharString>
        <CharString name="Yacute">
          -1 979 2015 rmoveto
          -40 callsubr
          -63 -873 rmoveto
          -78 callsubr
          endchar
        </CharString>
        <CharString name="Ycircumflex">
          -1 304 1627 rmoveto
          -37 callsubr
          100 -1261 rmoveto
          -78 callsubr
          endchar
        </CharString>
        <CharString name="Ydieresis">
          -1 869 1627 rmoveto
          -45 callsubr
          -236 hmoveto
          -44 callsubr
          267 -873 rmoveto
          -78 callsubr
          endchar
        </CharString>
        <CharString name="Ygrave">
          -1 541 1627 rmoveto
          -76 callsubr
          373 -1260 rmoveto
          -78 callsubr
          endchar
        </CharString>
        <CharString name="Z">
          -11 86 hmoveto
          -77 callsubr
          endchar
        </CharString>
        <CharString name="Zacute">
          -11 984 2015 rmoveto
          -40 callsubr
          -573 -1627 rmoveto
          -77 callsubr
          endchar
        </CharString>
        <CharString name="Zcaron">
          -11 308 2015 rmoveto
          -31 callsubr
          -353 -2015 rmoveto
          -77 callsubr
          endchar
        </CharString>
        <CharString name="Zdotaccent">
          -11 686 1825 rmoveto
          -61 callsubr
          -600 -1627 rmoveto
          -77 callsubr
          endchar
        </CharString>
        <CharString name="a">
          -97 460 112 rmoveto
          -75 callsubr
          363 -112 rmoveto
          -74 callsubr
          endchar
        </CharString>
        <CharString name="aacute">
          -97 905 1630 rmoveto
          -40 callsubr
          -120 -1130 rmoveto
          -75 callsubr
          363 -112 rmoveto
          -74 callsubr
          endchar
        </CharString>
        <CharString name="abreve">
          -97 521 1242 rmoveto
          67.3333129883 0 59 22.8333740234 50.6666870117 45.6666259766 50.6666870117 45.6640625 25.3333129883 63.1666259766 0 80.6693115234 rrcurveto
          -117 hlineto
          0 -46 -13 -35 -26 -24 -26 -24 -32.3333129883 -12 -38.6666870117 0 -38.6666564941 0 -31.8333435059 12 -25 24 -25 24 -12.5 35 0 46 rrcurveto
          -116 hlineto
          0 -81.3306884766 24.8333435059 -63.3333740234 49.6666564941 -45.3359375 49.6664733887 -45.3333740234 58.1666564941 -22.6666259766 66.6668701172 0 rrcurveto
          -61 -1130 rmoveto
          -75 callsubr
          363 -112 rmoveto
          -74 callsubr
          endchar
        </CharString>
        <CharString name="acircumflex">
          -97 230 1242 rmoveto
          -37 callsubr
          43 -1518 rmoveto
          -75 callsubr
          363 -112 rmoveto
          -74 callsubr
          endchar
        </CharString>
        <CharString name="acute">
          -556 567 1638 rmoveto
          -40 callsubr
          endchar
        </CharString>
        <CharString name="adieresis">
          -97 796 1242 rmoveto
          -45 callsubr
          -236 hmoveto
          -44 callsubr
          209 -1130 rmoveto
          -75 callsubr
          363 -112 rmoveto
          -74 callsubr
          endchar
        </CharString>
        <CharString name="ae">
          479 888 615 rmoveto
          6 110.666687012 27.8333129883 89.1666259766 49.6666870117 67.6666870117 49.6666870117 67.6666870117 72.4999389648 33.8333129883 95.3333740234 0 73.3333740234 0 53.8332519531 -26.5 34.3333740234 -53 34.3333740234 -53 17.8332519531 -83.5 1.33337402344 -114 rrcurveto
          -10 vlineto
          -988 -531 rmoveto
          -112 -3.0517578125e-05 -56 59.3333282471 0 118.666702271 -0.000473022460938 42 10.8333282471 33.8333435059 21.6671447754 25.6666564941 21.666595459 25.6666564941 40.1666564941 21.5 58.6667480469 17.3333435059 58.6664428711 17.3333435059 82 12.6666564941 105.333557129 8 13.3327026367 1.33334350586 21.3333129883 1.33331298828 29.333984375 1.33334350586 6 -112.666656494 25.3333129883 -97 44.6666870117 -81.3333435059 rrcurveto
          -8 -2.66667175293 -22.8333129883 -7.83332824707 -37.6666870117 -13 -37.6666870117 -13 -27.3333129883 -9.16667175293 -17 -5.33332824707 -17 -5.33332824707 -23.8333129883 -6.83334350586 -30.6666870117 -8.33332824707 -30.6666870117 -8.33332824707 -27.1666564941 -6.00001525879 -23.6666564941 -3.66665649414 -23.6666564941 -3.66665649414 -22.5 -1.83334350586 -21.3333435059 0 rrcurveto
          -12 -139 rmoveto
          74 0 78 13.1666717529 82 26.3333282471 82 26.3333282471 72.6666870117 32.8333282471 63.3333129883 39.3333435059 83.3323974609 -91.3333435059 109 -45.6666564941 134.667602539 0 154.665405273 0 128.666625977 44.3333435059 102.66796875 88.6666564941 rrcurveto
          -52 121 rlineto
          -42 -29.3333282471 -49.6666259766 -25.6666717529 -57.3333740234 -22 -57.3333740234 -22 -58 -11 -58.6666259766 0 -101.333374023 0 -75.1666870117 33.8333282471 -48.9999389648 67.6666717529 -49 67.6665039062 -28.8333129883 96.1666564941 -8.66668701172 124.6668396 rrcurveto
          497 25 rlineto
          76 4 50.1666259766 13 24.3333740234 22 24.3333740234 22 12.1666259766 37 0 52 0 58.6666870117 -6.83337402344 54.8333129883 -13.6666259766 51 -13.6666259766 51 -21.1667480469 46.5 -28.6666259766 42 -28.6666259766 42 -39 33.1666259766 -49.3333740234 24.3333740234 -49.3333740234 24.3333740234 -57.6666259766 12.1666259766 -66 0 rrcurveto
          -75.3333740234 0 -69.1666259766 -16.1666259766 -63 -32.3333740234 -63 -32.3333740234 -49.1666870117 -47.8333129883 -35.3333129883 -63.3333129883 -14.6666870117 62.6666870117 -35.8333129883 47.6666870117 -57 32.6666259766 -57 32.6666259766 -69.8333129883 16.3333740234 -82.6666870117 0 -70.6666564941 0 -71.5 -9.16662597656 -72.3333435059 -18.3333740234 -72.3333435059 -18.3333740234 -57.8333282471 -21.5 -43.3333282471 -24.6666259766 rrcurveto
          36 -138 rlineto
          44 23.3333129883 54 19.5 64 15.6666870117 64 15.6666870117 64.6666564941 7.83331298828 65.3333435059 0 69.3333129883 0 49 -15.5 28.6666870117 -31 28.6666870117 -31 14.3333129883 -49.5 0 -68 rrcurveto
          0 -165 -63 -3 rlineto
          -50 -2.66668701172 -42.5 -2.83331298828 -35 -3 -35 -3 -39 -4.83331298828 -43 -6.66668701172 -43 -6.66668701172 -36 -8 -29 -9.33331298828 -29 -9.33331298828 -29.3333282471 -12.5 -29.6666717529 -15.6666870117 -29.6665039062 -15.6657104492 -23.6666717529 -18 -17.6668243408 -20.3342895508 -17.6666564941 -20.3333435059 -14.3333435059 -25 -11 -29.6666564941 rrcurveto
          -11 -29.6666564941 -5.5 -33.1666870117 0 -36.6666564941 -1.52587890625e-05 -112.666656494 30.1666717529 -82.5000152588 60.3333435059 -52.3333282471 60.3333282471 -52.3333282471 77.8333282471 -26.1666717529 95.3333435059 0 rrcurveto
          endchar
        </CharString>
        <CharString name="agrave">
          -97 468 1242 rmoveto
          -76 callsubr
          315 -1517 rmoveto
          -75 callsubr
          363 -112 rmoveto
          -74 callsubr
          endchar
        </CharString>
        <CharString name="amacron">
          -97 878 1364 rmoveto
          -41 callsubr
          -418 -1130 rmoveto
          -75 callsubr
          363 -112 rmoveto
          -74 callsubr
          endchar
        </CharString>
        <CharString name="ampersand">
          282 441 839 rmoveto
          -109.333343506 -55.3333129883 -83.5 -62.3333740234 -57.6666564941 -69.3333129883 -57.6666412354 -69.3333129883 -28.8333282471 -85.6666870117 -3.0517578125e-05 -102 -3.0517578125e-05 -131.333312988 43.8333435059 -102.500030518 87.6666870117 -73.6666564941 87.6666564941 -73.6666564941 128.166656494 -36.8333435059 168.666687012 0 182.666687012 0 160 55.3333435059 137.333312988 110.666656494 rrcurveto
          136 -154 rlineto
          55.3333740234 16 52.3332519531 17.3333282471 49.3333740234 18.6666717529 rrcurveto
          -181 216 rlineto
          64.6666259766 76 53 83.3333435059 41.3333740234 90.6666564941 rrcurveto
          -121 92 rlineto
          -41.3310546875 -93.3333435059 -47.3333740234 -74.6666564941 -53.3355712891 -56 rrcurveto
          -401 429 rlineto
          50.6666870117 23.3333129883 44.5 24 38.3333129883 24.6666870117 38.3331298828 24.6666870117 35.3333129883 27.6666259766 32.3335571289 30.6666870117 32.3333129883 30.6666870117 24.6666870117 34.1666259766 17 37.6666870117 17 37.6645507812 8.5 40.1666259766 0 42.6688232422 0 66 -18.5 56.8333740234 -37 47.6666259766 -37 47.6612548828 -47.3333129883 34.6666259766 -57.6666870117 21.6721191406 rrcurveto
          -57.6666870117 21.6666259766 -63.8333129883 10.8333740234 -70 0 -118.666442871 0 -94.5 -29.1666259766 -70.3335571289 -58.3333740234 -70.3333435059 -58.3308105469 -35.1666564941 -78.8333740234 0 -99.3358154297 0 -59.3312988281 13.3333435059 -52.3333740234 26.6666564941 -45.3353271484 26.6666564941 -45.3333129883 44.3333435059 -56.3333740234 62 -67.3333129883 rrcurveto
          103 -113 rmoveto
          49.3333129883 -52.6665039062 73.5 -77.6666870117 97.6666870117 -102.666809082 97.6666870117 -102.666656494 73.5 -78 49.3333129883 -53.3333435059 -106.666259766 -84.6666564941 -118.666687012 -42.3333435059 -130.667053223 0 -109.333312988 0 -85.3333435059 24.1666717529 -61.3333435059 48.3333282471 -61.3333435059 48.3333282471 -30.6666564941 67.1666717529 0 86 0 69.3333435059 22.8333435059 59.9999694824 45.6666564941 50.6666870117 rrcurveto
          45.6666564941 50.6666870117 64.8333435059 46.6666259766 84 42.6666870117 rrcurveto
          116 619 rmoveto
          56 0 47 -15.1666259766 38 -30.3333740234 38 -30.3309326172 19 -42.8333740234 0 -55.3356933594 0 -30.6666259766 -6.16668701172 -28 -12.3333129883 -25.3333740234 -12.3333129883 -25.3333740234 -19.5 -23.5 -26.6666870117 -21.6666259766 -26.6666870117 -21.662902832 -25.8333129883 -18.1666870117 -25 -14.6704101562 -25 -14.6666870117 -32.8333129883 -17.3333129883 -40.6666870117 -20 rrcurveto
          -51.3333129883 49.3333129883 -37.8333740234 43.5 -24.3333129883 37.6666870117 -24.3333435059 37.6666259766 -12.1666564941 41.5 0 45.3333740234 0 56.6643066406 18.6666564941 44.1666259766 37.3333435059 31.6690673828 37.3333129883 31.6666259766 49.6666870117 15.8333740234 62 0 rrcurveto
          endchar
        </CharString>
        <CharString name="aogonek">
          -97 853 -303 rmoveto
          -22 0 -20.1666870117 8.5 -18.3333129883 17 -18.3333129883 17 -9.16668701172 21.1666717529 0 25.3333282471 0 57.3333587646 60 73 120 88.6666412354 rrcurveto
          -114 hlineto
          -127.333312988 -74.0000305176 -63.6666870117 -82.6666564941 0 -91.3333129883 0 -55.3333435059 18.1666870117 -43.1666564941 36.3333129883 -31 36.3333129883 -31 46.1666870117 -15.5 56 0 54 0 52.3333129883 10.6666564941 50.6666870117 21.3333435059 rrcurveto
          117 vlineto
          -53.3333129883 -22 -45.6666870117 -11 -38 0 rrcurveto
          -393 415 rmoveto
          -75 callsubr
          363 -112 rmoveto
          -74 callsubr
          endchar
        </CharString>
        <CharString name="approxequal">
          119 239 280 rmoveto
          35.3333435059 119.333343506 62.6666564941 59.6666564941 90 0 47.3333435059 0 62.6666564941 -24.6666564941 78 -49.3333435059 114 -68.6666564941 93.3333129883 -34.3333435059 72.6666870117 0 81.9981079102 0 63.3333129883 24 44.6685791016 48 44.6666259766 48 31 68 17.3333740234 88 rrcurveto
          -98 31 rlineto
          -20.6666259766 -58.6661987305 -24.8333740234 -44.3333435059 -29 -30.0004577637 -29 -30 -35.8333129883 -15 -42.6666870117 0 -8.65991210938 0 -8.66668701172 0.833343505859 -8.67340087891 1.66665649414 -8.66009521484 1.66030883789 -9.66668701172 2.66665649414 -10.6732177734 3.67303466797 -10.6666870117 3.66665649414 -9.33331298828 3.33334350586 -8 3 -8 3 -10.5 5 -13 7 rrcurveto
          -13 7 -10 5.33334350586 -7 3.66665649414 -7 3.66665649414 -11.3333129883 6.33334350586 -15.6666870117 9 -15.6666870117 9 -10.8333129883 6.16665649414 -6 3.33334350586 -50 28 -45.3333129883 21.8333129883 -40.6666870117 15.6666870117 -40.6666564941 15.6666870117 -41 7.83331298828 -41.3333435059 0 -78 0 -63.6666564941 -24.1666870117 -49.3333435059 -48.3333129883 rrcurveto
          -49.3333282471 -48.3333435059 -33 -68.1666564941 -16.6666717529 -88 rrcurveto
          101 372 rmoveto
          31.3333435059 117.333312988 61.6666564941 58.6666870117 92 0 49.3333435059 0 62.9999694824 -24.3333129883 76.6666870117 -48.6666870117 58 -36 50.5 -26.1666870117 43 -16.3333129883 43 -16.3333129883 42.5 -8.16668701172 42 0 154 0 94.6666259766 91.6666870117 35.3333740234 183.333312988 rrcurveto
          -99 29 rlineto
          -20 -59.3333129883 -24.5 -44.5 -29 -29.6666870117 -29 -29.6666870117 -35.8333129883 -14.8333129883 -42.6666870117 0 -27.3333129883 0 -29.1666870117 6.5 -31 13 -31 13 -39.8333129883 21.1666870117 -48.6666870117 29.3333129883 -53.3333129883 32 -46.8333740234 23.8333129883 -40.3333129883 15.6666870117 -40.3333435059 15.6666870117 -40.5 7.83331298828 -40.6666564941 0 rrcurveto
          -78 0 -64 -24.3333129883 -50 -48.6666870117 -50 -48.6662597656 -33 -67.6666870117 -16 -86.6670532227 rrcurveto
          endchar
        </CharString>
        <CharString name="aring">
          -97 373 1495 rmoveto
          -35 callsubr
          -99 hmoveto
          -36 callsubr
          186 -1383 rmoveto
          -75 callsubr
          363 -112 rmoveto
          -74 callsubr
          endchar
        </CharString>
        <CharString name="asciicircum">
          -38 69 589 rmoveto
          145 0 351 746 378 -746 143 0 -470 927 -102 0 rlineto
          endchar
        </CharString>
        <CharString name="asciitilde">
          60 387 663 rmoveto
          22.6666564941 0 25.5 -4 28.3333435059 -8 28.3333435059 -8 24.4999694824 -8.33331298828 20.6666870117 -8.66668701172 20.6666870117 -8.66668701172 32 -14.3333129883 43.3333129883 -20 97.3332519531 -44 78.3333129883 -22 59.3334350586 0 62.6666870117 0 54 17.8333129883 45.3333129883 35.6666870117 45.3333740234 35.6666870117 35.6666259766 49.5 26 63.3333129883 rrcurveto
          -56 96 rlineto
          -24.6666259766 -45.3333129883 -31 -37.3333740234 -37.3333740234 -29.3333129883 -37.3333129883 -29.3333129883 -38.3333740234 -14.6666870117 -39.3333129883 0 -7.33331298828 0 -8 0.666687011719 -8.66668701172 1.33331298828 -8.66668701172 1.33331298828 -8 1.5 -7.33331298828 1.66668701172 -7.33331298828 1.66668701172 -9.33337402344 2.66662597656 -11.3333129883 3.66668701172 -11.3333129883 3.66668701172 -9.16668701172 3.16662597656 -7 2.66668701172 rrcurveto
          -7 2.66668701172 -10.5 4.16662597656 -14 5.66668701172 -14 5.66668701172 -10.1666870117 4.33331298828 -6.33331298828 3 -6.33331298828 3 -11.6666870117 5.16668701172 -17 7.33331298828 -17 7.33331298828 -11.5 5 -6 2.66668701172 -54 24 -45 17.1666870117 -36 10.3333129883 -36 10.3333129883 -37.3333435059 5.16668701172 -38.6666564941 0 rrcurveto
          -64 0 -54.8333435059 -18.1666870117 -45.6666564941 -36.3333129883 -45.6666717529 -36.3333129883 -35.5 -47.8333740234 -25.3333282471 -59.3333129883 rrcurveto
          52 -105 rlineto
          24.6666717529 46.6666870117 31.3333282471 38.3333129883 38 30 38 30 40.3333435059 15 42.6666564941 0 rrcurveto
          endchar
        </CharString>
        <CharString name="asterisk">
          -90 643 1522 rmoveto
          -186 0 37 -411 -357 151 -50 -171 363 -83 -248 -333 156 -94 189 362 200 -362 rlineto
          17.3333129883 10.6666870117 25.6666870117 15.6666259766 34 20.6666870117 34 20.6666870117 25.6666870117 15.6666259766 17.3333129883 10.6666870117 -32 42.6666870117 -48.1666870117 63.6666259766 -64.3333129883 84.6666870117 -64.3333129883 84.6666870117 -35.8333740234 47.3333129883 -7.33331298828 10 rrcurveto
          367 83 -50 171 -359 -151 rlineto
          endchar
        </CharString>
        <CharString name="at">
          619 1703 784 rmoveto
          0 141.333312988 -33 124.666687012 -66 108 -66 108 -89.6666259766 82.6666259766 -113.333374023 57.3333740234 -113.333374023 57.3333740234 -128 28.6666259766 -142.666625977 0 -121.333312988 0 -113 -21.6666259766 -104.666687012 -43.3333740234 -104.666656494 -43.3333740234 -88.8333435059 -59.1666259766 -73 -75 -73 -75 -57.3333282471 -89.8333740234 -41.6666717529 -104.666625977 rrcurveto
          -41.6666107178 -104.666259766 -20.8333282471 -111.666687012 -6.103515625e-05 -118.667053223 0 -238.666687012 70.6666564941 -189 141.333343506 -139.333312988 141.3331604 -139.333328247 187.333343506 -69.6666717529 233.333496094 0 194.666137695 0 160.666625977 42.6666564941 126.667236328 85.3333435059 rrcurveto
          -35 111 rlineto
          -131.333374023 -75.3333435059 -148.666625977 -37.6666564941 -166 0 -194.666687012 0 -155.5 58 -116.333312988 116 -116.333343506 116 -58.1666717529 160 1.52587890625e-05 204 0 136.666687012 29.5 123 59 109.333312988 59 109.333374023 82.6666564941 85.6666259766 106.333343506 62 106.333312988 62 120.166687012 31 134 0 rrcurveto
          186 0 151.5 -52 117 -104 117 -104 58.5 -140.333312988 0 -176.666687012 0 -112.666687012 -27.5 -96.5 -55 -80.3333129883 -55 -80.3333435059 -61.1666259766 -40.1666564941 -67.3333740234 0 -74 0 -37 47.3333435059 0 94.6666564941 0 28 2.33337402344 36 4.66662597656 44 rrcurveto
          4.66662597656 44 4.83337402344 40 5 36 5 36 7.33337402344 49.5 9.66662597656 63 9.64758300781 63 7.16662597656 48.1666870117 4.68579101562 33.3333129883 -107.332275391 36.6666259766 -101.333374023 18.3333740234 -95.3343505859 0 -130 0 -102.166687012 -46 -74.3333129883 -92 -74.3333129883 -92 -37.1666870117 -115 0 -138 rrcurveto
          0 -107.333099365 25.6666870117 -84.8333435059 51.3333129883 -62.3335571289 51.3333129883 -62.3333435059 69 -31.1666564941 86.6666870117 0 58 0 51.6666870117 16.3333435059 45.3333129883 32.6666564941 45.3333129883 32.6663208008 37.6666870117 37.6666564941 30 42.6670227051 7.33337402344 -54 21.6666259766 -42 36 -30 36 -30 45 -15 54 0 rrcurveto
          51.3333740234 0 50.3332519531 12.3333435059 49.3333740234 24.6666564941 49.3333740234 24.6666564941 44.1666259766 34.3333435059 39 44 39 44 31.3333740234 55.6666564941 23.6666259766 67.3333435059 23.6666259766 67.3333129883 11.8333740234 72.6666870117 0 78 rrcurveto
          -1023 -175 rmoveto
          0 69.3326416016 9.66668701172 61.8333129883 19.3333129883 54.3340454102 19.3305053711 54.3333129883 30.8333129883 44.1666870117 42.3361816406 34 42.3325195312 34 51.8333129883 17 61.3341674805 0 59.3333129883 0 48.6666870117 -6.66668701172 38 -13.3333129883 -11.3333740234 -104.666687012 -8.66662597656 -76 -6 -47.3333129883 -13.3333740234 -106 -25 -82.1666870117 -36.6666259766 -58.3333129883 rrcurveto
          -36.6657714844 -58.3333435059 -53.6666870117 -29.1666564941 -70.6675415039 0 -53.3333129883 0 -40.1666870117 19 -27 38 -27 38 -13.5 52 0 66 rrcurveto
          endchar
        </CharString>
        <CharString name="atilde">
          -97 242 1250 rmoveto
          26 56.6666259766 38.6666564941 28.3333740234 51.3333435059 0 26 0 32.8333435059 -7.83337402344 39.6666564941 -15.6666259766 39.6666259766 -15.6666259766 40.5 -15.5 41.3333740234 -15.3333740234 41.3333129883 -15.3333740234 36 -7.66662597656 30.6666870117 0 43.3333129883 0 38.5 15.5 33.6666870117 31 33.6666870117 31 28.5 54.1666259766 23.3333129883 77.3333740234 rrcurveto
          -86 36 rlineto
          -28 -65.3333740234 -41.6666870117 -32.6666259766 -55.3333129883 0 -27.3333129883 0 -33.3333740234 8 -39.3333129883 16 -39.3333129883 16 -40.1666870117 16 -41 16 -41 16 -35.5 8 -30 0 -40 0 -35.6666564941 -13.6666259766 -31.3333435059 -27.3333740234 -31.3333282471 -27.3280029297 -27.3333435059 -46.3333740234 -23.3333282471 -65.3386230469 rrcurveto
          300 -1193 rmoveto
          -75 callsubr
          363 -112 rmoveto
          -74 callsubr
          endchar
        </CharString>
        <CharString name="b">
          20 642 981 rmoveto
          -73 callsubr
          17 139 rmoveto
          -72 callsubr
          endchar
        </CharString>
        <CharString name="backslash">
          -352 208 1464 rmoveto
          -156 0 599 -1524 156 0 rlineto
          endchar
        </CharString>
        <CharString name="bar">
          -396 327 1579 rmoveto
          -1979 145 1979 vlineto
          endchar
        </CharString>
        <CharString name="braceleft">
          -462 454 84 rmoveto
          265 vlineto
          0 64.6666564941 -15 57.3333435059 -30 50 -30 50 -46.6666564941 35 -63.3333435059 20 64 38.6666870117 46.8333435059 41.5 29.6666564941 44.3333129883 29.6666564941 44.3333129883 14.8333435059 52.5 0 60.6666870117 rrcurveto
          265 vlineto
          0 84.6666259766 13 59 26 33.3333740234 26 33.3333740234 49.3333129883 17 72.6666870117 0.666625976562 rrcurveto
          138 vlineto
          -115.333312988 0 -87.5000305176 -25.6666259766 -59.6666564941 -51.3333740234 -59.6666564941 -51.3306884766 -29.8333435059 -77.3333740234 0 -103.3359375 rrcurveto
          -243 vlineto
          0 -22.6666870117 -0.166656494141 -17.8333129883 -0.333343505859 -13 -0.333343505859 -13 -0.5 -15.6666870117 -0.666656494141 -18.3333129883 -0.666656494141 -18.3333129883 -1.33334350586 -14.3333740234 -2 -10.3333129883 -2 -10.3333129883 -2.83334350586 -12.1666870117 -3.66665649414 -14 -3.66665649414 -14 -4.5 -10.6666870117 -5.33334350586 -7.33331298828 -5.33332824707 -7.33331298828 -6.5 -8.33337402344 -7.66667175293 -9.33331298828 rrcurveto
          -7.66667175293 -9.33331298828 -9 -7 -10.3333282471 -4.66668701172 -10.3333282471 -4.66668701172 -12 -4.83331298828 -13.6666717529 -5 -13.6666717529 -5 -15.3333282471 -3.5 -17 -2 -17 -2 -19.1666564941 -1 -21.3333435059 0 rrcurveto
          -145 vlineto
          45.3333129883 0 37.1666717529 -6.5 29.0000152588 -13 29 -13 21.8333282471 -20.3333435059 14.6666717529 -27.6666564941 14.6666564941 -27.6666564941 9.83334350586 -29.5 5 -31.3333435059 5 -31.3330078125 2.5 -39.3333435059 0 -47.3336486816 rrcurveto
          -207 vlineto
          0 -117.333343506 27.5 -86.3333282471 55 -55.3333282471 55 -55.3333282471 89.8333129883 -28.0000152588 124.666687012 -0.666656494141 rrcurveto
          138 vlineto
          -72.6666870117 0.66667175293 -49.3333129883 16.6666564941 -26 32.6666717529 -26 32.6666717529 -13 58.9999847412 0 85.3333435059 rrcurveto
          endchar
        </CharString>
        <CharString name="braceright">
          -457 466 632 rmoveto
          -70.6666564941 -47.3333129883 -48.3333435059 -43.1666870117 -26 -39 -26 -39 -13 -51.1666564941 0 -63.3333435059 rrcurveto
          -265 vlineto
          0 -85.3333282471 -13.1666564941 -59 -26.3333435059 -32.6666717529 -26.3333282471 -32.666809082 -49.1666717529 -16.6666564941 -72 -0.666534423828 rrcurveto
          -138 vlineto
          234.666687012 1.33334350586 117.333312988 102.666656494 0 204 rrcurveto
          242 vlineto
          0 37.3333435059 1.5 32 3 26.6666564941 3 26.6662902832 5.83334350586 26.1666564941 8.66665649414 25.6670532227 8.66482543945 25.6666564941 12.1666564941 20.5 15.6685180664 15.3333435059 15.6666870117 15.3323364258 20.8333129883 12.3333129883 26 9.33435058594 26 9.33331298828 31.3333129883 4.66668701172 36.6666870117 0 rrcurveto
          145 vlineto
          -38 0.666687011719 -32.1666870117 5 -26.3333129883 9.33331298828 -26.3333129883 9.33331298828 -20.8333740234 12.1666870117 -15.3333129883 15 -15.3330993652 15 -11.8333435059 20.3333129883 -8.33355712891 25.6666870117 -8.33334350586 25.6666870117 -5.5 25.6666259766 -2.66665649414 25.6666870117 -2.66665649414 25.6666870117 -1.33334350586 32.1666259766 0 38.6666870117 rrcurveto
          208 vlineto
          0 117.333374023 -28 86.6666259766 -56 56 -56 56 -89.3333435059 28 -122.666656494 0 rrcurveto
          -138 vlineto
          72 -0.666625976562 49.1666717529 -17.1667480469 26.3333282471 -33.6666259766 26.3333435059 -33.6666259766 13.1666564941 -58.8333740234 0 -84 rrcurveto
          -265 vlineto
          0 -64.6651000977 14.8333435059 -57.1666870117 29.6666564941 -49.6682128906 29.6666564941 -49.6666870117 46.5 -34.8333129883 63.3333435059 -20 rrcurveto
          endchar
        </CharString>
        <CharString name="bracketleft">
          -519 596 -293 rmoveto
          132 -280 1512 280 132 -453 -1776 vlineto
          endchar
        </CharString>
        <CharString name="bracketright">
          -519 80 -161 rmoveto
          -132 453 1776 -453 -132 280 -1512 vlineto
          endchar
        </CharString>
        <CharString name="breve">
          -441 377 1299 rmoveto
          67.3333435059 0 59 22.8333740234 50.6666564941 45.6666259766 50.6666870117 45.6639404297 25.3333129883 63.1666259766 0 80.6694335938 rrcurveto
          -117 hlineto
          0 -46 -13 -35 -26 -24 -26 -24 -32.3333435059 -12 -38.6666564941 0 -38.6666564941 0 -31.8333435059 12 -25 24 -25 24 -12.5 35 0 46 rrcurveto
          -116 hlineto
          0 -81.3305664062 24.8333282471 -63.3333740234 49.6666717529 -45.3360595703 49.6666717529 -45.3333740234 58.1666717529 -22.6666259766 66.6666564941 0 rrcurveto
          endchar
        </CharString>
        <CharString name="brokenbar">
          -407 322 310 rmoveto
          -709 146 709 vlineto
          -146 1269 rmoveto
          -707 146 707 vlineto
          endchar
        </CharString>
        <CharString name="bullet">
          -328 731 753 rmoveto
          0 90.6666870117 -29 78.1666259766 -58 65.6666870117 -58 65.6666259766 -69.3333129883 32.8333740234 -80.6666870117 0 -79.3333435059 0 -69.6666564941 -33.6666259766 -60 -67.3333740234 -60 -67.3333129883 -30 -79.3333740234 0 -91.3333129883 0 -90.6666870117 28.6666717529 -78 57.3333282471 -65.3333129883 57.3333435059 -65.3333435059 69.6666564941 -32.6666564941 82 0 rrcurveto
          80.6666870117 0 70 33.3333435059 59.3333129883 66.6666564941 59.3333129883 66.6666870117 29.6666870117 79.3333129883 0 92 rrcurveto
          endchar
        </CharString>
        <CharString name="c">
          -227 607 -23 rmoveto
          -71 callsubr
          endchar
        </CharString>
        <CharString name="cacute">
          -227 879 1630 rmoveto
          -40 callsubr
          53 -1265 rmoveto
          -71 callsubr
          endchar
        </CharString>
        <CharString name="caron">
          -395 108 1639 rmoveto
          -31 callsubr
          endchar
        </CharString>
        <CharString name="ccaron">
          -227 203 1630 rmoveto
          -31 callsubr
          273 -1653 rmoveto
          -71 callsubr
          endchar
        </CharString>
        <CharString name="ccedilla">
          -227 496 -435 rmoveto
          -39 callsubr
          265 412 rmoveto
          -71 callsubr
          endchar
        </CharString>
        <CharString name="ccircumflex">
          -227 203 1242 rmoveto
          -37 callsubr
          217 -1653 rmoveto
          -71 callsubr
          endchar
        </CharString>
        <CharString name="cdotaccent">
          -227 580 1440 rmoveto
          -61 callsubr
          27 -1265 rmoveto
          -71 callsubr
          endchar
        </CharString>
        <CharString name="cedilla">
          -599 268 -410 rmoveto
          -39 callsubr
          endchar
        </CharString>
        <CharString name="cent">
          -93 547 1496 rmoveto
          -182 vlineto
          -72 -6 -66.3333435059 -19.8333740234 -60.6666564941 -33.6666259766 -60.6666564941 -33.6666259766 -50.3333435059 -42.8333740234 -40 -52 -40 -52 -31 -59 -22 -66 -22 -66 -11.3333435059 -69 -0.666656494141 -72 0 -98 18 -90.3333129883 36 -82.6666870117 36 -82.6666564941 54.6666564941 -68.6666870117 73.3333435059 -54.6666564941 rrcurveto
          73.3333435059 -54.6665649414 86.3333129883 -31.6666717529 99.3333435059 -8.66676330566 rrcurveto
          -169 95 169 vlineto
          107.333312988 8 85 32.6666717529 62.6666870117 57.3333282471 rrcurveto
          -42 120 rlineto
          -66.6666870117 -46.6666564941 -71 -27 -75.3333129883 -7.33334350586 rrcurveto
          869 vlineto
          78 -6.66662597656 70.6666870117 -24.6667480469 63.3333129883 -42.6666259766 rrcurveto
          42 119 rlineto
          -58 54.6666259766 -84.6666870117 31 -111.333312988 7.33337402344 rrcurveto
          182 vlineto
          -95 -1186 rmoveto
          -92.6666564941 14.6666564941 -74.1666870117 46.3333435059 -55.6666564941 78 -55.6666564941 78 -27.8333435059 96 0 114 0 115.333129883 28.6666564941 98.3333129883 57.3333435059 81.3335571289 57.3333435059 81.3333740234 73.3333129883 47.3332519531 89.3333435059 13.3333740234 rrcurveto
          endchar
        </CharString>
        <CharString name="circumflex">
          -395 108 1251 rmoveto
          -37 callsubr
          endchar
        </CharString>
        <CharString name="colon">
          -701 146 893 rmoveto
          206 231 -206 hlineto
          -1149 vmoveto
          206 233 -206 hlineto
          endchar
        </CharString>
        <CharString name="comma">
          -690 109 -278 rmoveto
          105 hlineto
          63.3333435059 180 48 156 32.6666564941 132 rrcurveto
          44 -197 vlineto
          -2.66667175293 -42.6666259766 -4 -49.6666717529 -5.33332824707 -56.6667022705 -5.33332824707 -56.6666870117 -7.5 -69.8333282471 -9.66667175293 -82.9999847412 -9.66665649414 -83.0000457764 -5.83334350586 -51.1666717529 -2 -19.3332824707 rrcurveto
          endchar
        </CharString>
        <CharString name="copyright">
          646 1701 781 rmoveto
          -43 callsubr
          -799 -714 rmoveto
          -42 callsubr
          289 392 rmoveto
          -28.6666259766 -20 -39.5 -17 -50.3333740234 -14 -50.3333129883 -14 -47.8333740234 -7 -45.3333129883 0 -118 0 -89.3333129883 37.1666564941 -60.6666870117 74.3333435059 -60.6666870117 74.3327636719 -30.3333129883 96.8333129883 0 119.33392334 0 53.3325195312 6.83331298828 49.8333129883 13.6666870117 46.3341674805 13.6666870117 46.3314208984 20.3333129883 41.5 27 36.6685791016 rrcurveto
          27 36.6666259766 35.6666870117 29 44.3333129883 21.3333740234 44.3333129883 21.3333740234 50.5 10.6666259766 56.6666870117 0 48 0 47.3333129883 -6 46.6666870117 -12 46.6666259766 -12 38.3333740234 -16.6666259766 30 -21.3333740234 rrcurveto
          60 97 rlineto
          -86 60 -102.666625977 30 -119.333374023 0 -144.666687012 0 -117 -48.5 -89.3333129883 -97 -89.3333435059 -97 -44.6666564941 -123.5 0 -150 0 -148.666687012 44.8333435059 -123 89.6666564941 -97.3333129883 89.6666870117 -97.3333435059 113.5 -48.6666564941 137.333312988 0 59.9990844727 0 59.3333129883 7.83334350586 58.6676025391 15.6666564941 rrcurveto
          58.6622314453 15.6666564941 47.6666259766 19.5 36.6711425781 23.3333435059 rrcurveto
          endchar
        </CharString>
        <CharString name="currency">
          -44 267 732 rmoveto
          0 85.3333129883 30.1666564941 73 60.3333435059 60.6666870117 60.3333435059 60.6666870117 72.8333129883 30.3333129883 85.3333435059 0 85.3333129883 0 73 -30.3333129883 60.6666870117 -60.6666870117 60.6666870117 -60.6666870117 30.3333129883 -73 0 -85.3333129883 0 -85.3333129883 -30.1666870117 -72.8333740234 -60.3333129883 -60.3333129883 -60.3333129883 -60.3333435059 -73.1666870117 -30.1666564941 -86 0 rrcurveto
          -85.3330993652 0 -72.8333435059 30.1666564941 -60.3335571289 60.3333435059 -60.3333435059 60.3327636719 -30.1666564941 72.8333129883 0 85.3339233398 rrcurveto
          -109 hmoveto
          0 -91.3333129883 27.6666717529 -83.3333740234 55.3333282471 -75.3333129883 rrcurveto
          -185 -177 73 -72 184 175 rlineto
          74.6664733887 -62 87.6666564941 -31 100.666870117 0 98 0 87.3333129883 31 76.6666870117 62 rrcurveto
          187 -176 69 74 -182 176 rlineto
          54.6666870117 73.3327636719 27.3333129883 83.3333129883 0 93.3339233398 0 88 -27.6666870117 83 -55.3333129883 78 rrcurveto
          184 177 -70 74 -187 -176 rlineto
          -76 62.6666259766 -87.3333129883 31.3333740234 -98.6666870117 0 -100 0 -87.6666564941 -31 -75.3333435059 -62 rrcurveto
          -184 175 -74 -72 186 -179 rlineto
          -55.3333282471 -76 -27.6666717529 -83 0 -90 rrcurveto
          endchar
        </CharString>
        <CharString name="d">
          16 571 121 rmoveto
          -70 callsubr
          329 38 rmoveto
          -69 callsubr
          endchar
        </CharString>
        <CharString name="dagger">
          -319 369 121 rmoveto
          130 926 307 102 -307 412 -130 -412 -298 -102 298 hlineto
          endchar
        </CharString>
        <CharString name="daggerdbl">
          -245 413 110 rmoveto
          130 357 300 137 -300 455 307 140 -307 351 -130 -351 -301 -140 301 hlineto
          -455 -306 -137 306 vlineto
          endchar
        </CharString>
        <CharString name="dcaron">
          16 1247 1021 rmoveto
          105 hlineto
          63.3333740234 180 48 156 32.6666259766 132 rrcurveto
          44 -197 vlineto
          -2.66662597656 -42.6666259766 -4 -49.6667480469 -5.33337402344 -56.6666259766 -5.33337402344 -56.6666259766 -7.5 -69.8333740234 -9.66662597656 -83 -9.66662597656 -83 -5.83337402344 -51.1666259766 -2 -19.3333740234 rrcurveto
          -676 -900 rmoveto
          -70 callsubr
          329 38 rmoveto
          -69 callsubr
          endchar
        </CharString>
        <CharString name="dcroat">
          -27 541 -24 rmoveto
          73.3333129883 0 66.5 18 59.6666870117 36 59.6666870117 36 46.1666259766 47.3333282471 32.6666870117 58.6666717529 rrcurveto
          21 -172 149 0 0 1199 117 0 0 142 -117 0 0 169 -168 -20 0 -149 -223 0 0 -142 223 0 0 -262 rlineto
          -28 57.3333129883 -46.1666870117 45.6666870117 -64.3333129883 34 -64.3333129883 34 -69.1666870117 17 -74 0 -90.6666564941 0 -81 -25.3333740234 -71.3333435059 -50.6666259766 -71.3333435059 -50.6657104492 -54.8333282471 -68.1666870117 -38.3333282471 -85.6676025391 -38.3333282471 -85.6666870117 -19.1666717529 -94.5 0 -103.333312988 0 -174.666687012 42.1666564941 -141.166671753 84.3333435059 -107.666641235 rrcurveto
          84.3333435059 -107.666656494 114.833343506 -53.8333435059 145.333312988 0 rrcurveto
          11 148 rmoveto
          -54.6666564941 0 -47.8333435059 12 -41 24 -41 24 -32.1666564941 32.8333282471 -23.3333435059 41.6666717529 -23.3327941895 41.666595459 -17.3333435059 45.6666564941 -11.3338623047 49.6667480469 -11.3333282471 49.6666564941 -5.66667175293 53.5 0 57.3333435059 0 52 5.66667175293 50 11.3333282471 48 11.3333435059 48 17.3333129883 44.8333129883 23.3333435059 41.6666870117 rrcurveto
          23.3333435059 41.6666870117 32.1666564941 33.1666259766 41 24.6666870117 41 24.6666870117 47.1666564941 12.3333129883 53.3333435059 0 56.6666870117 0 50 -11 43.3333129883 -22 43.3333129883 -22 34.6666870117 -30.6666870117 26 -39.3333129883 26 -39.3333129883 19.5 -45 13 -50.6666870117 13 -50.6666870117 6.5 -55.3333129883 0 -60 rrcurveto
          0 -124.666656494 -28.1666870117 -102.333343506 -56.3333129883 -80 -56.3333129883 -80 -81.8333740234 -40 -107.333312988 0 rrcurveto
          endchar
        </CharString>
        <CharString name="degree">
          -349 235 1205 rmoveto
          0 54 18.6666717529 45.8333740234 37.3333282471 37.6666259766 37.3333435059 37.6666259766 44.3333129883 18.8333740234 51.3333435059 0 52 0 44.5 -18.8333740234 37 -37.6666259766 37 -37.6666259766 18.5 -45.8333740234 0 -54 0 -54 -18.5 -46 -37 -38 -37 -38 -44.5 -19 -52 0 rrcurveto
          -52 0 -44.5 19 -37 38 -37 38 -18.5 46 0 54 rrcurveto
          -123 hmoveto
          0 -86.6666259766 30.5 -74.3333740234 61 -62 61 -62 73.1666564941 -31 85.3333435059 0 86.6666564941 0 73.6666564941 31.3333129883 60.6666870117 62.6666870117 60.6666870117 62.6666259766 30.3333129883 74 0 85.3333740234 0 86.6666259766 -30.6666870117 74 -61.3333129883 61.3333740234 -61.3333129883 61.3333740234 -73.3333435059 30.6666259766 -85.3333435059 0 rrcurveto
          -85.3333435059 0 -73.1666564941 -30.6666259766 -61 -61.3333740234 -61 -61.3333740234 -30.5 -74 0 -86.6666259766 rrcurveto
          endchar
        </CharString>
        <CharString name="dieresis">
          -425 663 1254 rmoveto
          -45 callsubr
          -236 hmoveto
          -44 callsubr
          endchar
        </CharString>
        <CharString name="divide">
          16 1098 523 rmoveto
          149 -1001 -149 vlineto
          619 643 rmoveto
          -225 -227 225 hlineto
          -34 -690 rmoveto
          -191 -227 191 hlineto
          endchar
        </CharString>
        <CharString name="dollar">
          46 580 1693 rmoveto
          -170 vlineto
          -152 -8 -118.666656494 -38.1666259766 -85.3333435059 -68.3333740234 -85.3333129883 -68.3330078125 -42.6666564941 -99.8333740234 -3.0517578125e-05 -131.333618164 0 -183.333312988 112.333328247 -120 224.666671753 -56.6666870117 rrcurveto
          147 -37 0 -580 rlineto
          -154.666595459 8.66667175293 -144.666656494 37.3333282471 -134.666748047 66 rrcurveto
          -52 -144 rlineto
          49.9999694824 -30.6666564941 66.8333282471 -27.1666870117 83.6667022705 -23.6666564941 83.6664733887 -23.6666717529 95.1666564941 -13.5 106.666870117 -3.33332824707 rrcurveto
          -173 95 173 vlineto
          146 7.33332824707 114.833312988 41.6666717529 83.6666870117 76 83.6666259766 75.9999542236 41.8333740234 109.666671753 0 143.333374023 0 116 -31 89.5 -62 63 -62 63 -91 45.8333129883 -120 28.6666870117 rrcurveto
          -104 25 0 508 rlineto
          69.3325805664 -3.3125 67.8333129883 -10.8333740234 66.3341064453 -18.3541259766 66.3333129883 -18.3333740234 53.5 -20.5 40.6666870117 -22.6666259766 rrcurveto
          50 141 rlineto
          -106 66 -138 35.6666259766 -170 5.33337402344 rrcurveto
          168 vlineto
          -95 -807 rmoveto
          -82 20 rlineto
          -74 18 -55.5 26.1666870117 -37 34.3333129883 -37 34.3332519531 -18.5 45.5 0 56.6667480469 0 154 101.333312988 83 202.666687012 12 rrcurveto
          95 -682 rmoveto
          52 -13 rlineto
          90.6666870117 -22.6654663086 62.5 -31.1666870117 34.3333129883 -39.6678466797 34.3333129883 -39.6661987305 17.1666870117 -51.8333435059 0 -64.0004577637 0 -186.666671753 -97 -98.3333282471 -194 -10 rrcurveto
          endchar
        </CharString>
        <CharString name="dotaccent">
          -762 84 300 rmoveto
          -61 callsubr
          endchar
        </CharString>
        <CharString name="dotlessi">
          -765 304 1098 rmoveto
          -34 callsubr
          endchar
        </CharString>
        <CharString name="e">
          -87 574 982 rmoveto
          -68 callsubr
          33 -1005 rmoveto
          -67 callsubr
          endchar
        </CharString>
        <CharString name="eacute">
          -87 938 1630 rmoveto
          -40 callsubr
          -39 -260 rmoveto
          -68 callsubr
          33 -1005 rmoveto
          -67 callsubr
          endchar
        </CharString>
        <CharString name="ecaron">
          -87 262 1630 rmoveto
          -31 callsubr
          181 -648 rmoveto
          -68 callsubr
          33 -1005 rmoveto
          -67 callsubr
          endchar
        </CharString>
        <CharString name="ecircumflex">
          -87 262 1242 rmoveto
          -37 callsubr
          125 -648 rmoveto
          -68 callsubr
          33 -1005 rmoveto
          -67 callsubr
          endchar
        </CharString>
        <CharString name="edieresis">
          -87 829 1242 rmoveto
          -45 callsubr
          -236 hmoveto
          -44 callsubr
          290 -260 rmoveto
          -68 callsubr
          33 -1005 rmoveto
          -67 callsubr
          endchar
        </CharString>
        <CharString name="edotaccent">
          -87 640 1440 rmoveto
          -61 callsubr
          -66 -260 rmoveto
          -68 callsubr
          33 -1005 rmoveto
          -67 callsubr
          endchar
        </CharString>
        <CharString name="egrave">
          -87 500 1242 rmoveto
          -76 callsubr
          397 -647 rmoveto
          -68 callsubr
          33 -1005 rmoveto
          -67 callsubr
          endchar
        </CharString>
        <CharString name="eight">
          -13 594 -23 rmoveto
          139.332946777 0 115.833312988 36 92.3337402344 72 92.3333740234 72 46.1666259766 100 0 128 0 95.3333435059 -25.6666259766 82.9999694824 -51.3333740234 70.6666870117 -51.3333129883 70.6666870117 -70.6666870117 51.3333129883 -90 32 81.3324584961 32 63.3333129883 46 45.3342285156 60 45.3333740234 60 22.6666259766 74 0 88 rrcurveto
          0 118 -42 92.3333740234 -84 66.6666259766 -84 66.6666259766 -109.666687012 33.3333740234 -135.333312988 0 -136 0 -110.666656494 -33.3333740234 -85.3333435059 -66.6666259766 -85.3332977295 -66.6666259766 -42.6666717529 -92.3333740234 -3.0517578125e-05 -118 0 -174 93.3333282471 -120 186.666671753 -66 -98 -32 -76.3333282471 -51.3333129883 -54.6666717529 -70.6666870117 rrcurveto
          -54.6666412354 -70.6666870117 -27.3333282471 -83 -3.0517578125e-05 -95.3333129883 -3.0517578125e-05 -86 22.6666717529 -74.3333282471 45.3333587646 -62.6666717529 45.3333282471 -62.6666870117 59.1666717529 -46.5 73 -30.3333129883 73 -30.3333282471 81.8333435059 -15.1666717529 90.6666564941 0 rrcurveto
          726 vmoveto
          94.6666870117 -21.3333129883 75.3333129883 -36.5 56 -51.6666870117 56 -51.6661987305 28 -65.5 0 -79.3338012695 0 -82 -28.8333129883 -65.1666717529 -57.6666870117 -48.3333282471 -57.6666870117 -48.3333282471 -74.5 -24.1666717529 -91.3333129883 0 -91.3330993652 0 -75.3333435059 24.1666717529 -59.3335571289 48.3333282471 -59.3333435059 48.3333282471 -29.6666564941 65.1666717529 0 82 rrcurveto
          0 78.6666564941 28.6666564941 65.1666564941 57.3333435059 51.6666870117 57.3333435059 51.6666870117 76.3333129883 36.8333129883 95.3333435059 22 rrcurveto
          670 vmoveto
          78 0 66 -19.6666259766 54 -39.3333740234 54 -39.3333740234 27 -54 0 -68.6666259766 0 -157.333312988 -93 -99.6666870117 -186 -42 -188.666503906 42 -94.3333435059 99.6666870117 -0.000152587890625 157.333312988 0 68.6666259766 27.5 54 55 39.3333740234 55 39.3333740234 66.8333129883 19.6666259766 78.6666870117 0 rrcurveto
          endchar
        </CharString>
        <CharString name="ellipsis">
          287 261 -12 rmoveto
          -107 callsubr
          494 hmoveto
          42 0 32.6666870117 13 23.3333129883 26 23.3333129883 26 11.6666870117 31 0 36 0 36 -11.6666870117 31 -23.3333129883 26 -23.3333129883 26 -32.6666870117 13 -42 0 -42 0 -32.6666870117 -13 -23.3333129883 -26 -23.3333129883 -26 -11.6666870117 -31 0 -36 rrcurveto
          0 -35.3333282471 11.8333129883 -30.8333282471 23.6666870117 -26.3333435059 23.6666870117 -26.3333282471 32.5 -13.1666717529 41.3333129883 0 rrcurveto
          494 hmoveto
          42 0 32.6666259766 13 23.3333740234 26 23.3333740234 26 11.6666259766 31 0 36 0 36 -11.6666259766 31 -23.3333740234 26 -23.3333740234 26 -32.6666259766 13 -42 0 -42 0 -32.6666259766 -13 -23.3333740234 -26 -23.3333740234 -26 -11.6666259766 -31 0 -36 rrcurveto
          0 -35.3333282471 11.8333740234 -30.8333282471 23.6666259766 -26.3333435059 23.6666259766 -26.3333282471 32.5 -13.1666717529 41.3333740234 0 rrcurveto
          endchar
        </CharString>
        <CharString name="emacron">
          -87 911 1364 rmoveto
          -41 callsubr
          -337 -260 rmoveto
          -68 callsubr
          33 -1005 rmoveto
          -67 callsubr
          endchar
        </CharString>
        <CharString name="emdash">
          1232 2296 675 rmoveto
          -2157 -148 2157 hlineto
          endchar
        </CharString>
        <CharString name="endash">
          122 1186 675 rmoveto
          -1047 -148 1047 hlineto
          endchar
        </CharString>
        <CharString name="eogonek">
          -87 667 -317 rmoveto
          -30 callsubr
          -93 1299 rmoveto
          -68 callsubr
          33 -1005 rmoveto
          -67 callsubr
          endchar
        </CharString>
        <CharString name="equal">
          33 132 377 rmoveto
          965 142 -965 hlineto
          -1 280 rmoveto
          966 144 -966 hlineto
          endchar
        </CharString>
        <CharString name="eth">
          9 603 833 rmoveto
          53.33203125 0 48.8333129883 -10.3333129883 44.3346557617 -20.6666870117 44.3333129883 -20.6666870117 36.1666870117 -27.3333129883 28 -34 28 -34 21.5 -38.3333129883 15 -42.6666870117 15 -42.6666870117 7.5 -44.3333129883 0 -46 0 -104 -29.8333129883 -85.6666564941 -59.6666870117 -67.3333435059 -59.6659545898 -67.3333587646 -82.1666870117 -33.6666717529 -104.667358398 3.0517578125e-05 rrcurveto
          -72.6666870117 0 -62.6666564941 18 -52.6666564941 36 -52.6666564941 36 -38.5 45.3333282471 -24.3333435059 54.6666717529 -24.3333435059 54.6666564941 -12.1666564941 60.3333435059 0 66 0 98.6666870117 30 82.6666259766 60 66.6666870117 60 66.6666870117 81.3333435059 33.3333129883 102.666656494 0 rrcurveto
          -34 139 rmoveto
          -144.666595459 0 -116.5 -44.5 -88.333404541 -89 -88.3333129883 -89 -44.1666564941 -117.5 -3.0517578125e-05 -146 0 -69.3333435059 11.5 -65.3333435059 23 -61.3333129883 23 -61.3333282471 32.8333282471 -54.1666717529 42.6666717529 -47 42.6666564941 -47 54.3333435059 -37.1666717529 66 -27.3333282471 66 -27.3333282471 73.3333129883 -13.6666717529 80.6666870117 0 rrcurveto
          83.3333129883 0 74.5 13.1666717529 65.6666870117 26.3333282471 65.6666870117 26.3333435059 53.8333129883 36.4999847412 42 46.6666717529 42 46.6666717529 32 54.5 22 62.3333282471 22 62.3333435059 11 68.1666564941 0 74 0 133.333312988 -34 130.666687012 -68 128 -63.3333129883 110.666687012 -114.333374023 145.333312988 -165.333312988 180 rrcurveto
          242 93 -46 129 -289 -113 -146 159 -223 0 236 -224 -220 -87 43 -132 272 112 rlineto
          146.666687012 -148 101 -126.666687012 55.3333129883 -105.333312988 -86 63.3333129883 -91.6666870117 31.6666870117 -97.3333129883 0 rrcurveto
          endchar
        </CharString>
        <CharString name="exclam">
          -609 160 120 rmoveto
          0 -35.3333282471 11.8333282471 -30.8333282471 23.6666717529 -26.3333435059 23.6666717529 -26.3333282471 32.5 -13.1666717529 41.3333282471 0 42 0 32.6666564941 13 23.3333435059 26 23.3333435059 26 11.6666564941 31 0 36 0 36 -11.6666564941 31 -23.3333435059 26 -23.3333435059 26 -32.6666564941 13 -42 0 rrcurveto
          -41.3333282471 0 -32.5 -13.1666717529 -23.6666717529 -26.3333282471 -23.6666717529 -26.3333282471 -11.8333282471 -30.8333435059 0 -35.3333282471 rrcurveto
          231 1376 rmoveto
          -197 -142 hlineto
          62 -919 79 0 56 919 rlineto
          endchar
        </CharString>
        <CharString name="exclamdown">
          -609 426 1095 rmoveto
          0 35.3333740234 -11.8333435059 30.8332519531 -23.6666564941 26.3333740234 -23.6666564941 26.3333740234 -32.5 13.1666259766 -41.3333435059 0 -42 0 -32.6666717529 -13 -23.3333282471 -26 -23.3333282471 -26 -11.6666717529 -31 0 -36 0 -36 11.6666717529 -31 23.3333282471 -26 23.3333282471 -26 32.6666717529 -13 42 0 rrcurveto
          41.3333435059 0 32.5 13.1666870117 23.6666564941 26.3333129883 23.6666564941 26.3333740234 11.8333435059 30.8332519531 0 35.3333740234 rrcurveto
          -231 -1376 rmoveto
          197 142 hlineto
          -62 919 -79 0 -56 -919 rlineto
          endchar
        </CharString>
        <CharString name="f">
          -526 560 1416 rmoveto
          -66 callsubr
          endchar
        </CharString>
        <CharString name="five">
          -18 1004 1496 rmoveto
          -767 0 -39 -800 139 -19 rlineto
          60 66 79.3333435059 33 98.6666564941 0 98.6666870117 0 76 -27.8333129883 53.3333129883 -55.6666870117 53.3333129883 -55.6666870117 26.6666870117 -72.5 0 -89.3333129883 0 -100 -31.6666870117 -81 -63.3333129883 -62 -63.3333129883 -62 -86.3333740234 -31 -109.333312988 0 -130 0 -114.333343506 38.6666564941 -98.6666564941 77.3333435059 rrcurveto
          -65 -141 rlineto
          100.666595459 -91.3333435059 134 -45.6666564941 167.333404541 0 166.666687012 0 131.833312988 45.5 97 91 97 90.9999847412 48.5 121.166671753 0 151.333343506 0 64 -9.66662597656 59.5 -19.3333740234 55 -19.3333129883 55 -28.1666870117 48.1666870117 -37 41.3333129883 -37 41.3333129883 -47.6666870117 32.5 -58.3333129883 23.6666870117 rrcurveto
          -58.3333129883 23.6666870117 -66.1666870117 11.8333129883 -74 0 -88 0 -81.6666564941 -24 -75.3333435059 -48 3.33334350586 120 5 157 6.66665649414 194 rrcurveto
          611 hlineto
          endchar
        </CharString>
        <CharString name="florin">
          -217 257 895 rmoveto
          158 hlineto
          -8.66665649414 -47.3333129883 -22.6666870117 -133.333374023 -36.6666564941 -219.333312988 -36.6666564941 -219.333312988 -30.6666870117 -163.000030518 -24.6666564941 -106.666656494 -8.66667175293 -43.3333282471 -9.83332824707 -36.3333282471 -11 -29.3333435059 -11 -29.3333282471 -15.6666717529 -25.1666717529 -20.3333282471 -21 -20.3333282471 -21 -23.5 -10.5 -26.6666717529 0 -16.6666564941 0 -23 6 -29.3333435059 12 rrcurveto
          -11 -147 rlineto
          41.3333282471 -12.6666564941 30.3333282471 -6.33334350586 19.3333435059 0 36.6666717529 0 33.5 5.83334350586 30.3333282471 11.6666564941 30.3333282471 11.6667480469 26.3333282471 17.6666564941 22.3333435059 23.666595459 22.3333435059 23.6669006348 19.5 25.5 16.6666564941 27.3330993652 16.6666564941 27.3334197998 14.8333435059 33.8333282471 13 40.3332519531 13 40.3333282471 10.6666564941 37.8333282471 8.33334350586 35.3333435059 rrcurveto
          8.33334350586 35.3333282471 8.83331298828 42 9.33334350586 48.6666717529 rrcurveto
          136 765 197 0 8 120 -186 0 39 212 rlineto
          8.66668701172 57.3333740234 15.3333129883 42 22 26.6666259766 22 26.6666259766 35.6666870117 13.3333740234 49.3333129883 0 28 0 32 -8 36 -16 rrcurveto
          8 156 rlineto
          -52.6662597656 14.6666259766 -42.6666870117 7.33337402344 -32.6670532227 0 -180.666687012 0 -107.666656494 -123 -34.6666564941 -246 rrcurveto
          -22 -163 -173 0 rlineto
          endchar
        </CharString>
        <CharString name="four">
          16 1122 371 rmoveto
          14 145 -184 0 0 980 -187 0 -657 -972 0 -153 676 0 0 -371 168 0 0 371 rlineto
          -168 898 rmoveto
          -753 -500 vlineto
          endchar
        </CharString>
        <CharString name="fraction">
          -60 936 1547 rmoveto
          -876 -1547 131 0 875 1547 rlineto
          endchar
        </CharString>
        <CharString name="g">
          -8 569 143 rmoveto
          -65 callsubr
          -257 -645 rmoveto
          -64 callsubr
          endchar
        </CharString>
        <CharString name="gbreve">
          -8 559 1242 rmoveto
          67.3333129883 0 59 22.8333740234 50.6666870117 45.6666259766 50.6666870117 45.6640625 25.3333129883 63.1666259766 0 80.6693115234 rrcurveto
          -117 hlineto
          0 -46 -13 -35 -26 -24 -26 -24 -32.3333129883 -12 -38.6666870117 0 -38.6657104492 0 -31.8333435059 12 -25.0009460449 24 -25 24 -12.5 35 0 46 rrcurveto
          -116 hlineto
          0 -81.3306884766 24.8333435059 -63.3333740234 49.6666564941 -45.3359375 49.666229248 -45.3333740234 58.1666564941 -22.6666259766 66.6671142578 0 rrcurveto
          10 -1099 rmoveto
          -65 callsubr
          -257 -645 rmoveto
          -64 callsubr
          endchar
        </CharString>
        <CharString name="gcircumflex">
          -8 268 1242 rmoveto
          -37 callsubr
          114 -1487 rmoveto
          -65 callsubr
          -257 -645 rmoveto
          -64 callsubr
          endchar
        </CharString>
        <CharString name="gcommaaccent">
          -8 569 143 rmoveto
          -65 callsubr
          -257 -645 rmoveto
          -64 callsubr
          496 2100 rmoveto
          -140 0 -165 -499 195 0 rlineto
          endchar
        </CharString>
        <CharString name="gdotaccent">
          -8 645 1440 rmoveto
          -61 callsubr
          -76 -1099 rmoveto
          -65 callsubr
          -257 -645 rmoveto
          -64 callsubr
          endchar
        </CharString>
        <CharString name="germandbls">
          27 771 148 rmoveto
          -312 0 -16 -148 343 0 rlineto
          56 0 50.3333129883 6.33332824707 44.6666870117 12.6666717529 44.6666870117 12.6666717529 39.8333129883 19.6666564941 35 26.6666717529 35 26.6666564941 27 36.1666717529 19 45.6666717529 19 45.6666717529 9.5 53.8333282471 0 62 0 41.3333435059 -7.83337402344 39 -15.6666259766 36.6666564941 -15.6666259766 36.6666259766 -19.6667480469 31.5 -23.6666259766 26.3333740234 rrcurveto
          -23.6666259766 26.3333129883 -29.8333740234 26.6666870117 -36 27 -36 27 -33.8333129883 22.8333129883 -31.6666870117 18.6666870117 -31.6666870117 18.6666870117 -36.5 21.8333129883 -41.3333129883 25 -41.3333129883 25 -33.3333740234 21.5 -25.3333129883 18 14.6666870117 8.66668701172 21.3333129883 12.6666259766 28 16.6666870117 28 16.6666870117 21.3333129883 13 14.6666870117 9.33331298828 rrcurveto
          14.6666870117 9.33331298828 18.3333129883 12.6666870117 22 16 22 16 16.8333129883 14.8333129883 11.6666870117 13.6666870117 11.6666870117 13.6666870117 12.1666259766 16.3333129883 12.6666870117 19 12.6666870117 19 9 20.6666259766 5.33331298828 22.3333740234 5.33331298828 22.3333740234 2.66668701172 24.5 0 26.6666259766 0 106.666625977 -38.3333129883 83.8333740234 -76.6666870117 61 rrcurveto
          -76.6659545898 61 -101.666687012 30.5 -126.667358398 0 -150.666687012 0 -112.666656494 -41.6666259766 -74.6666564941 -83.3333740234 -74.6666564941 -83.3333740234 -37.3333435059 -118 0 -152.666625977 rrcurveto
          -1046 168 1056 vlineto
          211.333374023 94 105.666625977 188 vhcurveto
          64.6666870117 0 54.6666259766 -17.3333740234 44.6666870117 -34.6666259766 44.6666870117 -34.6666259766 22.3333129883 -46.3333740234 0 -58 0 -32 -7.66668701172 -28.6666259766 -15.3333129883 -25.3333740234 -15.3333129883 -25.3251953125 -16.8333740234 -19.3333740234 -18.3333129883 -13.3414306641 -18.3333129883 -13.3294677734 -25.5 -17.1666870117 -32.6666870117 -21.0038452148 -32.6666870117 -21 -25 -17.5 -17.3333129883 -14 rrcurveto
          -43.3333129883 -36 -21.6666870117 -37.3333129883 0 -38.6666870117 0 -40.6666870117 27.3333129883 -39 54.6666870117 -37.3333129883 18.6666870117 -12.6666870117 29.6666259766 -17.8333129883 40.6666870117 -23 40.6666870117 -23 35 -21 29.3333129883 -19 29.3333129883 -19 30.6666870117 -22.1666870117 32 -25.3333129883 32 -25.3328552246 24.6666870117 -27.8333435059 17.3333129883 -30.3338012695 rrcurveto
          17.3333129883 -30.3329467773 8.66668701172 -31.8333435059 0 -33.3337097168 0 -60 -18.1666870117 -47.5 -36.3333129883 -35 -36.3333129883 -35 -50.5 -17.5 -64.6666870117 0 rrcurveto
          endchar
        </CharString>
        <CharString name="grave">
          -552 408 1251 rmoveto
          -76 callsubr
          endchar
        </CharString>
        <CharString name="greater">
          -19 115 311 rmoveto
          0 -159 960 452 0 97 -958 499 0 -156 772 -386 rlineto
          endchar
        </CharString>
        <CharString name="greaterequal">
          -12 1080 141 rmoveto
          -960 -133 960 hlineto
          -930 1156 rmoveto
          758 -402 -762 -377 0 -151 917 485 0 87 -913 508 rlineto
          endchar
        </CharString>
        <CharString name="guillemotleft">
          -195 390 149 rmoveto
          141 36 -269 376 274 374 -143 35 -293 -403 20 -47 rlineto
          651 -371 rmoveto
          127 36 -256 376 259 374 -128 35 -304 -403 55 -77 rlineto
          36.6666870117 -51.3333435059 43.5 -60.5 50.3333129883 -69.6666564941 50.3319702148 -69.6666564941 38.8333129883 -53.1666717529 27.3347167969 -36.6666717529 rrcurveto
          endchar
        </CharString>
        <CharString name="guillemotright">
          -183 534 554 rmoveto
          -303 416 -127 -35 257 -373 -259 -377 128 -36 rlineto
          685 405 rmoveto
          -290 416 -137 -35 265 -373 -270 -377 139 -36 rlineto
          endchar
        </CharString>
        <CharString name="guilsinglleft">
          -575 361 982 rmoveto
          -241 -399 236 -401 139 0 -226 401 232 399 rlineto
          endchar
        </CharString>
        <CharString name="guilsinglright">
          -578 505 585 rmoveto
          -236 397 -139 0 225 -397 -231 -403 140 0 rlineto
          endchar
        </CharString>
        <CharString name="h">
          -83 882 hmoveto
          -63 callsubr
          endchar
        </CharString>
        <CharString name="hbar">
          -83 282 hmoveto
          748 vlineto
          14.666595459 56.6666870117 39.6666564941 52.8333129883 64.6667480469 49 64.6666564941 49 72.6666564941 24.5 80.6666870117 0 37.3333129883 0 31.6666870117 -4.83331298828 26 -9.66668701172 26 -9.65942382812 21.1666870117 -13.6666870117 16.3333129883 -17.6738891602 16.3333129883 -17.6666870117 12.6666870117 -24.3333129883 9 -31 9 -31 6.16668701172 -33.5 3.33331298828 -36 rrcurveto
          3.33331298828 -36 1.66668701172 -44.6666870117 0 -53.3333129883 rrcurveto
          -617 168 664 vlineto
          0 147.333312988 -27.5 113.5 -55 79.6666870117 -55 79.6666259766 -83.5 39.8333740234 -112 0 -164.666687012 0 -130.666656494 -58.3333740234 -96.6666564941 -116.666625977 rrcurveto
          321 276 116 -276 124 vlineto
          -168 -20 0 -104 -93 0 0 -116 93 0 0 -1270 rlineto
          endchar
        </CharString>
        <CharString name="hcircumflex">
          -83 304 1655 rmoveto
          -37 callsubr
          391 -2043 rmoveto
          -63 callsubr
          endchar
        </CharString>
        <CharString name="hungarumlaut">
          -378 479 1594 rmoveto
          -27 callsubr
          486 335 rmoveto
          -26 callsubr
          endchar
        </CharString>
        <CharString name="hyphen">
          -523 86 497 rmoveto
          500 147 -500 hlineto
          endchar
        </CharString>
        <CharString name="i">
          -684 340 1097 rmoveto
          -62 callsubr
          1496 vmoveto
          -61 callsubr
          endchar
        </CharString>
        <CharString name="iacute">
          -765 601 1630 rmoveto
          -40 callsubr
          28 -144 rmoveto
          -34 callsubr
          endchar
        </CharString>
        <CharString name="ibreve">
          -765 217 1242 rmoveto
          67.3333435059 0 59 22.8333740234 50.6666564941 45.6666259766 50.6666564941 45.6640625 25.3333435059 63.1666259766 0 80.6693115234 rrcurveto
          -117 hlineto
          0 -46 -13 -35 -26 -24 -26 -24 -32.3333282471 -12 -38.6666717529 0 -38.6666717529 0 -31.8333282471 12 -25 24 -25 24 -12.5 35 0 46 rrcurveto
          -116 hlineto
          0 -81.3306884766 24.8333282471 -63.3333740234 49.6666717529 -45.3359375 49.6666564941 -45.3333740234 58.1666564941 -22.6666259766 66.6666870117 0 rrcurveto
          87 -144 rmoveto
          -34 callsubr
          endchar
        </CharString>
        <CharString name="icircumflex">
          -765 -74 1242 rmoveto
          -37 callsubr
          191 -532 rmoveto
          -34 callsubr
          endchar
        </CharString>
        <CharString name="idieresis">
          -765 492 1242 rmoveto
          -45 callsubr
          -236 hmoveto
          -44 callsubr
          357 -144 rmoveto
          -34 callsubr
          endchar
        </CharString>
        <CharString name="igrave">
          -765 164 1242 rmoveto
          -76 callsubr
          463 -531 rmoveto
          -34 callsubr
          endchar
        </CharString>
        <CharString name="ij">
          -284 796 1097 rmoveto
          -168 -1218 hlineto
          0 -28 -0.333312988281 -21.6666717529 -0.666687011719 -15.3333282471 -0.666687011719 -15.3333282471 -1.5 -17.3333435059 -2.33331298828 -19.3333282471 -2.33331298828 -19.3333435059 -3.66668701172 -14.5 -5 -9.66665649414 -5 -9.66665649414 -6.83331298828 -10.1666870117 -8.66668701172 -10.6666564941 -8.66638183594 -10.6666564941 -11.1666870117 -7.66668701172 -13.6669311523 -4.66665649414 -13.6666870117 -4.66665649414 -16.3333129883 -3.83334350586 -19 -3 rrcurveto
          -19 -3 -22.5 -1.5 -26 0 rrcurveto
          -52 0 22 -151 52 0 rlineto
          68.6666870117 0 55.6666259766 6 42.6666870117 12 42.6666870117 12 33.8333129883 21.1666564941 25 30.3333435059 25 30.3333435059 17 36.8333129883 9 43.3333435059 9 43.3333435059 4.5 57 0 70.6666564941 rrcurveto
          1635 vmoveto
          -61 callsubr
          -469 -201 rmoveto
          -62 callsubr
          1496 vmoveto
          -61 callsubr
          endchar
        </CharString>
        <CharString name="imacron">
          -765 574 1364 rmoveto
          -41 callsubr
          -270 -144 rmoveto
          -34 callsubr
          endchar
        </CharString>
        <CharString name="infinity">
          616 1678 642 rmoveto
          0 112 -30.8333740234 90.5 -61.6666259766 69 -61.6666259766 69 -86.5 34.5 -111.333374023 0 -82 0 -74.1666259766 -23.5 -66.3333740234 -47 -66.3333740234 -47 -64.8333129883 -67.1666870117 -63.3333129883 -87.3333129883 -66.6658935547 88.6666870117 -66.6666870117 67.5 -66.6674194336 46.3333129883 -66.6660766602 46.3333129883 -73.6666870117 23.1666870117 -80.6672363281 0 rrcurveto
          -98.6666564941 0 -83.5 -34.8333129883 -68.3333435059 -69.6666870117 -68.3332672119 -69.6666870117 -34.1666717529 -84.5 -6.103515625e-05 -99.3333129883 0 -74 13.8333282471 -67.3333129883 27.6666717529 -60.6666870117 27.6666717529 -60.6666564941 41.3333282471 -49 55 -37.3333435059 55 -37.3333435059 64.1666564941 -18.6666717529 73.3333435059 1.52587890625e-05 78 0 72.3333129883 23.5 66.6666870117 47 rrcurveto
          66.6666870117 47 66.3333129883 66.8333435059 66 86.6666564941 69.3333129883 -92.6666564941 67.6666870117 -68.3333435059 66 -44 66 -44 70.3333740234 -22 74.6666259766 0 100.666625977 -1.52587890625e-05 84.3333740234 36.3333282471 68 72.6666870117 68 72.6664428711 34 93 0 113.333557129 rrcurveto
          -1430 -4 rmoveto
          -1.52587890625e-05 71.3326416016 21.8333282471 60.3333129883 43.6666870117 49.3340454102 43.6666564941 49.3333129883 57.8333435059 24.6666870117 72 0 125.333312988 0 117 -85.6666870117 108.666687012 -171.333312988 -114.666687012 -170 -114.333312988 -85 -114 0 -71.3333435059 0 -59 25.8333435059 -46.6666564941 51.6666564941 -46.6666564941 51.6666564941 -23.3333435059 59.8333435059 0 68 rrcurveto
          1307 27 rmoveto
          0 -83.3333129883 -19.5 -68.1666870117 -39 -53 -39 -53 -56.8333740234 -26.5 -74.6666259766 0 -60.6666259766 0 -56 20.3333435059 -51.3333740234 40.6666564941 -51.3333740234 40.6666564941 -58.6666259766 65.3333435059 -66 90 52 77.3326416016 53.6666259766 61.8333129883 55.3333740234 46.3340454102 55.3333740234 46.3333129883 59.3332519531 23.1666870117 63.3333740234 0 rrcurveto
          67.3333740234 0 55.8332519531 -22.1666870117 44.3333740234 -44.3333129883 44.3333740234 -44.3333129883 22.1666259766 -53.8333740234 0 -63.3333129883 rrcurveto
          endchar
        </CharString>
        <CharString name="integral">
          -497 277 -50 rmoveto
          0 -82 -9.83334350586 -59.5 -19.6666564941 -37 -19.6665649414 -37 -38.1666717529 -18.5 -56.6667633057 0 -42.6666564941 0 -31 4.66665649414 -19.3333435059 9.33334350586 rrcurveto
          1 -139 rlineto
          45.3333129883 -13.3333435059 40.3333282471 -6.66665649414 35.3333587646 0 48.6666717529 0 41.5 10 34.3333282471 20 34.3333435059 20 26.6666564941 28.6666564941 19 37.3333435059 19 37.3333435059 13.8333435059 42.1666564941 8.66665649414 47 8.66665649414 47 4.33334350586 53.8333282471 0 60.6666717529 rrcurveto
          1404 vlineto
          0 81.3333740234 10 58.8332519531 20 36.3333740234 20 36.3333740234 38.3333435059 18.1666259766 56.6666564941 0 42 0 32 -5.33337402344 22 -10.6666259766 rrcurveto
          -1 139 rlineto
          -52.6666870117 15.3333740234 -40.3333129883 7.66662597656 -28 0 rrcurveto
          -175.333312988 -87.6666870117 -135 -270 hvcurveto
          endchar
        </CharString>
        <CharString name="iogonek">
          -684 221 -294 rmoveto
          -22 0 -20.1666717529 8.5 -18.3333282471 17 -18.3333282471 17 -9.16667175293 21.1666717529 0 25.3333282471 0 57.3333282471 60 73 120 88.6666717529 rrcurveto
          -114 hlineto
          -127.333343506 -74.0000305176 -63.6666564941 -82.6666564941 0 -91.3333129883 0 -55.3333435059 18.1666717529 -43.1666564941 36.3333282471 -31 36.3333129883 -31 46.1666564941 -15.5 56.0000305176 0 53.9999847412 0 52.3333282471 10.6666564941 50.6666870117 21.3333435059 rrcurveto
          117 vlineto
          -53.3333435059 -22 -45.6666564941 -11 -38 0 rrcurveto
          119 1391 rmoveto
          -62 callsubr
          1496 vmoveto
          -61 callsubr
          endchar
        </CharString>
        <CharString name="itilde">
          -765 -62 1250 rmoveto
          26 56.6666259766 38.6666717529 28.3333740234 51.3333282471 0 26 0 32.8333282471 -7.83337402344 39.6666717529 -15.6666259766 39.6666717529 -15.6666259766 40.5 -15.5 41.3333282471 -15.3333740234 41.3333435059 -15.3333740234 36 -7.66662597656 30.6666564941 0 43.3333435059 0 38.5 15.5 33.6666564941 31 33.6666870117 31 28.5 54.1666259766 23.3333129883 77.3333740234 rrcurveto
          -86 36 rlineto
          -28 -65.3333740234 -41.6666564941 -32.6666259766 -55.3333435059 0 -27.3330078125 0 -33.3333435059 8 -39.3336486816 16 -39.3333282471 16 -40.1666717529 16 -41 16 -41 16 -35.5 8 -30 0 -40 0 -35.6666717529 -13.6666259766 -31.3333282471 -27.3333740234 -31.3333587646 -27.3280029297 -27.3333282471 -46.3333740234 -23.3333129883 -65.3386230469 rrcurveto
          448 -207 rmoveto
          -34 callsubr
          endchar
        </CharString>
        <CharString name="j">
          -750 330 1097 rmoveto
          -168 -1218 hlineto
          0 -28 -0.33332824707 -21.6666717529 -0.66667175293 -15.3333282471 -0.66667175293 -15.3333282471 -1.5 -17.3333435059 -2.33332824707 -19.3333282471 -2.33332824707 -19.3333435059 -3.66667175293 -14.5 -5 -9.66665649414 -5 -9.66665649414 -6.83332824707 -10.1666870117 -8.66667175293 -10.6666564941 -8.66665649414 -10.6666564941 -11.1666870117 -7.66668701172 -13.6666564941 -4.66665649414 -13.6666564941 -4.66665649414 -16.3333435059 -3.83334350586 -19 -3 rrcurveto
          -19 -3 -22.5 -1.5 -26 0 rrcurveto
          -52 0 22 -151 52 0 rlineto
          68.6666564941 0 55.6666717529 6 42.6666717529 12 42.6666717529 12 33.8333282471 21.1666564941 25 30.3333435059 25 30.3333435059 17 36.8333129883 9 43.3333435059 9 43.3333435059 4.5 57 0 70.6666564941 rrcurveto
          1635 vmoveto
          -61 callsubr
          endchar
        </CharString>
        <CharString name="jcircumflex">
          -751 -167 1242 rmoveto
          -37 callsubr
          310 -532 rmoveto
          -28 callsubr
          endchar
        </CharString>
        <CharString name="k">
          -154 145 hmoveto
          -60 callsubr
          endchar
        </CharString>
        <CharString name="kcommaaccent">
          -154 464 -620 rmoveto
          -29 callsubr
          -413 122 rmoveto
          -60 callsubr
          endchar
        </CharString>
        <CharString name="kgreenlandic">
          -91 823 hmoveto
          191 hlineto
          -138 151.333328247 -185.333312988 183.666671753 -232.666687012 216 rrcurveto
          523 554 -205 0 -483 -505 0 505 -146 0 0 -1105 146 0 0 506 27 -26 rlineto
          endchar
        </CharString>
        <CharString name="l">
          -626 438 -20 rmoveto
          -59 callsubr
          endchar
        </CharString>
        <CharString name="lacute">
          -626 760 2043 rmoveto
          -40 callsubr
          3 -1675 rmoveto
          -59 callsubr
          endchar
        </CharString>
        <CharString name="lcaron">
          -626 568 1021 rmoveto
          105 hlineto
          63.3333129883 180 48 156 32.6666870117 132 rrcurveto
          44 -197 vlineto
          -2.66668701172 -42.6666259766 -4 -49.6667480469 -5.33331298828 -56.6666259766 -5.33331298828 -56.6666259766 -7.5 -69.8333740234 -9.66668701172 -83 -9.66668701172 -83 -5.83331298828 -51.1666259766 -2 -19.3333740234 rrcurveto
          -130 -1041 rmoveto
          -59 callsubr
          endchar
        </CharString>
        <CharString name="lcommaaccent">
          -626 248 -640 rmoveto
          -29 callsubr
          96 122 rmoveto
          -59 callsubr
          endchar
        </CharString>
        <CharString name="ldot">
          -158 887 759 rmoveto
          -61 callsubr
          -449 -581 rmoveto
          -59 callsubr
          endchar
        </CharString>
        <CharString name="less">
          -20 1061 146 rmoveto
          0 158 -773 354 775 379 0 158 -960 -493 0 -97 rlineto
          endchar
        </CharString>
        <CharString name="lessequal">
          -12 1041 383 rmoveto
          -756 383 756 396 0 150 -910 -506 0 -90 910 -484 rlineto
          25 -91 rmoveto
          -965 -133 965 hlineto
          endchar
        </CharString>
        <CharString name="logicalnot">
          30 1100 825 rmoveto
          -991 -144 856 -421 135 hlineto
          endchar
        </CharString>
        <CharString name="lozenge">
          -53 565 106 rmoveto
          -46 84 -63.6666564941 120.833312988 -81.3333435059 157.666687012 -81.3333435059 157.666687012 -51.6666717529 99.8333129883 -21.9999847412 42 158.666687012 292 119.333312988 218.666625977 80 145.333374023 44.6666870117 -87.3333740234 66.5 -127.166625977 88.3333129883 -167 88.3331298828 -167 48.8333129883 -92.1666870117 9.33355712891 -17.3333129883 -39.3333129883 -73.3333129883 -59.5 -110 -79.6666870117 -146.666687012 rrcurveto
          -79.6666870117 -146.666717529 -59.8333129883 -110 -40 -73.3332824707 rrcurveto
          65 1477 rmoveto
          -111 0 -432 -817 425 -814 109 0 434 816 rlineto
          endchar
        </CharString>
        <CharString name="lslash">
          -606 487 985 rmoveto
          -176 -137 0 662 -168 -20 0 -772 -112 -87 0 -145 112 87 0 -105 rlineto
          0 -50 0.5 -41.8333435059 1 -33.6666564941 1 -33.6666564941 2.16667175293 -34.3333435059 3.33332824707 -35 3.33332824707 -35 4.5 -28.5 5.66667175293 -22 5.66667175293 -22 7.83332824707 -21.8333435059 10 -21.6666564941 10 -21.6666564941 12 -16.8333435059 14 -12 14 -12 17 -11 20 -10 rrcurveto
          20 -10 22.8333435059 -6.83332824707 25.6666564941 -3.66667175293 25.6666564941 -3.66667175293 29.8333435059 -1.83332824707 34 0 32 0 59.3333129883 4.33332824707 86.6666870117 8.66667175293 rrcurveto
          -15 136 rlineto
          -81.3333129883 -6.66665649414 -46.0000305176 -3.33334350586 -10.6666564941 0 -18 0 -15.8333435059 1 -13.6666564941 2 -13.6666564941 2 -12 4.33334350586 -10.3333435059 6.66665649414 -10.3333435059 6.66667175293 -8.66665649414 6.5 -7 6.33332824707 -7 6.33332824707 -5.83334350586 10.6666717529 -4.66665649414 15 -4.66665649414 15 -3.66668701172 13.6666717529 -2.66665649414 12.3333282471 rrcurveto
          -2.66665649414 12.3330993652 -2 18.5 -1.33334350586 24.6669006348 -1.32379150391 24.666595459 -0.833343505859 22.1666564941 -0.342864990234 19.6667480469 -0.333343505859 19.6666564941 -0.166656494141 27.5 0 35.3333435059 rrcurveto
          0 272 176 136 rlineto
          endchar
        </CharString>
        <CharString name="m">
          578 1536 hmoveto
          -58 callsubr
          endchar
        </CharString>
        <CharString name="macron">
          -133 886 1625 rmoveto
          -41 callsubr
          endchar
        </CharString>
        <CharString name="multiply">
          -202 876 278 rmoveto
          -285 326 285 328 -106 95 -274 -314 -274 314 -106 -95 285 -328 -285 -326 108 -97 272 313 272 -313 rlineto
          endchar
        </CharString>
        <CharString name="n">
          -11 143 hmoveto
          -57 callsubr
          endchar
        </CharString>
        <CharString name="nacute">
          -11 978 1630 rmoveto
          -40 callsubr
          -510 -1242 rmoveto
          -57 callsubr
          endchar
        </CharString>
        <CharString name="ncaron">
          -11 302 1630 rmoveto
          -31 callsubr
          -290 -1630 rmoveto
          -57 callsubr
          endchar
        </CharString>
        <CharString name="ncommaaccent">
          -11 466 -620 rmoveto
          -29 callsubr
          -417 122 rmoveto
          -57 callsubr
          endchar
        </CharString>
        <CharString name="nine">
          -30 556 598 rmoveto
          74.6666870117 0 75 20 75.3333129883 40 rrcurveto
          -531 -658 220 0 79 98 rlineto
          52.6666870117 64.6666107178 59.8333129883 74.3333282471 67 84.0000610352 67 84 47.8333129883 61 28.6666870117 38 80 108.666687012 56.3333129883 93 32.6666870117 77.3333129883 32.6666259766 77.3331298828 16.3333740234 86.3333129883 0 95.3335571289 0 68 -11.1666259766 63.1666259766 -22.3333740234 58.3333740234 -22.3294677734 58.3333740234 -31.6666870117 51 -41.0038452148 43.6666259766 rrcurveto
          -41 43.6666259766 -52.3333129883 34.3333740234 -63.6666870117 25 -63.6666870117 25 -70.8333129883 12.5 -78 0 -150.666595459 0 -122 -44.6666259766 -93.333404541 -89.3333740234 -93.3333129883 -89.3333740234 -46.6666564941 -112.666625977 -3.0517578125e-05 -136 0 -89.3333129883 21.6666564941 -79.6666870117 43.3333435059 -70 43.3333282471 -70 57.1666717529 -53.5 71 -37 rrcurveto
          71 -37 77.8333435059 -18.5 84.6666564941 0 rrcurveto
          345 463 rmoveto
          0 -92.6666870117 -25.1666870117 -75.3333129883 -50.3333129883 -58 -50.3333129883 -58 -77.8333740234 -29 -105.333312988 0 -99.3333435059 0 -77.6666564941 28 -56 56 -56 56 -28 74.6666870117 0 93.3333129883 0 89.3333740234 29 75.1666259766 58 61 58 61 78.6666564941 30.5 99.3333435059 0 rrcurveto
          98.6666870117 0 75.1666259766 -29.1666259766 51.6666870117 -58.3333740234 51.6666870117 -58.3310546875 25.8333129883 -74.8333740234 0 -91.3355712891 rrcurveto
          endchar
        </CharString>
        <CharString name="notequal">
          -4 798 1207 rmoveto
          -141 -292 -545 0 9 -132 477 0 -152 -304 -332 0 7 -127 261 0 -119 -284 113 -20 145 304 562 0 -7 127 -495 0 156 304 rlineto
          346 0 -9 132 -278 0 117 276 rlineto
          endchar
        </CharString>
        <CharString name="ntilde">
          -11 315 1250 rmoveto
          -33 callsubr
          -90 -1305 rmoveto
          -57 callsubr
          endchar
        </CharString>
        <CharString name="numbersign">
          -61 1032 1055 rmoveto
          -138 0 66 407 -128 0 -71 -407 -234 0 79 407 -153 0 -83 -407 -193 0 -9 -125 177 0 -61 -394 -183 0 -10 -126 171 0 rlineto
          -73 -433 129 0 80 433 235 0 -84 -433 151 0 86 433 155 0 10 126 -147 0 67 395 147 0 rlineto
          -281 hmoveto
          -79 -395 -236 0 80 395 rlineto
          endchar
        </CharString>
        <CharString name="o">
          6 265 546 rmoveto
          -56 callsubr
          843 3 rmoveto
          -55 callsubr
          endchar
        </CharString>
        <CharString name="oacute">
          6 982 1630 rmoveto
          -40 callsubr
          -392 -696 rmoveto
          -56 callsubr
          843 3 rmoveto
          -55 callsubr
          endchar
        </CharString>
        <CharString name="obreve">
          6 598 1242 rmoveto
          67.3333129883 0 59 22.8333740234 50.6666870117 45.6666259766 50.6666870117 45.6640625 25.3333129883 63.1666259766 0 80.6693115234 rrcurveto
          -117 hlineto
          0 -46 -13 -35 -26 -24 -26 -24 -32.3333129883 -12 -38.6666870117 0 -38.6666870117 0 -31.8333129883 12 -25 24 -25 24 -12.5 35 0 46 rrcurveto
          -116 hlineto
          0 -81.3306884766 24.8333435059 -63.3333740234 49.6666564941 -45.3359375 49.6666564941 -45.3333740234 58.1666564941 -22.6666259766 66.6666870117 0 rrcurveto
          -333 -696 rmoveto
          -56 callsubr
          843 3 rmoveto
          -55 callsubr
          endchar
        </CharString>
        <CharString name="ocircumflex">
          6 306 1242 rmoveto
          -37 callsubr
          -228 -1084 rmoveto
          -56 callsubr
          843 3 rmoveto
          -55 callsubr
          endchar
        </CharString>
        <CharString name="odieresis">
          6 873 1242 rmoveto
          -45 callsubr
          -236 hmoveto
          -44 callsubr
          -63 -696 rmoveto
          -56 callsubr
          843 3 rmoveto
          -55 callsubr
          endchar
        </CharString>
        <CharString name="oe">
          721 1099 634 rmoveto
          9.33337402344 108 32.3332519531 86 55.3333740234 64 55.3333740234 64 69.3332519531 32 83.3333740234 0 81.3333740234 0 64.5 -29.1666870117 47.6666259766 -58.3333129883 47.6666259766 -58.3333129883 24.8333740234 -84.5 2 -110.666687012 rrcurveto
          -13 vlineto
          -1082 -521 rmoveto
          -58 0 -51 11.8333435059 -44 23.6666564941 -44 23.6666717529 -35 32.5 -26 41.3333282471 -26 41.3333435059 -19.3333435059 45.6666564941 -12.6666564941 50 -12.6666564941 50 -6.33334350586 53.6666564941 0 57.3333435059 -1.52587890625e-05 46 3.83332824707 44 7.66668701172 42 7.66665649414 42 12.5 40 17.3333435059 38 rrcurveto
          17.3333435059 38 21.3333129883 33 25.3333435059 28 25.3333435059 28 31.3333129883 22.1666870117 37.3333435059 16.3333129883 37.3333435059 16.3333129883 41.6666564941 8.16668701172 46 0 59.3327026367 0 51.8333129883 -11.6666870117 44.333984375 -23.3333129883 44.3317871094 -23.3333129883 34.8333129883 -32.5 25.3348999023 -41.6666870117 25.3333129883 -41.6666870117 18.6666870117 -46.3333129883 12 -51 rrcurveto
          12 -51 6 -55.8333129883 0 -60.6666870117 0 -58 -6.33331298828 -54.3333435059 -12.6666870117 -50.6666564941 -12.6666870117 -50.6666564941 -19 -45.8333435059 -25.3333129883 -41 -25.3333129883 -41 -34.5 -32.5 -43.6666870117 -24 -43.6666870117 -24 -50.5 -12 -57.3333129883 0 rrcurveto
          -3 -138 rmoveto
          94 0 81.8333129883 21 69.6666870117 42 69.6666870117 42 55.8333129883 57.6666564941 42 73.3333435059 42 -76 57.3333740234 -58.3333435059 72.6666259766 -40.6666564941 72.6666259766 -40.6666717529 84.3333740234 -20.3333282471 96 0 159.333374023 0 131 44 102.666625977 88 rrcurveto
          -52 122 rlineto
          -49.330078125 -33.3333282471 -50.8333740234 -26.6666717529 -52.3365478516 -20 -52.3333740234 -20 -61.1666259766 -10 -70 0 -98 0 -80.6666259766 36.3333282471 -63.3333740234 72.6666717529 -63.3333740234 72.6666564941 -31.6666259766 97 0 121.333343506 rrcurveto
          739 hlineto
          0 6.66668701172 0.333374023438 12.8333129883 0.666625976562 19 0.666625976562 19 0.333374023438 12.1666870117 0 5.33331298828 0 164.666687012 -36.3333740234 129.5 -72.6666259766 94.3333129883 -72.6666259766 94.3333740234 -103.666748047 47.1666259766 -134.666625977 0 -86.6666259766 -2.66662597656 -79.6667480469 -22.1667480469 -72.6666259766 -41.6666259766 -72.6666259766 -41.6657104492 -56.6667480469 -56.1666870117 -40.6666259766 -70.6676025391 rrcurveto
          -40 74 -54.8333129883 57.6666870117 -69.6666870117 41.3333129883 -69.6666870117 41.3333740234 -83.5 20.6666259766 -97.3333129883 0 -80.6666564941 0 -73 -15.3333740234 -65.3333435059 -30.6666259766 -65.3333435059 -30.6666259766 -53.3333282471 -41.6666870117 -41.3333282471 -52.6666870117 -41.3333282471 -52.6666870117 -31.8333435059 -61 -22.3333282471 -69.3333129883 -22.3333435059 -69.3333129883 -11.1666564941 -74.3333740234 0 -79.3333129883 rrcurveto
          -3.0517578125e-05 -107.333343506 18.6666564941 -96.1666564941 37.3333740234 -85 37.3333282471 -85 57.3333282471 -68.5 77.3333435059 -52 77.3333435059 -52 92.3333129883 -26 107.333343506 0 rrcurveto
          endchar
        </CharString>
        <CharString name="ogonek">
          -605 331 -303 rmoveto
          -22 0 -20.1666564941 8.5 -18.3333435059 17 -18.3333282471 17 -9.16667175293 21.1666717529 0 25.3333282471 0 57.3333587646 60 73 120 88.6666412354 rrcurveto
          -114 hlineto
          -127.333312988 -74.0000305176 -63.6666564941 -82.6666564941 -3.0517578125e-05 -91.3333129883 -6.103515625e-05 -55.3333435059 18.1666717529 -43.1666564941 36.3333892822 -31 36.3333282471 -31 46.1666717529 -15.5 56 0 54 0 52.3333435059 10.6666564941 50.6666564941 21.3333435059 rrcurveto
          117 vlineto
          -53.3333435059 -22 -45.6666564941 -11 -38 0 rrcurveto
          endchar
        </CharString>
        <CharString name="ograve">
          6 544 1242 rmoveto
          -76 callsubr
          44 -1083 rmoveto
          -56 callsubr
          843 3 rmoveto
          -55 callsubr
          endchar
        </CharString>
        <CharString name="ohungarumlaut">
          6 783 1577 rmoveto
          -27 callsubr
          486 335 rmoveto
          -26 callsubr
          -502 -696 rmoveto
          -56 callsubr
          843 3 rmoveto
          -55 callsubr
          endchar
        </CharString>
        <CharString name="omacron">
          6 955 1364 rmoveto
          -41 callsubr
          -690 -696 rmoveto
          -56 callsubr
          843 3 rmoveto
          -55 callsubr
          endchar
        </CharString>
        <CharString name="one">
          -569 302 1496 rmoveto
          -18.6666564941 -13.3107910156 -21.6666870117 -13.3333740234 -24.6666564941 -13.3558349609 -24.6666717529 -13.3114013672 -20.5 -10.3333740234 -16.3333282471 -7.35522460938 -16.3333282471 -7.33337402344 -24.5 -10.6666259766 -32.6666717529 -14 -32.6666412354 -14 -21.6666717529 -9.33337402344 -10.6666870117 -4.66662597656 rrcurveto
          -167 vlineto
          97.3333435059 31.3333740234 82.3333129883 37.6666259766 67.3333435059 44 rrcurveto
          -1311 177 1496 vlineto
          endchar
        </CharString>
        <CharString name="onehalf">
          396 245 hmoveto
          134 0 921 1547 -135 0 rlineto
          -231 -1577 rmoveto
          553 99 -394 hlineto
          40.6623535156 37.3332824707 27.1666259766 24.8333282471 13.6710205078 12.3333892822 13.662109375 12.3333282471 24.1666259766 22.6666717529 34.6712646484 33 34.6666259766 33 23.8333740234 24 13 15 13 15 19.1666259766 22 25.3333740234 29 25.3333740234 29 17.8332519531 23.6666564941 10.3333740234 18.3333435059 10.3333740234 18.3333435059 11.8332519531 21.8333129883 13.3333740234 25.3333435059 rrcurveto
          13.3333740234 25.3333435059 9 24.1666564941 4.66662597656 23 4.66662597656 23 2.33337402344 23.5 0 24 0 77.3333129883 -25.3333740234 59.1666870117 -50.6666259766 41 -50.6666259766 41 -62 20.5 -73.3333740234 0 -62.6666259766 0 -59 -15 -55.3333740234 -30 -55.3333129883 -30 -39 -41.3333129883 -22.6666870117 -52.6666870117 rrcurveto
          77 -65 rlineto
          28 42 33 31.5 38 21 38 21 38 10.5 38 0 38 0 32.3333740234 -13 26.6666259766 -26 26.6666259766 -26 13.3333740234 -34.6666870117 0 -43.3333129883 -2 -60 -50.6666259766 -87.3333435059 -99.3333740234 -114.666656494 -40.6666259766 -45.3333435059 -94.6667480469 -97.3333282471 -148.666625977 -149.333328247 rrcurveto
          -799 587 rmoveto
          357 96 -124 792 hlineto
          -97 1 rlineto
          -36.6665649414 -36.6666259766 -49.6666717529 -34.3333740234 -62.6667633057 -32 rrcurveto
          -102 vlineto
          55.3333282471 28.6666259766 43.6666717529 25 32 21.3333740234 rrcurveto
          -663 -118 vlineto
          endchar
        </CharString>
        <CharString name="onequarter">
          414 122 1334 rmoveto
          -38 callsubr
          1298 -1396 rmoveto
          200 106 vlineto
          -10 118 -94 0 0 541 -120 0 -379 -560 0 -99 390 0 0 -200 rlineto
          -148 1507 rmoveto
          -920 -1547 134 0 921 1547 rlineto
          -234 -1189 rmoveto
          247 358 rlineto
          -0.666625976562 -18.6666870117 -0.333374023438 -119.333312988 0 -220 rrcurveto
          endchar
        </CharString>
        <CharString name="ordfeminine">
          -388 134 741 rmoveto
          -106 545 106 vlineto
          -310 196 rmoveto
          -81.3333435059 0 -40.6666717529 37 1.52587890625e-05 74 0 16.6625976562 2.66667175293 15.1666259766 5.33332824707 13.6707763672 5.33334350586 13.6666259766 6.66665649414 11.3333740234 8 9 8 9 11.1666564941 8.16662597656 14.3333435059 7.33337402344 14.3333435059 7.33337402344 13.1666564941 5.66662597656 12 4 12 4 15.8333435059 3.5 19.6666564941 3 rrcurveto
          19.6658630371 3 16.1666564941 2.16662597656 12.6674804688 1.33337402344 12.6657714844 1.33337402344 17.1666564941 1.5 21.6675720215 1.66662597656 21.6666870117 1.66662597656 15.8333129883 1.5 10 1.33337402344 rrcurveto
          -27 vlineto
          -2.66461181641 -66.6666259766 -15.6666870117 -55.1667480469 -28.6687011719 -43.6666259766 -28.6666564941 -43.6666870117 -42.3333435059 -21.8333129883 -56 0 rrcurveto
          -19 -111 rmoveto
          84 0 64.3333435059 33.3333129883 44.6666564941 66.6666870117 rrcurveto
          3 -79 118 0 rlineto
          -4 72.6666870117 -2 45 0 17.3333129883 rrcurveto
          2 348 rlineto
          0 88 -22.5 65.3333740234 -45 42.6666259766 -45 42.6666259766 -57.8333435059 21.3333740234 -70.6666564941 0 -123.333343506 0 -94 -42.3333740234 -64.6666564941 -84.6666259766 rrcurveto
          61 -78 rlineto
          32.6666717529 36.6666259766 32.6666717529 23.8333740234 32.6666564941 11 32.6666564941 11 39 5.5 45.3333435059 0 48 0 33.3333435059 -12.6666259766 18.6666564941 -25.3333740234 18.6666870117 -25.3333740234 10 -42.6666259766 1.33331298828 -60 rrcurveto
          -18 vlineto
          -53.3333435059 -3.33337402344 -45 -4 -36.6666564941 -4.66662597656 -36.6666564941 -4.66662597656 -37.5 -7.83337402344 -38.3333435059 -11 -38.3333435059 -11 -30.3333282471 -13.6666259766 -22.3333282471 -16.3333740234 -22.3333282471 -16.3310546875 -18.3333435059 -21.8333740234 -14.3333282471 -27.3355712891 -14.3333282471 -27.3291015625 -7.16667175293 -32.3333740234 0 -37.3375244141 0 -67.3333129883 20.8333282471 -54.1666870117 41.6666717529 -41 rrcurveto
          41.6666717529 -41 53.1666717529 -20.5 64.6666564941 0 rrcurveto
          endchar
        </CharString>
        <CharString name="ordmasculine">
          -296 256 1207 rmoveto
          -1.52587890625e-05 75.3333740234 17.3333282471 63.1666259766 34.6666870117 51 34.6666564941 51 47 25.5 59.3333435059 0 61.3333435059 0 47.9999694824 -25.6666259766 34.6666870117 -51.3333740234 34.6666870117 -51.3308105469 17.3333129883 -64.3333740234 0 -77.3358154297 0 -74 -17 -62.1666259766 -34 -50.3333740234 -34 -50.3333129883 -47 -25.1666870117 -60 0 rrcurveto
          -63.3333435059 0 -48.6666564941 24.8333129883 -34 49.6666870117 -34 49.6666259766 -17 63.8333740234 0 78 rrcurveto
          195 383 rmoveto
          -98.6666564941 0 -78 -36 -57.3333435059 -72 -57.3333282471 -72 -28.6666717529 -90.6666259766 0 -109.333374023 0 -112.666625977 28 -92.1666870117 56 -71.6666870117 56 -71.6666870117 79.3333435059 -35.8333129883 102.666656494 0 98 0 77.1666870117 35.8333129883 56.3333129883 71.6666870117 56.3333129883 71.6666870117 28.1666870117 90.4999389648 0 109.333374023 rrcurveto
          0 111.333374023 -28.3333129883 92 -56.6666870117 72.6666259766 -56.6660766602 72.6666259766 -77.6666870117 36.3333740234 -98.6672363281 0 rrcurveto
          endchar
        </CharString>
        <CharString name="oslash">
          5 294 -235 rmoveto
          110 247 rlineto
          58 -23.3333282471 64 -11.6666717529 70 0 160 0 125.333312988 52.8333435059 90.6666870117 105.666656494 90.6666259766 105.666641235 45.3333740234 137.833328247 0 170.000030518 0 112.666687012 -20.6666259766 100.166625977 -41.3333740234 87.6666870117 -41.3333129883 87.6666870117 -59 67.1666259766 -76.6666870117 46.6666870117 rrcurveto
          110 245 -77 31 -107 -240 rlineto
          -58.6666870117 22 -63.3333129883 11 -68 0 -159.333312988 0 -125.333343506 -52.6666259766 -91.3333435059 -105.333374023 -91.3333129883 -105.333312988 -45.6666564941 -138 -3.0517578125e-05 -170.666687012 0 -111.333343506 20.8333282471 -99.3333435059 41.6666717529 -87.3333129883 41.6666717529 -87.3333435059 59.1666717529 -67.3333435059 76.6666564941 -47.3333129883 rrcurveto
          -109 -245 rlineto
          513 1152 rmoveto
          -342 -767 rlineto
          -86 74 -43 119.333312988 0 164.666687012 0 132 28.6666564941 105.333312988 57.3333435059 78.6666870117 57.3333435059 78.6666870117 83.3333129883 39.3333129883 109.333343506 0 49.3333129883 0 45 -8.33331298828 40.6666870117 -16.6666870117 rrcurveto
          71 -42 rmoveto
          85.3333129883 -72 42.6666870117 -121.666687012 0 -171.333312988 0 -132 -27.8333129883 -105 -55.6666870117 -78 -55.6666870117 -78 -82.5 -39 -109.333312988 0 -52.6666870117 0 -47 9.33334350586 -41.3333129883 18.6666564941 rrcurveto
          endchar
        </CharString>
        <CharString name="otilde">
          6 319 1250 rmoveto
          -33 callsubr
          28 -759 rmoveto
          -56 callsubr
          843 3 rmoveto
          -55 callsubr
          endchar
        </CharString>
        <CharString name="p">
          6 143 -476 rmoveto
          -54 callsubr
          486 -979 rmoveto
          -53 callsubr
          endchar
        </CharString>
        <CharString name="paragraph">
          -127 393 -158 rmoveto
          125 1588 219 -1588 115 1588 75 131 -466 hlineto
          -78 0 -68.5 -9.83337402344 -59 -19.6666259766 -59 -19.6666259766 -46.6666717529 -26.5 -34.3333282471 -33.3333740234 -34.3333282471 -33.3280029297 -25.6666717529 -36.8333740234 -17 -40.3386230469 -17 -40.3333740234 -8.5 -43.1666259766 0 -46 0 -60 16 -57.5 32 -55 32 -55 45.5 -45.5 59 -36 rrcurveto
          59 -36 65.1666564941 -18.6666870117 71.3333435059 -1.33331298828 rrcurveto
          endchar
        </CharString>
        <CharString name="parenleft">
          -586 103 598 rmoveto
          0 -160.666595459 24.3333282471 -155.166656494 48.6666717529 -149.666748047 48.6666717529 -149.666656494 67.3333282471 -134.5 86 -119.333343506 rrcurveto
          153 hlineto
          -81.3331298828 124.666656494 -63.3333435059 139 -45.3335266113 153.333343506 -45.3333435059 153.333312988 -22.6666564941 152 0 150.666687012 0 321.333374023 86 294.666625977 172 268 rrcurveto
          -155 hlineto
          -182 -265.333374023 -91 -296 0 -326.666625977 rrcurveto
          endchar
        </CharString>
        <CharString name="parenright">
          -586 506 598 rmoveto
          0.0001220703125 322.666625977 -91.3333435059 296 -182.666778564 269.333374023 rrcurveto
          -155 hlineto
          172.666671753 -269.333374023 86.3333282471 -294.666687012 0 -319.999938965 0 -150.666687012 -22.6666564941 -152 -45.3333435059 -153.333312988 -45.3333282471 -153.333328247 -63.3333282471 -139.000015259 -81.3333435059 -124.666656494 rrcurveto
          152 hlineto
          86.6665039062 120 67.6666564941 134.666671753 48.6668395996 149.333328247 48.6666564941 149.333312988 24.3333435059 155 0 160.666687012 rrcurveto
          endchar
        </CharString>
        <CharString name="partialdiff">
          13 301 1405 rmoveto
          97.3333435059 68 94.6666564941 34 92 0 107.332641602 0 82.3333129883 -46.6666259766 57.3340454102 -93.3333740234 57.3333129883 -93.3333740234 28.6666870117 -129 0 -164.666625977 0 -10 -0.166687011719 -14.3333129883 -0.333312988281 -18.6666870117 -0.333312988281 -18.6666870117 -0.166687011719 -12 0 -5.33331298828 -70.6658935547 117.333312988 -103.666687012 58.6666870117 -136.667419434 0 rrcurveto
          -94.6666564941 0 -85 -27.3333740234 -75.3333435059 -54.6666259766 -75.3332214355 -54.6666870117 -58.5 -75 -41.6667785645 -95.3333129883 -41.6666107178 -95.3333129883 -20.8333282471 -106 -6.103515625e-05 -116.666687012 0 -68.6666564941 7.83334350586 -63 15.6666564941 -57.3333435059 15.6666717529 -57.3333282471 23.6666564941 -50.6666717529 31.6666717529 -44 31.6666717529 -44 41.4999847412 -34.1666717529 51.3333435059 -24.3333282471 rrcurveto
          51.3333435059 -24.3333282471 59.3333129883 -12.1666717529 67.3333435059 0 76.6666870117 0 69.8333129883 18 63 36 63 36 52.8333129883 48.3333282471 42.6666870117 60.6666717529 42.6666870117 60.6666717529 35.8333129883 71.1666717529 29 81.6666564941 29 81.6666564941 21.1666259766 85.3333435059 13.3333740234 89 13.3333740234 89 6.66662597656 92.1666870117 0 95.3333129883 rrcurveto
          490 -153.333374023 245 -306.666625977 vhcurveto
          -116.666656494 0 -107 -33 -97.3333435059 -66 rrcurveto
          223 -1434 rmoveto
          -76 0 -60.6666564941 30.1666564941 -45.3333435059 60.3333435059 -45.3333435059 60.3333435059 -22.6666564941 80.1666564941 0 100 0 86 16.1666564941 80.1666870117 32.3333435059 74.3333129883 32.3333435059 74.3325805664 44.6666564941 59.3333129883 57 44.3341064453 57 44.3333129883 62.5 22.1666870117 68 0 68 0 57.8333129883 -22 47.6666870117 -44 rrcurveto
          47.6666870117 -44 33.1666259766 -54.6666870117 18.6666870117 -65.3333129883 -10.6666870117 -109.333312988 -22.3333129883 -98.3333435059 -34 -87.3333435059 -34 -87.3333435059 -45.3333129883 -70.3333282471 -56.6666870117 -53.3333282471 -56.6666870117 -53.3333282471 -63.3333129883 -26.6666717529 -70 0 rrcurveto
          endchar
        </CharString>
        <CharString name="percent">
          682 1431 754 rmoveto
          -110.666625977 0 -86.3333740234 -36 -62 -72 -62 -72 -31 -92.3333435059 0 -112.666656494 0 -112.666656494 30.6666259766 -92.1666870117 61.3333740234 -71.6666564941 61.3333740234 -71.6666564941 86.6666259766 -35.8333435059 112 0 110.666625977 0 86.5 36 62.3333740234 72 62.3333740234 72 31.1666259766 92 0 112 rrcurveto
          0 114.666656494 -30.6666259766 92.8333435059 -61.3333740234 71 -61.3333740234 71 -87 35.5 -112.666625977 0 rrcurveto
          -114 vmoveto
          71.3333740234 0 55.5 -26 39.6666259766 -52 39.6666259766 -52 19.8333740234 -64.3333435059 0 -76.6666564941 0 -75.3333435059 -19.8333740234 -64 -39.6666259766 -52.6666564941 -39.6666259766 -52.6666412354 -55.5 -26.3333282471 -71.3333740234 -3.0517578125e-05 -71.3333740234 0 -55.5 26 -39.6666259766 52 -39.6666259766 51.9999847412 -19.8333740234 64.3333282471 0 76.6666870117 rrcurveto
          0 75.3333435059 19.8333740234 64 39.6666259766 52.6666564941 39.6666259766 52.6666870117 55.5 26.3333129883 71.3333740234 0 rrcurveto
          -1030 -644 rmoveto
          135 0 822 1466 -162 0 rlineto
          -776 27 rmoveto
          -96 0 -76.8333282471 -36.3333740234 -57.6666717529 -72.6666259766 -57.6666412354 -72.6666259766 -28.8333282471 -92 -3.0517578125e-05 -111.333374023 -3.0517578125e-05 -110 28.6666717529 -90.1666870117 57.3333587646 -70.3333129883 57.3333129883 -70.3333129883 77 -35.1666870117 96.6666870117 0 96 0 77.3333129883 35.3333129883 58.6666870117 70.6666870117 58.6666870117 70.6666870117 29.3333129883 90 0 109.333312988 rrcurveto
          0 112 -29.1666870117 92.1666259766 -58.3333129883 72.3333740234 -58.3333129883 72.3333740234 -77.5 36.1666259766 -96.6666870117 0 rrcurveto
          -111 vmoveto
          59.3333435059 0 46.6666564941 -26.5 34 -53 34 -53 17 -64.8333740234 0 -76.6666259766 0 -74 -16.6666870117 -61.8333129883 -33.3333129883 -49.6666870117 -33.3333129883 -49.6666870117 -47.0000305176 -24.8333129883 -60.6666564941 0 -60.6666564941 0 -46.8333435059 24.1666870117 -33 48.3333129883 -33 48.3323974609 -16.5 62.5 0 76.6676025391 rrcurveto
          0 76 16.6666717529 64.6666259766 33.3333282471 53.3333740234 33.3333435059 53.3333740234 46.6666564941 26.6666259766 60 0 rrcurveto
          endchar
        </CharString>
        <CharString name="period">
          -701 261 -12 rmoveto
          -107 callsubr
          endchar
        </CharString>
        <CharString name="periodcentered">
          -727 318 759 rmoveto
          -61 callsubr
          endchar
        </CharString>
        <CharString name="perthousand">
          1108 395 -22 rmoveto
          877 1569 -157 0 -856 -1569 rlineto
          145 1460 rmoveto
          55.3333435059 0 42.1666564941 -24 29 -48 29 -48 14.5 -62.6666259766 0 -77.3333740234 0 -74 -14.3333129883 -61.6666259766 -28.6666870117 -49.3333740234 -28.6666564941 -49.3333129883 -41 -24.6666870117 -53.3333435059 0 -56 0 -42.5 24.1666870117 -29 48.3333129883 -29 48.3333740234 -14.5 62.8332519531 0 77.3333740234 rrcurveto
          0 74 14.3333282471 61.5 28.6666717529 49 28.6666564941 49 41.3333435059 24.5 54 0 rrcurveto
          701 -828 rmoveto
          66 0 49.8333740234 -23.5 33.6666259766 -47 33.6666259766 -47 16.8333740234 -61.8333435059 0 -76.6666564941 0 -73.3333435059 -17.1666259766 -61.8333282471 -34.3333740234 -50.3333282471 -34.3287353516 -50.3333282471 -48.8333740234 -25.1666717529 -63.337890625 0 -64 0 -49.1666870117 24.3333282471 -34.3333129883 48.6666717529 -34.3333129883 48.6666717529 -17.1666870117 62.6666717529 0 76.6666564941 rrcurveto
          0 74 17 61.1666564941 34 48.3333435059 34 48.3333129883 48.6666259766 24.1666870117 63.3333740234 0 rrcurveto
          -1 -640 rmoveto
          106.664306641 0 81.6666259766 35.5 56.6690673828 71 56.6666259766 70.9999847412 28.3333740234 91.8333282471 0 112.666687012 0 120 -27.3333740234 93.8333129883 -54.6666259766 67.6666870117 -54.6666259766 67.6666870117 -81.6667480469 33.8333129883 -108.666625977 0 -108 0 -82 -35 -56 -70 -56 -70 -28 -92 0 -114 rrcurveto
          0 -118.666656494 27.6666870117 -93.6666870117 55.3333129883 -68.6666564941 55.3328857422 -68.6666564941 81.3333129883 -34.3333435059 107.33380127 0 rrcurveto
          -700 826 rmoveto
          91.9999694824 0 72.6666564941 35.5 53.3333740234 71 53.3333129883 71 26.6666870117 91.1666259766 0 111.333374023 0 119.333374023 -25.5 93.6666259766 -51 68 -51 68 -73.1666564941 34 -95.3333435059 0 -94 0 -73.1666717529 -35 -52.3333282471 -70 -52.3333282471 -70 -26.1666717529 -91.3333740234 0 -112.666625977 rrcurveto
          0 -117.333374023 26 -93.3333129883 52 -69.3333129883 52 -69.3333129883 72.6666564941 -34.6666870117 93.3333435059 0 rrcurveto
          1472 -826 rmoveto
          106.666625977 0 81.8333740234 35.5 57 71 57 70.9999847412 28.5 91.8333282471 0 112.666687012 0 120.666442871 -27.3332519531 94 -54.6667480469 67.3335571289 -54.6628417969 67.3333129883 -81.3333740234 33.6666870117 -108.00378418 0 -107.333374023 0 -82 -35 -56.6666259766 -70 -56.6666259766 -70 -28.3333740234 -92 0 -114 rrcurveto
          0 -118.666656494 27.8333740234 -93.6666870117 55.6666259766 -68.6666564941 55.6666259766 -68.6666564941 80.8333740234 -34.3333435059 106 0 rrcurveto
          3 640 rmoveto
          64 0 49.6666259766 -24 35.3333740234 -48 35.3332519531 -48 17.6667480469 -61.3333435059 0 -74.6666564941 0 -74 -17.5 -62 -35 -50 -35 -50 -49.1666259766 -25 -63.3333740234 0 -66 -4.57763671875e-05 -50.5 24.1666717529 -35 48.3333740234 -35 48.3333282471 -17.5 62.8333282471 0 77.3333435059 rrcurveto
          0 74 17.5 61.1666564941 35 48.3333435059 35 48.3333129883 49.8333740234 24.1666870117 64.6666259766 0 rrcurveto
          endchar
        </CharString>
        <CharString name="pi">
          261 1296 1120 rmoveto
          -826 hlineto
          -84.6666564941 0 -65.8333435059 -4.5 -47 -9 -47 -9 -37.5 -17.8333740234 -28 -26.6666259766 rrcurveto
          16 -142 rlineto
          61.3333282471 40.6666870117 81.3333282471 21.6666259766 101.333343506 2.66668701172 -12.6666564941 -503.333343506 -40.6666870117 -325.333343506 -68.6666564941 -147.333312988 rrcurveto
          148 hlineto
          62 117.333343506 41.3333129883 325.333343506 20.6666870117 533.333312988 rrcurveto
          406 -675 hlineto
          0 -112.666656494 13.5 -79.6666717529 27 -46.6666717529 27 -46.6666717529 47.8333740234 -23.3333282471 68.6666259766 0 26 0 39.3333740234 4.66667175293 52.6666259766 9.33332824707 rrcurveto
          166 vlineto
          -34 -9.33332824707 -25.3333740234 -4.66667175293 -16.6666259766 0 -16.6666259766 0 -14 3.5 -11.3333740234 7 -11.3333740234 7 -8.66662597656 8.16667175293 -6 9.33332824707 -6 9.33332824707 -4.5 12.6666717529 -3 16 -3 15.9995269775 -1.83337402344 13.3333282471 -0.666625976562 10.6671447754 -0.666625976562 10.6665344238 -0.333374023438 13.6666564941 0 16.666809082 rrcurveto
          664 182 vlineto
          endchar
        </CharString>
        <CharString name="plus">
          -69 637 718 rmoveto
          424 -137 -424 -398 -136 397 -429 137 429 391 136 vlineto
          endchar
        </CharString>
        <CharString name="plusminus">
          7 118 hmoveto
          970 143 -970 hlineto
          550 647 rmoveto
          416 -136 -416 -414 -143 415 -414 137 414 416 143 vlineto
          endchar
        </CharString>
        <CharString name="product">
          268 1139 1342 rmoveto
          -1342 177 1496 -1169 -1496 177 1342 vlineto
          endchar
        </CharString>
        <CharString name="q">
          16 552 -23 rmoveto
          75.3333129883 0 68 16.3333282471 60.6666870117 32.6666717529 60.6666870117 32.6666717529 49 44.3333282471 37.3333129883 56 -3.33331298828 -50 -1.66668701172 -49.3333282471 0 -48.6666717529 rrcurveto
          0 -487 167 10 0 1563 -148 0 -12 -155 rlineto
          -93.3333129883 118.666625977 -115 59.3333740234 -136.666687012 0 -98.6666564941 0 -84.6666870117 -25 -70.6666564941 -50 -70.6666564941 -50 -52.6666717529 -68.1666870117 -34.6666717529 -86.3333129883 -34.6666259766 -86.3333129883 -17.3333282471 -99.8333740234 -4.57763671875e-05 -113.333312988 0 -109.333343506 17.3333282471 -96.6666564941 34.6666717529 -84 34.6666717529 -84 52.1666717529 -66.6666717529 69.6666564941 -49.3333282471 rrcurveto
          69.6666564941 -49.3333282471 82.5 -24.6666717529 95.3333435059 0 rrcurveto
          22 144 rmoveto
          -53.3333129883 0 -46.5000305176 10.8333282471 -39.6666564941 21.6666717529 -39.6666564941 21.6666717529 -31.8333435059 30.3333282471 -24 39 -24 39 -17.8333435059 44.6666564941 -11.6666564941 50.3333435059 -11.6666564941 50.3333435059 -5.83334350586 56.1666564941 0 62 0 82 10 72.1666870117 20 62.3333129883 20 62.3333129883 33.5 51 47 39.6666870117 rrcurveto
          47 39.6666870117 58.1666564941 19.8333129883 69.3333435059 0 114.666687012 0 83 -37.6666870117 51.3333129883 -75.3333129883 51.3333129883 -75.3333129883 25.6666870117 -111.333374023 0 -147.333312988 -1.33331298828 -133.333312988 -26.8333740234 -101.333343506 -52.3333129883 -69.3333435059 -52.3333129883 -69.3332824707 -81.5 -34.6666564941 -110.666687012 -6.103515625e-05 rrcurveto
          endchar
        </CharString>
        <CharString name="question">
          -330 404 435 rmoveto
          26.6666564941 58.6666259766 31.5 60 36.3333435059 61.3333740234 36.3333129883 61.3333129883 32.6666870117 52.5 29 43.6666870117 29 43.6666870117 27.8333129883 45 26.6666870117 46.3333129883 26.6666870117 46.3333129883 20.8333129883 47.5 15 48.6666870117 15 48.6666259766 7.5 50 0 51.3333740234 0 102 -33.1666870117 79.5 -66.3333129883 57 rrcurveto
          -66.3333129883 57 -87.1666870117 28.5 -108 0 -138.666717529 0 -110.333328247 -32.3333740234 -81.9999542236 -64.6666259766 rrcurveto
          45 -135 rlineto
          86.6666107178 54 86.3333282471 27 86.0000610352 0 69.3333435059 0 54.6666564941 -15.3333740234 40 -30.6666259766 40 -30.6666259766 20.3333129883 -47 0.666687011719 -63.3333740234 0 -36 -9.83331298828 -43.3333740234 -19.6666870117 -50.6666259766 -19.6661376953 -50.6666870117 -23.6666870117 -51.3333129883 -27.667175293 -52 -27.6666564941 -52 -27.8333435059 -52.5 -28 -53 rrcurveto
          -28 -53 -23.8333435059 -54.1666870117 -19.6666564941 -55.3333129883 -19.6666564941 -55.3333129883 -9.83334350586 -49.0000305176 0 -42.6666564941 rrcurveto
          -75 -315 rmoveto
          0 -35.3333282471 11.8333282471 -30.8333282471 23.6666717529 -26.3333435059 23.6666564941 -26.3333282471 32.5 -13.1666717529 41.3333435059 0 42 0 32.6666564941 13 23.3333435059 26 23.3333435059 26 11.6666564941 31 0 36 0 36 -11.6666564941 31 -23.3333435059 26 -23.3333435059 26 -32.6666564941 13 -42 0 rrcurveto
          -41.3333435059 0 -32.5 -13.1666717529 -23.6666564941 -26.3333282471 -23.6666717529 -26.3333282471 -11.8333282471 -30.8333435059 0 -35.3333282471 rrcurveto
          endchar
        </CharString>
        <CharString name="questiondown">
          -330 434 779 rmoveto
          -26.6666564941 -58.6666870117 -31.5 -60 -36.3333435059 -61.3333129883 -36.3333435059 -61.3333129883 -32.6666564941 -52.5000305176 -29 -43.6666564941 -29 -43.6666564941 -27.8333282471 -45 -26.6666717529 -46.3333435059 -26.6666107178 -46.3332214355 -20.8333282471 -47.5 -15.0000610352 -48.6667785645 -15 -48.6666717529 -7.5 -50 0 -51.3333282471 0 -102 33.1666564941 -79.5 66.3333435059 -57 rrcurveto
          66.3333435059 -57 87.1666564941 -28.5 108 0 138.666687012 0 110.333312988 32.3333435059 82 64.6666564941 rrcurveto
          -45 135 rlineto
          -86.6666870117 -54 -86.3333129883 -27 -86 0 -69.3333435059 0 -54.6666564941 15.3333282471 -40 30.6666717529 -40 30.6666564941 -20.3333282471 47 -0.66667175293 63.3333435059 0 36 9.83332824707 43.3333282471 19.6666717529 50.6666717529 19.6661071777 50.6666717529 23.6666564941 51.3333282471 27.6672363281 52 27.6666564941 52 27.8333435059 52.5 28 53 rrcurveto
          28 53 23.8333435059 54.1666870117 19.6666564941 55.3333129883 19.6666564941 55.3333129883 9.83334350586 49 0 42.6666870117 rrcurveto
          75 315 rmoveto
          0 35.3333740234 -11.8333129883 30.8332519531 -23.6666870117 26.3333740234 -23.6666870117 26.3333740234 -32.5 13.1666259766 -41.3333129883 0 -42 0 -32.6666564941 -13 -23.3333435059 -26 -23.3333435059 -26 -11.6666564941 -31 0 -36 0 -36 11.6666564941 -31 23.3333435059 -26 23.3333435059 -26 32.6666564941 -13 42 0 rrcurveto
          41.3333435059 0 32.4999694824 13.1666870117 23.6666870117 26.3333129883 23.6666870117 26.3333740234 11.8333129883 30.8332519531 0 35.3333740234 rrcurveto
          endchar
        </CharString>
        <CharString name="quotedbl">
          -485 446 1016 rmoveto
          101 0 29 494 -151 0 rlineto
          -265 -494 rmoveto
          101 0 29 494 -151 0 rlineto
          endchar
        </CharString>
        <CharString name="quotedblbase">
          -376 126 -256 rmoveto
          118 0 133 472 -161 0 rlineto
          225 -472 rmoveto
          118 0 135 472 -162 0 rlineto
          endchar
        </CharString>
        <CharString name="quotedblleft">
          -377 438 1102 rmoveto
          162 0 90 472 -117 0 rlineto
          -444 -472 rmoveto
          160 0 94 472 -120 0 rlineto
          endchar
        </CharString>
        <CharString name="quotedblright">
          -400 133 1102 rmoveto
          117 0 135 472 -159 0 rlineto
          194 -472 rmoveto
          117 0 137 472 -163 0 rlineto
          endchar
        </CharString>
        <CharString name="quoteleft">
          -685 129 1102 rmoveto
          162 0 91 472 -117 0 rlineto
          endchar
        </CharString>
        <CharString name="quoteright">
          -691 249 1102 rmoveto
          134 472 -157 0 -93 -472 rlineto
          endchar
        </CharString>
        <CharString name="quotesinglbase">
          -691 126 -256 rmoveto
          119 0 134 472 -161 0 rlineto
          endchar
        </CharString>
        <CharString name="quotesingle">
          -772 283 1486 rmoveto
          -156 0 21 -511 115 0 rlineto
          endchar
        </CharString>
        <CharString name="r">
          -449 635 1107 rmoveto
          -52 callsubr
          endchar
        </CharString>
        <CharString name="racute">
          -449 815 1630 rmoveto
          -40 callsubr
          145 -135 rmoveto
          -52 callsubr
          endchar
        </CharString>
        <CharString name="radical">
          21 1035 1718 rmoveto
          -181.333312988 -744 -135.666687012 -558 -90 -372 rrcurveto
          -59 186 -241 659 -260 -56 16 -121 152 31 333 -909 139 0 440 1884 rlineto
          endchar
        </CharString>
        <CharString name="rcaron">
          -449 139 1630 rmoveto
          -31 callsubr
          365 -523 rmoveto
          -52 callsubr
          endchar
        </CharString>
        <CharString name="rcommaaccent">
          -449 302 -620 rmoveto
          -29 callsubr
          239 1229 rmoveto
          -52 callsubr
          endchar
        </CharString>
        <CharString name="registered">
          629 1701 781 rmoveto
          -43 callsubr
          -799 -714 rmoveto
          -42 callsubr
          -45 776 rmoveto
          -126 306 116 hlineto
          111.333312988 0 76.8333129883 -9.33337402344 42.3333740234 -18.6666259766 42.3333740234 -18.6666259766 21.1666259766 -40.6667480469 0 -62.6666259766 0 -60.6649169922 -22.6666259766 -41.1666870117 -45.3333740234 -21.6683959961 -45.3323974609 -21.6666870117 -72 -10.8333129883 -98.6676025391 0 rrcurveto
          57 -127 rmoveto
          14.6666870117 -11.3333129883 15 -15.8333740234 15.3333129883 -20.3333129883 15.3333129883 -20.3333129883 13 -19.1666870117 10.6666870117 -18 10.6666870117 -18 15.9999389648 -28.6666870117 21.3333740234 -39.3333129883 rrcurveto
          125 -224 149 0 rlineto
          -27.3284912109 44.6666564941 -29.3333740234 50.5 -31.3381347656 56.3333435059 -31.3333740234 56.3333435059 -23.6666259766 42.3333435059 -16 28.3333129883 -16 28.3333129883 -18.6666259766 28.6666870117 -21.3333740234 29 -21.3333740234 29 -21.6666259766 23.1666870117 -22 17.3333129883 92 11.3333129883 66.3333740234 30.1666870117 40.6666259766 49 40.6666259766 49 20.3333740234 60.5 0 72 rrcurveto
          180 -147.666625977 90 -295.333374023 vhcurveto
          -258 -976 132 415 hlineto
          endchar
        </CharString>
</ttFont>
